<mxfile host="app.diagrams.net" modified="2020-08-12T18:07:25.524Z" agent="5.0 (Macintosh; Intel Mac OS X 10_15_6) AppleWebKit/537.36 (KHTML, like Gecko) Chrome/84.0.4147.105 Safari/537.36" etag="n-GL6LHcRYVg1nEOmL4O" version="13.6.2" type="github" pages="2">
  <diagram id="haMj9Q-7-SCHEV1QTf3N" name="Page-1">
    <mxGraphModel dx="1057" dy="811" grid="1" gridSize="10" guides="1" tooltips="1" connect="1" arrows="1" fold="1" page="1" pageScale="1" pageWidth="850" pageHeight="1100" math="0" shadow="0">
      <root>
        <mxCell id="0" />
        <mxCell id="1" parent="0" />
        <mxCell id="nrU1O6t08qwyx_xVfJpx-2" value="&lt;h1&gt;PacWest SteelCentral Advanced Training&lt;/h1&gt;&lt;p&gt;The goal of this training is to provide the PacWest SE&#39;s with an advanced view of the SteelCentral product line. The intent is to present those advanced use-cases that span multiple SteelCentral and third-party services that drive customer adoption through operationlization. This session is not designed for those with novice skill levels around SteelCentral with the exception of SteelScript and REST API development.&amp;nbsp;&lt;/p&gt;" style="text;html=1;strokeColor=none;fillColor=none;spacing=5;spacingTop=-20;whiteSpace=wrap;overflow=hidden;rounded=0;" parent="1" vertex="1">
          <mxGeometry x="80" y="40" width="690" height="90" as="geometry" />
        </mxCell>
        <mxCell id="nrU1O6t08qwyx_xVfJpx-3" value="&lt;h1&gt;Approach&lt;/h1&gt;&lt;div&gt;This training session will broken down into three phases:&amp;nbsp;&lt;/div&gt;&lt;div&gt;&lt;br&gt;&lt;/div&gt;&lt;div&gt;* Advanced SteelCentral Use-Cases&lt;/div&gt;&lt;div&gt;* SteelCentral and REST API&lt;/div&gt;&lt;div&gt;* Modern Application Architectures&lt;/div&gt;&lt;div&gt;&lt;br&gt;&lt;/div&gt;&lt;div&gt;The intent of each section is to build upon one another, leading the SE&#39;s down a path where they will be encouraged to obtain their RCPE&#39;s and further develop their skills around visibility and applications.&amp;nbsp;&lt;/div&gt;&lt;p&gt;&lt;br&gt;&lt;/p&gt;" style="text;html=1;strokeColor=none;fillColor=none;spacing=5;spacingTop=-20;whiteSpace=wrap;overflow=hidden;rounded=0;" parent="1" vertex="1">
          <mxGeometry x="80" y="150" width="690" height="190" as="geometry" />
        </mxCell>
        <mxCell id="nrU1O6t08qwyx_xVfJpx-4" value="&lt;h1&gt;&lt;span&gt;Advanced SteelCentral Use-Case&lt;/span&gt;&lt;/h1&gt;&lt;div&gt;The primary objective of this session is to go into the details on our primary SteelCentral products - NetProfiler, NetIM and AR11. The secondary objective is to provide an overview of our secondary SteelCentral product lines, which include NetPlanner, NetAuditor and (optionally) Modeler.&lt;/div&gt;&lt;div&gt;&lt;br&gt;&lt;/div&gt;&lt;div&gt;The outline for this section is described below:&lt;/div&gt;&lt;div&gt;&lt;br&gt;&lt;/div&gt;&lt;div&gt;* SteelCentral Presentation Overview - An actual customer-facing presentation&lt;/div&gt;&lt;div&gt;* Setting up and sizing SteelCentral Solutions&lt;/div&gt;&lt;div&gt;* Deployment Approach and Strategies&lt;br&gt;&amp;nbsp; &amp;nbsp;(if possible, include implications of requiring package aggregators, flow replicators, etc)&lt;/div&gt;&lt;div&gt;* Live use-case (incl. NetProfiler, AR11, NetIM, REST (via Postman)&lt;br&gt;* Brief overview of SteelCentral Cloud offerings and limitations (eg., AR Cloud limited to ASA only, AWS VPC flow logs, etc.)&lt;/div&gt;&lt;div&gt;* BOM building&lt;/div&gt;&lt;div&gt;* Q&amp;amp;A&lt;/div&gt;&lt;div&gt;&lt;br&gt;&lt;/div&gt;&lt;div&gt;(note to presenter: additional commentary around this section is located on Page-2 of this document)&lt;/div&gt;&lt;div&gt;&lt;br&gt;&lt;/div&gt;&lt;div&gt;&lt;br&gt;&lt;/div&gt;&lt;div&gt;&lt;br&gt;&lt;/div&gt;&lt;div&gt;&lt;br&gt;&lt;/div&gt;&lt;p&gt;&lt;br&gt;&lt;/p&gt;" style="text;html=1;strokeColor=none;fillColor=none;spacing=5;spacingTop=-20;whiteSpace=wrap;overflow=hidden;rounded=0;" parent="1" vertex="1">
          <mxGeometry x="80" y="320" width="690" height="330" as="geometry" />
        </mxCell>
        <mxCell id="GIlL48aYuBiuvxS1NvS7-1" value="&lt;h1&gt;SteelCentral and REST API&lt;/h1&gt;&lt;p&gt;The goal of this session is to (re)introduce the SE&#39;s of the power of REST API&#39;s and the myriad of solutions REST API offers. The intent is **not** to have SE&#39;s become professional developers but to rather gain an interest and understanding the functional aspects of REST and gain a high level understanding on what solutions *can* be developed through the REST interfaces.&amp;nbsp;&lt;/p&gt;&lt;p&gt;This section does require SE&#39;s to review a set of videos/material that goes over the mechanics and semantics of REST and HTTP:&lt;/p&gt;&lt;p&gt;&lt;b&gt;&lt;u&gt;HTTP Essential Training (LinkedIn Learning)&lt;/u&gt;&lt;/b&gt;&lt;/p&gt;&lt;p&gt;&lt;a href=&quot;https://www.linkedin.com/learning/http-essential-training/welcome?u=2101081&quot;&gt;https://www.linkedin.com/learning/http-essential-training/welcome?u=2101081&lt;/a&gt;&lt;br&gt;&lt;/p&gt;&lt;p&gt;&lt;b&gt;&lt;u&gt;What is REST API? (LinkedIn Learning - only this chapter)&lt;/u&gt;&lt;/b&gt;&lt;/p&gt;&lt;p&gt;&lt;a href=&quot;https://www.linkedin.com/learning/learning-rest-apis/what-is-a-rest-api?u=2101081&quot;&gt;https://www.linkedin.com/learning/learning-rest-apis/what-is-a-rest-api?u=2101081&lt;/a&gt;&lt;br&gt;&lt;/p&gt;&lt;p&gt;&lt;br&gt;&lt;/p&gt;&lt;p&gt;The outline for the actual presentation is as follows:&amp;nbsp;&lt;/p&gt;&lt;p&gt;* Brief overview of REST (a refresher)&lt;br&gt;&lt;span&gt;* Typical scenarios where REST / SteelCentral is used&lt;br&gt;* A basic REST script (not using SS)&lt;br&gt;* A basic REST script using SS (showing the usefuleness of SS)&lt;br&gt;(note: please provide github link to these basic scripts)&lt;br&gt;&lt;br&gt;&lt;/span&gt;&lt;span&gt;* Understanding REST documents (as they relate to the script examples)&lt;br&gt;&lt;/span&gt;&lt;span&gt;* Top/popular REST calls for AR11, NP and NetIM&lt;br&gt;&lt;/span&gt;&lt;span&gt;* REST &quot;as an ETL&quot; and popular data destinations (eg., Grafana or even pub/sub)&lt;br&gt;&lt;/span&gt;&lt;span&gt;* Advanced use-cases with SteelCentral REST (your current work)&lt;br&gt;&lt;/span&gt;&lt;span&gt;* Other use-cases that can be done with SteelCentral (stuff that *can* be done but you haven&#39;t implemented it)&lt;/span&gt;&lt;/p&gt;&lt;p&gt;&lt;br&gt;&lt;/p&gt;" style="text;html=1;strokeColor=none;fillColor=none;spacing=5;spacingTop=-20;whiteSpace=wrap;overflow=hidden;rounded=0;" vertex="1" parent="1">
          <mxGeometry x="70" y="600" width="690" height="460" as="geometry" />
        </mxCell>
      </root>
    </mxGraphModel>
  </diagram>
  <diagram id="Uqr6_C1W0XBgUoXrbtn1" name="Page-2">
    <mxGraphModel dx="1057" dy="811" grid="1" gridSize="10" guides="1" tooltips="1" connect="1" arrows="1" fold="1" page="1" pageScale="1" pageWidth="850" pageHeight="1100" math="0" shadow="0">
      <root>
        <mxCell id="ZlFNfQ2EXaN5Kx8b1gU9-0" />
        <mxCell id="ZlFNfQ2EXaN5Kx8b1gU9-1" parent="ZlFNfQ2EXaN5Kx8b1gU9-0" />
        <mxCell id="ZlFNfQ2EXaN5Kx8b1gU9-3" value="" style="shape=image;verticalLabelPosition=bottom;labelBackgroundColor=#ffffff;verticalAlign=top;aspect=fixed;imageAspect=0;image=data:image/png,iVBORw0KGgoAAAANSUhEUgAAAggAAAEnCAYAAADM7rsdAAAgAElEQVR4XuxdBZiUVRd+t+nuTunuWEBKRLokBZQQEBQQSQFBEQERCUEBRcAAFEl/kFi6u7uU7s7d/Z/3fN/95pvZ2Z4Zdpa5z6PL7lf3nnvvOeeeeI9X4cKFQ5s0aYLupxYj1MsLXqFAqBfgBbZQ8F+hofL/aF3n03zG/Dy89Hd5GW92yHX5jPqW3nf9y/J+e9dlePozdq/LC0gM/lTv0GmjvVx7PpzrGg2jcF36ETMahzdHalhuPQdRoHHM5iB66zgm+8BZ61ztQ1kvUVzn0doHsqT1J/j+KMxBlNe5vk9iwkucNgf61ta3oMYStE1j+qmYoU4MdS3Mfeo53hAKL/I60/vksSg9a/q2vfvlPfqFCN4nvTDWiBe8OJnquQj7ot5tTL7Wb/O37NIoVLtFH7car/EWg6YafTQ6RzCOCOmr82Z+0dQvY3iGfIkarcLOv02/wpkHEQv6R7Xx2tAsXDqrF4YzJ1brT3+J6pL+00xXbWvpdDUvNNWfMO+zXePmb1j3yatIkSKhjRs3RvfTi80i3SK0bIS5NrMmwR/udfIabWFy6ShlwfK8uq52kYm4+gLSng97XXuj9rysEUOYa78bTEhfQFG9rr4nPJJ9UJOv3m9Sm/gRxQSM90dwPdRLo4KinvG8/hkrRh5lGttXuBxBY7WJDRqb+iRjUEpjNGmsuFZ4zzt/DrTNoLEofWU6ZA4cv87DnQN93TtsDmzWuTEH+kRHZ52bmaS2jaz3iaFQWI4PL4/XhCuAlZC2x3QVP7LHZDWBpA5T6k7jfKHkmZ3vyuHMeEB93863LAwvCgqH5T3aSEz8NFJlxVowWQlRs/xU/F9+mvl9VBQikwS1FWLh9k+7YKapQSWbfhk3mj5jNQ7z362UIDXv4SswljOjRUlRfzPLaPtKoZ332vbFqs8mbV0pffbGavUOfQxmJSpCmgpDt0yaTg9DQfj4teSm1ajfp1Rg04tv3LmHPmO+RWp/H+v7HfqbWVlQL7ZVIMyj1Zi9ZcfExecdSiAnvSyu0zA6/XMSiZz+2uiMMXrr3MvPDz4BCfHiwT19FNF7Xnsosv45nUAO/oDNKS6it9uyHKt71UWb07EVvRT9zKYLm1OnzWHEmt42nTP1R4kDe10yd9vM0i2nUIswUWqu+bvaCdXeWjGvCP26HRpF9rxdMoY3Dya5F/YWGyqYLSZhbjb3N5yx2ZtvW0JHuCb0j0bxHqXEhZ1zrX9Kfqs5tB2SsQLt6R8R0s3ypqchQPO2DVGjcnH5oygITRo3wfDPhkdp412+fBl9yudHx1wpNE1Z7zj/JYMI1Uy48nJe160Attetz3AkifXzUbtuuktbhSYWZjmTi24bnevCMyJ43t51k6ooJzvb522uq5OWLQ3l/KEdDfVFYU1ju9fDoXG8m4No0tjeHChWEG0am9a5ZQ4iX+eOnANtcWsCzczSrSwiEazzhBkyI1m+4ri2frnpVc5d58qCqESJfr7WbIrRXecx5DXa2VbZi2LKa0xviQ4vsbHLhuFFLuA1ZiuumV/HaA5eFV5jnuMo8HPn8xqTPHDiHJy4/xzpB0xGs2ZNNRletGhRcTEMHx49BeHdXCksQl15lXTt12JKt2g+ovVEdt3GKmUoDRavlZXFRnOXUvhrYlYxTuXiMjTXiK4rd0l4z4d3XefQIr4ltsLm+xFc12/VlRlr14N1DIjGzMyuCXvXlXYZJRrbKPqR0lgpbrZzoKuxUaKx3ulw58jVc2AVZxM1Glu7h/R1Z7iMnLzOzXNgu87UtoqMxl6hSJA+K5LnL4or6/82wjeMbRmVOYjmOjcOzxKKY+2Xj8k6f/lzQHbzEniNfnRzT15j5l82+ySq/P4V5jXaPomAhg6WqSfuP0P6AZPQrFmzmCsI/aqXxrjvpuHYt5/i2Z3b8Pb3Q8F+Y3D4i97I13MYAtJkkJcHP3mEi8t+x51DO1B4yETc3rsNF5f9JnwjIE065O/5GY6M648XD+6axKAXCvQdhaNfD9Q66OuH/B+OwOlZ3yB/rxGmwEDg6fWruLj8d6Sp8DrO/joVhft/jbvH9+O/RbPl2URZciJPp09wYEQPhIaEyN98EyREvl4jcGRMP/nd2z8ABT8ejYOjehtWj7AROUZYjVUshW/S5MjZugdSFCmDx5cv4NSPX+PJ5fM2y16dnbSf1rEY1uxZu25jxTUYt3reQgLNvaSsNLqop5NXCfMoXVeHUrMqYt0HZRGxLFOdY9n8UKav8Cxqluv2TXquux41Glu0UdtTdnRpbDNH6sUmMtilcTjXjXViZxoimoMEGTIjeb7iuLJ+uZ11GNk6dfT16M+BJaZJE9TRW+fmOTD5+6MzB+F7Xq1mIrw58EmUBPk+GIrDYz6JNq8xfyBD9Qa4HLQUXqHkaWF3G7+ftkIN3Ni2Vg86VU+b1zHgnzwlcr3zIY5P0g6H5Gd53uuHoxOG6P2LOq/xT5EKuTv0RrJ8RfHg/Emc/H4Unt++ZTNHMeQ1dtiF+/Aam9NIOPzcPq/R4+uixc/tyAMb90JEvObk/WdIZ1YQihUtFtqocaNoWRD6v1EBPx84i3vHD2HH+/XgkyAhqvy5C0FvFULF2Wtx+Kt+ePHwHhJnyYliI37A6lp58PqyQ/Dy9sGauvmBFy9QaOA3yFS7CdY3K4tnt64ZJ+UURcshRaESOPvbVKGZd4JEqPzLBmx8uwISZcmFBOkyIX/P4dj3aWeEPnuGBBmzIlvTd7F3UEe8vuQAnt2+gS3tq4vCkeudXsjToY98PyT4uWwmv6TJUWl2ENY1LilWfp9EiVDlj51YW7cg4OWNgFRpRWEJfvZUrnv5eMMvZRo8u8k+WoQ8319p9lpcWb0Y5/+YifSBdZD3/cHY2KoSQp48gk/iJPDxT4Bnd26IVdjb1xd+yVLi+d3bCAl+IVPukyARfPwD8PzeHWMjhfUGWnaH+pemNNKVo9iD2bWiDDUxuW4KJ7X7fnO4qa5QmBmsyd9quE6sGLAp8FPNuK4BW6wfJrO9uKy007r965qotLhprJUci3XEEkBoMbHqypVNAK0VjY1VGbfmwDLr0ZmDUCTIkAXJ8xUTC4JSVoUeMZgDw99pWDfC0lgT4OrUGNa7rcSVbRBz2Dl4ies8nH0QkznwS5kKFX9ahXWNSgrPDHn2DAGp0uDJzWsaL0qYUCyR3v4J8Py+xhN8/PwR/PwZvLy9tUh1b29U+2sv1jUphdDnz+CfMg2e37+LEN6jr1dvH18EztuKTW2rIOTJY3j5+cMvSTI8u3PTUBhI44TpM6Pk2F+w5Z2qwi8TpEmPMpMWYlOrSvId/xR89x2EPnsqvMbb10942LNb183GIeHT1f8+ipM/fImLKxYgS92WyNGuJzY2L4uQFy/k2zzoPef3uWP9/OCXNIX0hwc38jIv/wD4JU6CZ3dvSx+tQn51t7U5DEKtq7DrWCmylj1rzYvC4yWR7wOrb1nZdu2tc9v1HjaIOS7ymlP3nztGQZixYQ+e3LiC/xbPweXVC1H1z90IeqsgKs4Ows7ujfH8wV3Axwc1Vp7E2jfzifAOfvoEWzvWEiHO+7lQtnSoiae3rhoaKxWHf//8CfdOHJRFyI1Uee4GrG9WWhZiwkzZRenY1qmObKbUpQKRrdm72DfoXVT9ay8enD2O45OG4eG/p1F+xgoRwpvbBCI0OFjepxSE9Y1LiCT1SZRYFISgeoVR/IuZ8E2SDEmy58Wuj1rg6c1rovA8vHBKNsfOD5sj5DkVjVDZPIG/bsLatwoBocHSfyo3d4/uRd5O/ZGqZCV55vbBHTj+3UiU+24xXjy8j4A06bG9WwOkLFoOr70/CC8eP8LNXRtwcurnJkOy5bxgrZRYM0rjBKUzeG0BW/7vrOtWlgTZzHoalSlLwzjX2FxX41EeXQ7a/HxMr4urycbPLOdE/fu2180nsrA0tj6VWZQT7U5X0Nh8MrT+vjn+QB9FFOcgYUaLBUGxUWWxivkchE9jg0WGmQMj5MqYBneZA3OwntXBNpw5MK9zvxRpUHHWP1jfpBRqrDqNx5fOCz95fOVf7B/0HmquPYtH/56Bt39CnJ41Htc3r0TxUT9h14fNkP71+kicPa8csnK27o4zcyYiVYmK8PLxkYPT7r6tcP/0MVGmM9dtiQIffYH/ls7FpZV/ouiwKdrB5PlT7PmkPUKePhJekzB9FpQcOxdb3nld5oGW3zKT/sDmtlXl7xTqPOTt7NlUvlP62wV4dPEcgh8/xO5+bY19EJA2IyrOWoO1bxU03MipSlTCnf3bUHjQBCTMnEP47uU1i3H+9+9RYcYKPL11HX4pUmF713pInDUXinw6Gc/v3cbTW9dwYHg3hLx4brWftROUe/Ia8zqJ6+v85P2nSCcxCLqLoVixYqGNGkXfgvBD0A5s7/KWnMa3dKyFirNWiQWBv7948kg0x4QZsuDukT3YN6QLavzvKE5MGwW/FClxecUfyP3ux0hVvDy2d2+IpzeuaSZPLy9U+GmV/C348SP5m3cALQgbsaFpKbmeIFM2lBgxHVs6vSHXU5XUFIS9Azui2qJ9OPHdSCQvWAKXVv6BHK27I1newtjUtipCZcF5wTcZLQjrsK5RCQkk9EmYGFUW7MK6RsVQfflh7B/eDS8e3JcFmq/7ENlgd4/sRYHen+PUj+Nwa+9W2QQpC5dC3m6DsbNHYy33l1qwnp+e972PcXHFH/BPkRolRs2UDVZs5AwcHT8A/qnS4s7BXSj73SJxr1AJKTF6Fra/Xx/Pblw1Ajwtgkg/Z+lphSrPWHFWu1gTJunnquuaoLfQwKp/MgRrGilzjDBch13XxKpYn/VdacaiUDFxunXaJOytaayCbOMajVX6rVpntv2zOwcqwCoUSJBBi0G4uu5vC41UhHpM58AG78OKxuHOgSWQObx1HlfnIMJ1LgqpzT7QJQLXuV/y1Kj402qsb1ISNdecFUWBGSU1Vp7A6po55W9r3siH0OAXcrDa0LysHIZ29mqGDNXrIXH2PDgzawJeX3oIQQ2KoOpfe3B4TD85iDw4ewKPLpzS9xlQZcF2bGxZAcU/nyFu3etbVqFA39F4cOoILiyaLbyTFqVSY3/Bpneqyb7RFIQ/sa1zXbHaHvy8FxAagqe3bqDwoPE49/s0+U6RwRNx4LNueHj+lGyz1GWqIEfzLtjzSRvNiWriVa91/xQXFv2MBKkzoOhnU7FvYAcU6PsVjk8cKooD+8U+Xv5noRyu8n/0Bc7OmYibO9YZmApRWuc27lszP3YXXmMVYv+S+P0pRygIA96ogB+Ctot7IMtbLZGjVXf4p0xtuBh2926F5w/uIPjpU8PsVWPFMaxvWBxVFu4WIXty2hcoOe5X7OjRAE9vXheO7pswMQoNHI/9Q7sa2qO1BcELCTNl0y0Ib4g4Sl2qsrgY9g3qiKp/7cPWTm+g9PjfcX3zP7i5ayMK9RuLTW1pQXghGRW+iZOgyrwtWFu/iOFyCPxtM4LqFUKy/MWRu0MfJHutEM78+h3yvNsPt3ZvQmjIC9HcL/1vgSxobgp/uip+3YT1jUrIu9n/PJ0H4MIfP6LIkG/hmzipbKa0lWtjXf0iyPxWS2Ss3RRJcubDnv7voMy3f+D61tVanrivL05+/6VYPSyIEcoAazGFW+KwDduAgTFhfX6O/XVN2Nt+0SZgUlcJzEzenEOvTHvhXTekuHEqN2e9qDGYz+tRuG5EumvPWyNwhDX7maNCNF5u7UYx/8XRNFaRLWaLjHVQqv05oHS35FyrmVI2h/BpRIVdXAzrlpuwv8ymWG20VjgIVm6jKF6PYA7s09gSmWO+rqwczpyDyNe5ZQ5iu855YKCLgQpCjZWnsKZ2Ht3KSgUhN2qtOYM1tfIgNCQYr/99DJvbVkGxz6ZhR88myFSrCRJmyoEzP3+D15cdRFD9okhTvgayNX4HyfIXw9FvBuNK0DLDhhe4YAc2vV0RpScuwJFxA/Dw3Alka9EZfkmSy0GH8xyQKh3KTV2CjW+Xlx2YMEsulPzyR2xqV034ao6W7yNpnoI4MfVzFOw7GtcZ08D94e2DC3/MxO3922WKZFyzgxDUoKjB7wv0/gInvxuJstOWIvjRA7Hspq1cB+sbFUP2Fl2RrkodsYjQglD88x9EBtDCSl7Id9/at9UUnO24OXAoL3JbXqNki3XwIzmtlsVgClKMqQVhetB2bGhWVkxP5ab/T/xZNLfTL7+je2Px46vG7tRYcRTrGpZEhR//QYK0GcSkX2nOOuzo3lDzwQHI0rCdnKivbVxpACRRQagkLoYy8joqCMWVi4Haq64g7B30Lqr9tUdiC0qNnYuEGbOJDy7w9y3Y3KaKWDQUU63081pc/HsebuxYh7TlX0fGmo2xvXsjVFu8D1vfqw3/lGlRZMhEXN+4AvD1xfnfpqH4qJk4PnkEbu3bYoiz8j8sx7UN/5P/UhavgJxtP8Dm9jWkH1s61EDq0lWQj/ESAzuKNYMWAwYF3Tt5CJlqNsa/S+bg3vEDYs7b8T4VpatGnINlIVvYpDoY63LMChhNsXnDRG+T3h3t62EijE1mCf2fVrEvplgci5vAwtot5kGLv06NzOwK0ObI2igX/euWvpqDQlX2iLl/ZmdCtGkUWxrbed6Wyrb9U+vCYqo0qVlWcxCWhgnSZ0by/MVxdf1yB9DYzhxZsjBt1rHl3jA0trPOXLrOozgHxgjsrHPrfaDM4GHXcUCKNML/GD9Q659TWFU7N7x8fFFz5UmsqpkTtdacE37IYMbCA77GpjZVUHXhLuzo2QwFe48S3nPmp/GotvQQdvZohFLf/I6dH7VA2go1kShrDhwbP1hjDaFAlflbsfuTdsjWqL0Ei/+37DcUGfytuCaub12jW9q8xE167repuHNoFzK92QKJMmWXIMWyU/7Czo/eRoqCJZDpjeZ4dusqHl+5iEv/m4+S438TnsZgRK15odrCnTg1cxxuH9iBtBVrIWujdtj8TnVUX3ZILLgZazRErvYf4fCYj5Gu8hs4+f1oFBowTmLNsrz5Nu6fPYYraxaj6PCpODH1C9zaSz5r3sfhrXPzXbrAM1wRjuAlkfGi+MVrTtx/ivQDJ6NZ01i4GFQWw0FmB4R6STRswf5jsW9wJxTqN0ZiAF4wOMZ0Gin+5Y/YP/R9pC1fHYmy58HZuZNRdMi3OPrtMLxgIAxCQa3z3C9T8PjaZX3ZhcLLLwCFB4zHgZE9ZCEyiJDRskfHM8vBC0nzFBJt9PTMcSgyfCoOftYdqUoHIkXh0jgz6xvxgR0a3QcIDjZwEhhnwH76p0mPJ1cv4dAXH4oLIl3gG8j+9vti9ts/rIsEERX8ZKyY9m7v24ZTM8ZofjBltvX2Fc06cfbcotiwT/T15WrfG6nLVMadg7sl5uD45OHI3uw9pCxREfdPHcGxicPE4lKg9yj4J0uB8/On49qmlRYTvW1+eAzzXrWtGz4WRWTXY4VFEZP8bt3MrZhctLEoInveFLsfUQ5+dPA8IqNhbK+HmQMdmVBTvSz2D+PkHQENHIKDEAUaGweDcPLHDVdUBDgIL2UOwsFZMM+BnKDNNIjGHPgkJt8ZjQPDu4tbce+ADhIYXfKrWdjzyTviYri5eyO8vH1xYGgXvHj0AHm7DUGKgsVx6Z+/RNBfXrVQ+AZCQvDgzHFkrN0Ez25fx5Gxn+DZfR7KNCFJYZwwQ1YcGT8QBT4cgUTZX8PVNYvF3K8pNNp9VBrz9foM/slT4+H5Ezg6fpDEa2Wq0xyZ32qFpzev4OAXH0mAJHkh30kr6tlfp2gBwnoAobePD4oMmQTGIzy5dgmHvuwtgZP8dtK8hXFz53rh1XwXY69ombhzaDdOff+lHMIK9hklWWdXg5bhwsKfwsHFiSHuzcvgRVaYLVHBtTEFZ79Efn9SghRNOAgxsSAQKMkpOAiy8SLI+bQ9bRj+1Qhykw02Gg5OghOva0w8ApwE00Y1GL6dHP3o4xxEQMPIaBzZdXMqZlRz8J1IY1tHjBUWhn60CzMHkeAgaN11Ig0je3+YU7U2ShlOTHEQxOfMGARmMTDNUeVO2SoaDt4nNnPgdutc13b02PeIcRBiuc41F0NehIS8sI/pEsn7RTkID6vCw2tsFGrnrnPzPrW2QVi7aeMarwmDgxATBWHspwPxaa9uNoZmc16z2Uho+rdBqWhcl1w+3aAa5nkFBB7RdaW9hWOwMk4xMbxuZUxV7zAbHaNtVDWJB1tDsvn9Jg6vnwk0+6J6PBo0jvD5qNBYE6j2v28Ux7AyGerhhFpnnTYHxllWJ0qUnQsRz4HpBKniCCzjieEcxHqdRz4HxPyg+fr5XS3dzP3nwDwG7d90eYpa/oIWw7DXjfmyt09iPQex4zVMeQ5+9iT8fWKH1zCw8OmNK9ZzGXVHpVvxGlovHl/+L47yGjOft3KSReZEc/0cRLDO9x05jpu+iWKXxaBBLSe3SveyIo+rcvQtQABWPlVH5b3GJD/cMClb5Zebc/WVHFWnQot+6XwamkRCjOYopjgIMc89jt0c6ELDlFUdLRyEGNEotjSO7HnLeonuOnckDoL9dW6YlAwDa6xxEKI5B37JUwpuQMijh/rhzDl4IPZxEFy/zrM374TzC2aYsCziIa/R3RivdRmAkz+M1s8hMd8HckwwKfnR3UfhPW+1J6zKEFgCza1iosxqXTTXufksqBkkY7LOw/KasDgIMUhztLgYFKG1k5nL88P10rS2ucmaH07rW8zzux33fLg5+hYrrx79+xJoaKy0qM9hRDgIljN63J4D8zHNsuGjToPwcQqcPYeR4yCENwfOwUGIbJ/Yw0lQDhPLLDhqDvxTpBTfNyPnnTFHcY3XUEG4sGC6Da+zZB9ZZ8Uou5E1zJDZzqZM3i+Fn0fCi/J2GYAT34+2qXOjPRSX+X0YXmOYWp3NK6L/fofgIJiLNYlu9JJyNg1tLILcY8fl2Jty/HUOHL0cfl1bs8rRt+iBL5uGsf1+RPnfcXIOTEZ2wwv/ktdxVObASMM0pTdYYz2Ev06dgoNAMRwRloVdnARrHAR18nIELyHSnygIjzULgmqOwgOJa+tcLAjzZ0RhDtyf1xgWBHfj927EaxyCg6BZEJI7LQffOj88bKay+S8WTdcB+dum/HKTM9/ILXZVfrhyQijd2IInYJ0x78rrZiOZidUo3d1xNHLhHBhCQ2V72EF+cCWNI8ZZUKtCi7C01KM3m1q13oa3Th2Ng+CfOh0ooNS5lD/PzBqPLA3a4r8lvwhgmqHQWEWBOA9rwi9ZKoS8oAXhod4vTU1QX4wKlkWCNBkEfE3AvZ49k/TCW3u3CT6BArMJj8ZEYWUq9vUtayKco4C0mfD0+mVdiYn6HNp+P5u4GKbb2G+t8T44ev9kKZGjzQdIlDk7rq5bjitBS7XMLtNpNjwa0W1DOHj+TFOmKi6t+isMQoqZxj6JkiKE8MzBL5C1cQf8u/DHaM+BxQaiMi6APF0GiovBTAOOJ2ebHhJbc3HpL7i5ZzMSpsuIDDUaSX0e7hPfpCmQpV4rccXk6dQP17esxp0D22Wf+CVJipztegpMdNaG7ZEgfSahJUsFXPrfH3h6Q5sj4umQzszu0AYTjIcXzuDK2iWCEGxXXphwEiLlNV5AgrSZ8PjaJQNLwkwD/vu1bp/i+NTP5XrGN5rJ2wkIyJY4R169b14IefZEUpkfnDkmiL0kwu19W6M0Bw7BQVAuBqWdhwnDc0J+uL2wD2NbRZL/7docfMtmNybYKi/XfKqx/NvlNIzBHFl6axEJljkIP/87+jgGkdEwBtfDzdF3vzmw3Qv211lYGjkaByFZnsIo9MlYHJs01Ij9u3N0HyrOWIGdfVoKpLq3n78GJEbMfW9vhPAnSe7trRVQ00tXixnSxGaN038016lYEF48wwulIETzeX6XYFIF+n4paH+si1Cg90j8u3iuAPiwv95+AfINKgwqMJLgQayNkLZSbaQsVh4nvhshIEhMGWRj8KSXl7fc4+WfAK8v3o+19QoaReSiOoe2vCx7884i+CLjNRVnrZYidlRcmPp95+AOAUwSOocQ/IhD85Z5DAkNkRoxrEfDVv775djZq6lg3eR+rx8Oft5Tg67XC+CRBj4BAQgRQQkUG/UjTkwejseX/0WmOi0Ec0bKSPgHSDq5WgP8nYi1ocEhYTBd7PEauhgkBkHnp37JkqPKgh0Cs88081Jf/4ojY/tJAcGyU5fgyLhPcPHv3wUTp/S4XwR9t/ryY3h28wrWNysn3ywydArSV6uH1bVyo+yUhTg/b7oobkly5ZfigEGNiuHFwwcoP3UZjn83Ark7MsV+kKzrvF0HCsrk4a/6Sne9/fyA4BBZF5prm/Pui9DQEKEXaUrrltZ/1tnwQ0hIqOwP/+SpUG7aYmxuU1XfF97yPjUHpFXVBduxrmFxeWeNVadESVlVI7d8m7WAqLwQ04LlA4oOn4btXeoibWAdmdezv0yRukJE3WQfNKRJS4g1O8T+OgQHwexisGjSGkNSebGyKWKRgx/Z82aNTDaHKejEwCnQ897j4nW9w06lUWQ0jO11t5uDiHKTX1LucZTnwJTmKEV7DIVH23fGOTmCfeBoHATmtbM64Z5+7eT7IgyDX6DCz2tANNXsLTohS4M2IgB2f9wGebv0x+mfvhEGWmz4NGxsUR65On4kuPwXl8w1WT5izkuIyaIUhJjyIlYkJPPf3bulQJ/naNFZYIGpIJSeMF9qyDy/dQNb360tOf6lxv8q+s35ed9rp7Zi5XBlzRKU/OpnbGxVEckKlBDIddZdIF4BixexguzjK5ekuFts8D5oQZAYhEjWQOAfO3F4dF/BHmBRJBZ5Slelrgin0z9PQKY3miFZviJSY4Y4MckLlcD94wcFobHCrNV4cuWiwCSzuBPRaIl4GFSviCh9Vf7cidCQUNw9vBv7BnVCjZXHEPz8KTa3roKSY+dgG9ESR/FU08MAACAASURBVPyAlCXKS3bJ1o41UaDfV0hZpKygMm7tXEeUiYjkBa/l7TIQJyRIUeP3VHjL//A3tvdoJJkcASnTiuJJxaHYZz/AN3FirG9aRoDvSn89F1s7vSn1evj82jr55ds1V50W36+mIPyFAyN64tGlc7LbCFK1rUs9JM6WG4my5MDDc6eQ7e0u2P9pZ+Ek6avXl7oXu3q3Qp5OHyNr446y/lmzh8pUnq4DkTBdJjy7fRN3juxGusA3cel/83Bs0nBkbfQOqPBwzxwY8YFA9+do2xO3dgThyPjBqPDjStnjV9cuE3ydgHQZpfrx/qFdpPZG8S9/QsjTxzgytj/uHduPdFXfFGA+3kuZXHLMbPy39Bepc+EFb5ydP01qGhHhlzgVO7o1kDmyldmnpJqju+IgCN8w5ZHGcRwEC+u2g9Og+5AtUd66Nmc7Rj1v0dD2XvZ1ZczUj3gRjtE4Eaq7HJx7HNP3x3WsiYjmODwchCjk4DsaB4EKQjlC6bLyKULx75JfBJaXhXuOTxkhysPW9jWRNG9BFBk6Gf8tnivVAF88eYi87/WTGi7FRv4gKKL8mwpdlKUVw3VOU7ooCA8fxhjLggpCyTFzcOfIHgEyS5K7IPYOaC/gPo8v/Yubezah2PDvcfaXSSjQZ5TULGCRJcKnn5k7CdmadBDFgQoQj2UsTLe+aWk5ZbOuTFDDYqi25CCCWNk2lvtIFIT5MyLO8feC9J20prBkNcZdfd6Gb6JkUmNhW6e6qDBrFXZ/9LaAJt09tFsAlV5felAKMJWftgw7P2gidXBKjv4Zm1pXFlM9hXqGGg1x4c+fcGvPJpQa/5vAOud5t6+AwT29cVWvOTMAhft/jS2daiNrow4IfvwA+T4YLoX7UhQpg8eXL4iQC8MLbXgNlTaWkVbuTtKWZa0L9x8Hn4RJBKF2d5+WSJIzv6y9SysWIFvjDtg3pDNKiQWhDqr+sQP/LZmLeycOCepj/g+GIX3VulhdKy/KTFkoQpd1gDh/PPlvallRivgdnzhcgPVKj/9Nq+vj74/gJ0+ws2cTcaeU+HIWtnV+E0ly5UO+D4ZJzYyc7T/Czu4NUWzE97i5e5O4I8p/vwy7erdEmcl/SbVLuprKTVsitOBe2ti6EspNWybjvHvsAMpPW4o9/dqKlYPr7v6pw6gwY6UgUhJIq9zUpQiqXxjpA98Umj44c1RqalCh2diyEjLXfVvWIGsi5WrXC/uGdkXW+m3ENfH09o0w+8whOAhhLQj61MaqRnv0arzrhyjDEqVMkuY0ErOZKu5et1O/W5l+9AAvzUrjehpTTbZo9ebta2sA1H6PuzS27Z+KvNc4UJgxunAdR//7FsQ1c5S+mpGI5sCS5kigJLMLwjKf0ZlDMlH6RcmUzd9nQaL/Fs8WoUSBwUZhs61LXRQe/K2YOO8c3Clm1cS58mvVAg1rY+zWObMYJM2RCkIM91GyfMXxWrch2DuwvaCpsjw7qc7aB0U/+04ECNuBoe+j+BczECR1XVjG2B9pylZF4SGTxJWwvmkpQSgMnLdFEFY1q0+IMO5qiw8gqG4+mxz56O+jbM0744K4GMKfQ+8EiZCiYEnc2rNRTpeZ32yOzA3aYme3hqgwcyVOzfoaOdt8gB3d6qPI0O/ETH3v5EEE/rYFm1pWQtnvl4qCwNiKPO/1w4FhXZGpbkv4BCQUYfj87i3t415egjabtmJNKwXh30VzkDBjFpxmDQgvH3h5eyFDrSbI9/5g+CZJKiiSjB2wuwZMQd20IDBWQM1rQMo0SJQ1J+4c2Cl/owKRJEc+qVeRt8en2PVhC1Sas14gnDPUaCAVgAMX7MSmlhWkdgQtJPs/64Yafx/F6lp5xILA4ldUWFhlV4aEUATO3yF1MVirJ3uLztg/pBOyv90FWRu3x5Z21ZCmQk2BsWYtCTYK7uOThiNdlTfF5VF44DeChEm3DksR7P+sB/J27o9dfVqKpaLakgPY1KYqyn2/FJtbVxZETYOm8BKIfipuG1tWhG/CRHh9+RGjIqevfyKsqZMPacq/jjQVa4pb7MVjohiHyA7P2aq7uBjO/DJFrFYZazQQa9fmdlXEcudlw+s0C0IsazG8HBwEO/nhOuCD5cRhgquMYZ17tSjETqGfYpzzfu1LcT0v1py6qkSKxR7gbBo55/0Gz3FQ7nC4NHLK+y2CPbr5247GQUiWpxBe6z5E3AncLGqfVJy1FkcnDELhQd9iS7uqckqkwN3aqY6U+iWHItNjIR9CpJ+ZO9FhmCqOwEFImq8oXus6ELv6tLLKLy81/nfx5d45vFsqwh4a3VtKu9MvziqJlX7dgMNf9RMXA2GQM9drhT0ftxaz9kbWkvH2RuCC7WKar7b0INY1KCKKRGx4TVgchLA5/j4JEqPq4n3Y1aup9IulozPXbYFdH72NjLWaIH+vz3By5lj8t+hnXUH4DvdOHgaL2NEFwlL1e/q3ExM+YxAODHsfmeq+DdbJSV2qitS0+W/ZLyg76S+c/ulrcSudnDkOj/87g7JTFuHgiJ4oOW6OlJXO0aaHoD1SwdjcOhBpKtVCugo1cPDL3pGsAS9oWQxfGuuMRapKjPoR296tjeePHsgJOVHmHBJMmK/7UOzo1VSg7qvO34ZHly5gW6c3UeXPHVLoqsY/p8S8v6bOa6i95gxW1cqLclMW4sBnH+DR5fP6yZrxJv4i4A+M6IFURcsie4su2DvkPblOi8n9k4fx35I5KDtpITa2DkTS3PlRqP/XUlWYJQDoAmABQlarFAXh5yDs+KCJKGYb3q6ARKxO/NVsbHvvDZSbvlxKbZf6+nf8u2iW1CTifSxdUODjr6Q6Z5Z6bZCmbDVxNXC/5e8xDL7JUuD6ppVSVVOVIFBKVI5W3URBeHHvlhTjOjV9tBQ7ZJ+vb19nxCEoHIV4jYOgTj9xLS/W2seoTZ2WzW7tVtBUBsv/4/J1o4ZgHMGasE9j+zn6pgxBN5wDc++jl//taByEpLnyI2/XQdj7CWMQNCsXV3D56f/D7n5tka5ybfGb8vRMZv34yr/I3f4jiSo/MWWEnJy2vVcbT67p0fy6Qh6bfeAIHIRkeYsgT+dPsPeTd4xjObvGOjI0Fz+/fxe39m7G/ROHcFk3G/slToYDI3tKfAUVolPTx6DS3HUiKBjtXv6HZXLCPvTFR7i2cQVKjJmDZPmLYp1UQIwMSyL86/ZxEFRMiuI1QNK8RaT+g1+yFHh04bT4yVlQjy4Huj3W1i0oJn4Kw/Pzv8f900fBonZb2tdAprda4rUuA7Hjg0ZSZ4ZBiplqN4NPggT4b+lvUsKaRZ5u7AjC3iGdkapEBZQcPQubWldC0c++F+tD7o59kb1VN6kqubNnY+Tu0FcyRXhSZnlpBrSaXUth14Aeg2CDg5CuUm2pnuvl4ydujj39OyB5/iLI22UQdvVtJfOX6Y2myNGyG3a8Xx+V523B+kbFkatDH/gnTYGjk4ejxorjCKpbAKW/mSe1Ip5c/deI6cje7F0w8Pbe4d1IXqi01NRhqWuucwYOVvlzF3Z92BzJChRHgZ4jJHOHilhA+kxIX6kOjk4YjIL9xuDK6r8k/qP8zH+wmVaHslVRfOR0vHj6CLv7tJLYlTKTFooSyZieCj/8jYC0GfDf8t9waekvYiE4+9s0VP/7KNY3Lqm75DR5UeOfkzg4spcUDDw2aZjhNuDYczTvLO88P+8HUdaSvlYYt/Zsxt6BHU1ZORaeEv9wEISpEIshtjgFrn9emZcdkf8dlRx6YRuklckcGeP8cP0l0cOCcD2N7fVP0J0dQQP9HTGmYQyeNxL2TCHIUZ2DBBmzInm+ori67m9mShpEiOrzjtlnejido9ahDQ0lzfH5U+fgIMRBXhMlHARd2tquU548GSxHhWjf0C6GNdPlvCSyfaBv1te6DsBJFndyN37vRrzGITgIoz/+EAM7tTM7nS0ksDgxw14326iVimh2hUb7ug2Of5jnHXTd+lBvGpf+fqddt3LsR43GhtnB2HXmFF3Lv23nSSmRr9wcxJLG5lyhGNPQKo06BnMUtXXukzAR/JImlxO7VY6TgCoojc/EzYw14uzrjpsDb39/OSyEPn9uM0bX0NiEMW2fxuGukZjRmFHqtFBooAvRm0MGjKYoXAo3tq6V2AhTEFGc5DVJcxcQy0asaezgObDQLbI5cNw6t6KBactafAb6H6PJzw+cPI17qbPErhbDZ599hj59+piKoyr8b5NhSNDVtEJLBv69YUOyjMiyrsNmd8vbDJo7/7qea2AlWSWlTOEY6HG22g1afxTwrQVkRI3Nxdf1fHLFIzTameZAaO98GlqfzXVKRTqHbkJjPWbEYn0wzXGYda7GrsqDK/798ubA18cXAQkS4sEDLZjKah27yzq3mgPdIWda597EIwgNlfxy27XoSl4SvX2gr6MYzEHKlClx+/Yd1/MikywMw2sME53ZThdVXhD+PkmTNg1u3rih60Ex30caGqZZZpn4eQzmwOXywIm85tChwwgJDUazps00KReTao7DPxuOPr37apH1jLDn8tT9j0busZ6C6KzryoNvIKMpAagOU3p1wbh6XXMvaMd9Z9FI8yg4+P0qo0L/qY1AZ3BuMgea3qrD/TqDRmY8EIe+Xy/Iohcps+B9RG0O/Px8kSAgAR7cfyCLL7rPG3gi+uKN6fNa4LQJM8WBNPL18ZH4bQHjcfQcx8F1niJFCty5o2dIhNs/pQw6mBc4aQ6t5IkpuyVNmjS4foOVSHXcm1iuQz2Fyan7wN14zZEjhxAcHIpmzZrGXEH4pN8nOHzkMH795RdBZ3r+9Dnee+89zJ4zR8891hiAqqF+8d//kCFTJvh4+9i9zlQLwycqOAfWz+/dvQdHjh5FmzZtLc/zGSt4EJ3pmBRLe9fv37+HAf0H4LvvvjOev379Oqb98AOGDB6iIXrpiq96/sOPemPbtq1Yv34DEiQIsJO7rP6koWep54lIdvHiRWTNkkX/k1KmNAGlxQNoH7OlwcX/LiKLPGf/ui2N7NGwS5euGDlyJNKlT2e8v02r1kidJjU+/XQI0qVLb/X+zVs348b1G0iXLh0uXbqEpk2bGtd/nvUz8ufPj5OnTiF3rlxYvXo1unfvDn//ANy5exvZsmS1jDGSObBHY03RiNocxvx5RTVNoY0KDc3rOLJ16pLr6twfAxr7+fkhIEEC3L//wO46d9kcqL47YQ58vX1lzQYHE6XRQXMs/EkJJVes06jvA1EQbt8JlxcKD4uE17jFPgj1Ai0IN65f149VUadRWKwJF86hfnh2CxrDC4cOHRLlulmzWFgQ+vTpi99//w1FixbF/PkL8OzZE1SsWAm7d+1WZ2KN1cspxQvFihXFzp07EeAfYPd62Bx/XVToz2/YsA47d+3Cx30+tnnewiXNrMCUEGmIHXX9zu1baN68BVavXmWY3CnEhw4dhhkzZ5rSDi3Om8KFi2Dzli1IliyZ3euWU7TCM9P69eOPPyF16lRo2LChpWaBabPqRhcdQc46/7tZ82ZYsGCBQcPIaGTv+oEDBzB+/HjMmvWzWBL+/vt/2LdvHzp06IC0adPC19fX6v0PHz1C8ItgbNmyBefOnUPXrl2N63fu3EJAQAJRrAoVKoSSJUsiderUGDduHCpVqoTAwMqmugxmx1f058iS+mntQIvqHEf6vFIA9SJDap3GhMbmde7U5w2TqMp/sZwKza6jiGhkpSAYOAhOonE471d7RTfwWRRUfa/Hloa+vt4IoeUgWJtkQ8F2wPstFLew+4h4TaTr0AFzkCJFSt2CYGef2eE1qr+a4mCxw7psHdvFdLHm9/bWAPdomjRpceOGUhDizhxEuAb0isNiYdfhjO3j2kROA1fM0eHDhx2hIPTBmjVrkDFjRrRv3x61atVCxYoVsXv3LmzatBn9+vVD4sSJUbNmTdSuXRutW7dGocKF5HT6v//9D8uWLsXSZcswZ85sNG3aDNOmTcPHH3+MW7duyX8//vgjzl+4gDFffYWbN29iwIAB+Pff/1CjRnV8+umnWDB/PhIkSigL/OChg+jRo4cIvFu3b+Gff1ZhyODBOHXqFO7cuYNs2bLhx59+xMRvJ2LRokV4/vw5EiRIgFWrVxs4BxcvXsKwocMw+bspqBIYiIAAfzx69BijvvgC8+bPF4HZoH59HDx0CLdv35Z3ckwTJkxAokSJ4OPjg8WLF6NDx454+OCBWA3mzJmDD3v1wuMnTzDzx5l47933cPfuXYwYMQKzZ8/G/PnzcOrUaRG4Y8eORevWrfDw4SPcv3cfdOF8+OGHqFq1Klq83QJHjxxFly5dMO3771GieHEEBQVh3bog8bP+9ttvqF+vHjJlyiSwpwsWzNfYjrYeRYnbtWsXAgIC8Prrr2PevN/R68OPMH7cOFGIeO3GjRtiaQgOCcGVy5eRNl06fDZ8uND0/v37WDB/Aeb8MgfFihXH3j17REFYvnwZ3nuvM7p374akSZPi3Xffxa3bt9GtWzcs/PNPPH70CG3atXMylkTUcRJslThDLCqsfmW2N9m+TEUK9XgaFT+olDn9d80mqpntnfG8kkxWkf+mskP6hBshPjqKmC1Ogq+fn7gY7j9gKWRlG4k6DSN7f/jXpUymsn04h0b6HPj4+mgKguDhW/aBZnWK4RxpoVTG/JoBqqKLRRFzGmqDsX0+ZcoUEoNgH7PFoi7qJXddMgdO2QdETUyTRhQER9PQKXNoE0Uoy99gOjFch/qhO8brOArPO0hB6IugoLX4c+FC1K5VC5s3b0ZgYCC2b9+GMmXKYsf2HfDx9UWBAvlx+PARlCxZQiwIn3zSHx9/3BddunbFvxcuYMeOHWjUqBFGjRqFefPm4auvvhLhSgXjnXfewdq1a/H5559j27ZtojRcu3oN8+bPQ7JkyXUTaSj2HzyIJIkTI0eOHHLi7dWrF2bOnIkmTZqgcuXKoqDw3W+//Tb++ecf/Pfff+IOEQuCLkRpTqcFYcqUKShTpjT27tuL58+eoUGDhvJM4cKFxfRSJbAKfvzpJ2TPng1r1qxG5cqBomzUqFEDf/31F+rXr48p332H1KlSgRuX1hWeshs1aoiSJUuJ8uTv7ycWBQrYEydO4ptvvkGTJo2xatUafPXVaDnh+/n6YdjwYfjzzz8RFLQOhw8fQo8PemDSpEkoXao0Vv3zDwoWKoQGDRqgc+fOQrcMGTJI4CjpmzlzFmMx9u3bF23btkWxYsXw+uvVsG7dOjRs2EgUEz7btUsXVK9RAw8ePJBvX750CZmzZMGGDRvwxRdf4Ndff8Hdu/dw795dlChREgcPHkKhQgXFusG5+fnnn4XOOXPlRI/uPbBo0WJRWP5c+KcoWorGmszSSoOrxG+1aeRPLrseanzLIs4F4s7g+4YjwiwU4sB1hR5qrn8SHRpy7YmL4Z4Wg6AiF5w/RzoL1pUE/WBrkbgq7dQBNKayznHRTGrS2HShEv05Vn3VhJJaO5pl1LU0NCmjpn2UUsUg6LzMso/YV7MbVk9v1sdgbEOLNI8xjZTgUzRSsjHW+0hnDJLCrlsQ6A52Ha+ILa/S5kBr6ugQt3mNw1wMVBA2bFiPVatW49tvv8Xly5exefMmlCpVGu3atdNIEhqC/v0HoHjx4qIg8KRK4U2hmztPHtSuXUuKfCRMmEgEUMeOHYRP86T7ySef4N9//xWhv27deowa9QW8vbww4dtvkS9ffj2+JBSL/lqMyVMmo3z58jh9+jT69++Pn376Cb379EaO7Nnx1lv1MHXqVPTs2ROLFy3C3fv30bRJE+m3yv++KArCUHw3ZQrKlS+PvXv3SSR09eqvY11QEAoVLoyDBw/KiX7R4sVIlTIVBg8ehAP7D6BS5UpYunQplixZgtu3buHbiROxfft2jBr1Jc5fOIe0qdOIQK5Xv55YThhAVb9efSxbthzHTxzDtxO+FQWDSkqvnj2N4DH6gP748w8R6IcOHsIHH/TEtxO+Qdly5YR+tGDkfS0vypcrj8aNG+v0DhXF6LXXXtNWtlconjx+Itdr1qghVp6KlSqK4kMFIWHChKIUsf+MN6C14fLlS6JgXL16De+0b4ctmzdjzZq18PfzR4mSJYQOtCBQQRj5+eeY/fPPCKxcGZUqB6JTp/fkPfMXzMdPP87S3Uw65zIXMRWbvrZtjBx8F15XAXqKRoaxUuSHJkS0bBCNhi/3unJb6UKJjhxDoOo9U6aOSGjo5+ePgAQBeHD/vhQhio9zwCwGTh4jsR03h/oc6GtC8rJiOAcWuw0NGrGfAyoIYkGwswY0vABlNDCvY/3fcWqdR7LPCFRlxCCoM79jaOjMfaAwG+IGL4mcl4kFITiWMQh9+/TF2qC1WL9+vSgBPJ2fOXMWO3fsRKXAypj100/InTu3CNSNGzegePESYgVIlDChCGAKkbJly4oZffny5XKqadWypQjQBX/8gf3796N69epiTejcuRPWrduAXbt3omqVamCK5ZIli+HtrWnEPLW2bNUKRYsUwZtvvolJkyZizpy5cprOlj0b6r1VDwsXLpS+UIifPHVS3AmrVq3STwBeuCQxCENFWFLR2Lt3r64gVEfQunUoXKgQDh06iMBAvmMxmFrEUzNdFo8fP0a9evUkaI+WCQpOCly6OHiqp9+3bZs2aNCwARYvWSoBQ+UrVMSKFf/D3LlzwQlhsN+Izz4Td8bX48dLUCOtB3RNUDmgi2TSxEl44403MHr0aFEQaBXIkye3KCI08Xfv0QNNGjcW90Xy5MmUPVcYRLly5aSf27ZvR+KECdGgoaYgkP6TJ0+WWIRWrVqhT98+uHTxkgRH8jr7QPcOFTb2w1ZB+PzzkZgzd65G+zp1sXrNKgwYMFD6SKVHt2PrEeu6iVRVTbTK2TaZuR18XePB6v26Hq+fVC1uBlXrQvPjKnOy4XNWvkNzlLhhMlfZADaZBA6+riSSkZUi41LcX1NmDDNzODT09/VDQMIAsSBocRdKS4va85G93/a6pAfrB201B5rb20JjW1ePVUZMDGjo7eMLhIYIk7O4NaI/R8pfbF4DJFp0aeBsGjNIkW5Pbaw261y3ehhzYFQstZ6DuLjOlY/UpEMhbZq0uH7jRpybA/tzbGUzsHgX4vgcSJpjbIMUBw4YCD9/P/T7uJ+csO7cvYcpkydj0KDB4vf/5pvx4m9///33xc2wZMlSUSboa6e1oVXrVkiXNi1GjBiJIUOGiDuCCsRvv/6KHDlyitXg7NkzEp1bObCSmOLPnz8vMQ0UqkWKFBGrBCeGwXR8Z8YMGVGocEGkTpMWF86fl7gICnIK/Q969MC58xcwYcJ45MyZGyEhwfjoo94ao/Lywp3bt7Fk6TK0atUSX375pcQ5kHdyHDTRDx8+HMOGDZOAPApzxh3QPTJ7zmwULFBQCNqiRQscP3ZMhDzdHe+/3w3Pnj/D6NFfolvX9/G/FSvRo0c3ee/GjZskBoGC98mTJ2jTurUoIlQ4ipcojnfavYOtW7eKlWPwoEGYOvU70MpBoZsnTx4cOXIU5cuXE436+fMX+OGHH0TRaFC/Ad6oU8dQDhQOwoaNG3Dy5ElRYPh9Cn/GPDBmYMqkyUicJBG6dn1f5o7/pUiZEocPHZI5qVC+Apo0bSIumWzZsovSljFjJok3adSwEa5euyoxJCNGjkRIcDDeeustsfhQgVPBO5FiSUSWexyL6wo90sCy0NM+FZGMQLIIcovt43mYLSD28D4cdV1ZJy0mSknfM+FwaCfaSLAkvLzg56vjINy/Z1ItdKUoCs9HiAdi93lTIJm6bg+vQ7FPB8yBpiDoWQzq8BwuJktEc2Qywqv4P/mppcea5+BlrnMrHATzHMg6161gRraXM9dpeLg30d8HSrPTBK++PqFnMdxgBULzHFh2suLn0V+nik5R20fhvd8+r3GnOYCWxRAa4m44CNpJhP/TIlwtlQyEUeonQonKfYn53brfI8K8Wks6p7ENdBwEfYyuyC2OYn64EeMsWBc2c2CDg0CljDESKXX3S0xz5KNCw6jPsXZSssVpMOcm2x3jy54De+vcNAcxXedUEBgz4wocBLXONResPgcCh67FCmqnXZ3RC493TI5+7HEQ3IvXRISDYD0HZhrHPV6jWWzUGrDPa5jFQAtC3OT3bsprbLKjGO8WaxwEBtbR1G8xaymNTgUK69qrLSNQSqYwAxUAYmIUdq6LKmBojJb3G748fRcI6zHMmTRhWvxU2tRpkXDaIcCCo2UOIXHJdRmjzihVBL0EHWm/GIedaNDIitnGgMbhPS/Ba0LTsHOgzMTaNHoJOt/hIwxILQUC8rxUGiuRpAK39EOGsQZsaGQO7HKHObCcdzRTvZoDw+kQzjqnlYGZLsxWcfo+UOvcPAc6hr49GltcQbHkJYa9PPq8KFxeYxyOtdNsWF5jCVB3Na9hUCZTk43iaWZeZzsHOj92N14jJ/NQwNfPFy+eB4edg5fJz+MZr9mzd6/Ew8UKB4EnRWYeeJqHAh4KuBcFLIZz9+q3p7ceCnjWrvPXwO7du3H27Nn4oCB4lovzl4vnC/GNAlrKmCn6L54NUAI3xRgXf8doPWWvEh98lcb6cjZmPFIQIHgJTPcrUaKEQc16kkK4NAx1mYbJzAYCC5nbs2fPJHPB3Ly9vSUIkVH+tJY4uhF/gBgDhDSOTiNWAQMyBw8ebDzGvOA6deoIeBKRHtkIJR20LkjSLaPS/v77b9y7d0/SIYkZQQyKyBrvJfaDp3koYI8CJ06cwOBBg3H5ymUUL1ECX44aJdk28a1dvXpV+BBPXTlz5hRcE2KfuKrFd4XPio4WAA1XkTfG3yGQ4JgxY/D06VPUrVtX1og7KK3xRkHgWmnevBl6fdhLAIxUO3r0KAoUKCA+cKb28SdRHZkFQVAmlcLI+wVIJDQUFLIvXryQDU7sBTYWBmFE/vz58w20RLUZiefA6/ydnxktwQAAIABJREFU/hpBMVQ1yvWTCzMbqGiwPXz4UN5PBsm/VatWTZAWGTBGtEI23k+URyoBisGY38F/Hzt2TBALmeGgFhu/nytXLslQYMYG72NqJVMXuTjZiE6ZJEkS+Pv7y+/sN7Mn6HNNkDCBpEkFBwcLaiURFdk3vp8oimyKsfPdvJeBUcyKyJcvnzE++kKJq8BGpYvZEBybO2yKGHMBd3zQBUyWGTXE3KDSqRr3JJmPWiPOJJ2rhCYzergfmRVE3kEcFuKtMNU5PipDzpyz+PRu8k/KIWL5UPasWLECf/zxh4DKxfUWfxQEAM2bNZNTPlEcVeNGJd4BUwiZ6kiFgKmLtDLw1EucgEaNG2PTxo0CFa0ahTM3NQWnEthUAoiOuGLFSqxfvw48aU+cOFEUBmIrEHeBqIjEVCAOAgGiqDWyTgGxB8goCNM87utxyPdaPoGZpmbZu3dvUV4I2UyFgH+n0K1cqRK8fXwkjZOWETIbokkSqXL69OmilDDNkyf3ChUqSD+pIHD8FO4UylR2Bg4ciLlz5+DJk6diXUifPj2OHz8uqZiCD5E1G6rXqC59pkXlwoULokTQysJxUSniImfKCxUa0pR4Cewj+8wA1QEDBwreBYGZmH5JiwvvoXLDvlMJIr3IPElDT4sjFHCBgtC8eXNhiLaNIGkUqPGl0QrIPZU3b15jSAQSI1Aba6C4pLlgPl0yjnj0Ea4J8lUN1VNrTJMn1gwL3sXlFm8UBBKZkZbhKQidOnUSEzuF96+//orhw4ahZKlScmonEQhiZG72FAQKap6GKDBpSuTJmIKd2A0UvARX4knp66+/ltM56zEoBYFAUGSSXBTEKSD6IJUWMg4qCKzjQPhjMhcFqkRB/eLFc+TPX0CUhg8++EBcB1QQ+A6CFikLguo7FQQCKDEfetmyZVKXgm4RKgVUdrJmzWpYRZInT45r166JhYWnHQpwCnZaAqgg1HnjDcEzoHKQPXt20EzMcRFhceXKlaK4XLlyRSwUfGbWrFlCA0VjQjXTwsB5YZ+IZ0EQKY+CEIdYggvcuAQR45q1bcQXYS0SZzdXWRBoteO+MTfyCFoLuV9c0Vwwna4YRrz6RsGCBQ3rqhoYrU1UEmiVjstNFIRzZ2OHgxAXshjIBHhSCU9BYPEnblICNM2c+SNGjhwhp24KQdYx4PXIFAROJgU138Py1oSFpgbIv1MB4GmesMZEHKSlgsBCrItQqlQplC5dWk7jPGHzJ0/edHFwkVBB4LNELKSwpjmKApenfI6LfydaolIQWBeBp6/wFAQqKzRfEVKa76VrIHGixHj85LFYTii42VKlSiXWAvafdCGMM60IBfIXkEJXfI8qJkU46xMnjstzVapUEQWFCJhUmNiUgkCLCrVl0oCuD24E0pY0IMAUrSmsGeFpcYMCrhCeFJysnWLbqDBzDcWXRj7I2i+2jRletOK5pr06KoK7jJTWYx68zI3WBPJeuqPjctMsCOfQrJm2T72KFSsWSsFFZh6VRjN0XFIQeAJXvnCeWnmip4vBrCD8+ONMQW3kOHkip/A7cGC/nLJVs2dBMCsIR44cEf8+BTqDTn7//Xf88ssvQjcyRJrXKaQZKEihyOqLFPwzZswQtEeeqojKSGFvT0HgSZ0C/tGjR2IJoEJAJYTvpFUic6ZMGDR4sLg1KNRp9mejBYGCnQuS/i76vVhEiW4QxiDwJy0btFLQTcHqjbRkmBUEKj08+dNd0qxpMyxavEj+TSRMxi5QqWHpaI6LboeIFATSn0oDAzGpvNHc6rEgRGVnxZ97aKXi2mXcj2q0JNE1xtiY+NIYY0FXGg8HqhHhlZZLFe/j9LG6i9R0BCHcxJ2yadMmsaCSl6tGS6tgB8XxFq9cDDzdU/CpJgrA2rV4q149cJIo5HiipaCmVse6Dy1bthQXg4r+V89S+BMymFDKbDxpUVBTuDFwkT5+NpryaX5n46mZp3MKRQppBiNSCNONwdM6FQlWj6RQpbCmAsCTFZUNxkdQ+FLJaNOmjbgC6LrgO6hw0B1AywWZDd/PxpP89yz5XKKEKBxsvJ8KEV0ZVEZYo4GlnTkWll5m3/kN/o0mfxU/QcsGacPrHBP7RxcCn2NWB/tDawTdFHwnrRp01TC+gI3XCH3NuhncDHRZ0P1ASwmVECocVELo6jHHiMTx/RHvu+cqeULTO/cH1xddabQi0TUV3xr3H8dJdxytifQ/c/97muMp4Kq164iekx8SOp8xZqwDREXSHVr8URDcRJuk5kglgid+CnsqLvZOUblz58Lp02fcYQ1F2EduCppYaaWgSZnKmctOU25PPc8AYkuBVw8HIbYUc6fn3UlFcCe6WvrqBAXBUlBDq1NvPYmGz9NU2c2qzJrqWzSvy1cMJUHDQiWEsQ4MrL3Vkdf1oiGWOhBGiW/TP8x1Iix/5imbmiT98qxcaUC4GKQKxfHjTBvMq9VlsC0naKkFFvF1KeIjiM0Kx9p6lUaTxmGWuP689nZ9FHZofOL4CVy9chUlS5VEksSJ9Q5FPkccuyqlaKGRwqM2rTPL100Yt9G4Hhsaq5oBEa1zl8yBMQMOXef250Atp2jQOLI5cvYc6LDrjuA1DuclkfAqxQOiwmvI47RCXTGYo1jPQVhe42h+HxmviSm/9/AaVXhM7RCN4zpBQXg5mpKbGBBeDnE8X/VQ4FWmgIc5vMqz7xl7LCjgURBiQTzPox4KuD0FPFZat5/CV3UAHr3P+TMfb7IYSKouXbsgaZKkgkPANmjQIAMgyZaUe/bsAREQa9euHWMqN2zYCIsXLwrzPIMQx40bJ7gAbIxqZqaHvVQvex/fuXOnBB8yXoGBkQyUZMAgQVfsNb6bOAoMhGFjBgbTZ5iiyMDEqDQGGTIWgsGHBDdidkZEjQGHRAQj6JSneSgQGQWIjcEMHAJtMQaFKbp58uSJ7DG3u06Gyiwfxtow/51ZTXQluqq5Ut9jwKmCeX/29Ck6de4sgcquau6iINDNwoDxdUFBAnyXLn06DP10qASex/UWfywICEWb1m1EoC5dulQiRT/66CPJDmB6InNOKWAZ8U/I34EDBiJR4kRSZ4DpjYzmZ7Q9sxsYwc/7c+TIIciFnEhVn4FIiIxUpsBmpgDTJCnQmVqpah8wxoDCmdHMbLw+duxYAVgisNLGjRsFBZFpgmx3797V8mS9vFCtalXpB2ssMEuBmRlkrIz8JpNlv/h3c2Q0300FgemLxFtgpgR/MsWRSImMIN+4cRPy588n/WQqJDMmCF5DJs3UUKar0nfJ1EtmRBCAiYoG+0qESaZr8T3M3jhz5oyMn3RgNgQ3AGGfGbWt0i1J6ytXLuO11/IJ/Yi66GmvJgW4zohYSkWWygHTHjt27Ch/c2WdAmdTn5kLBBFTkOb8HnkCsUKoeLumuUZFIM9S6dFEnCU0O1OZifdgRpJ05phdM9LYj0AB5xEJl40Hxs+/+Bx//qHJh7jc4pGCALRp3VoEI1MLOTBaEKggUAFo3769QB8zxY+R9b379EGAv7+kPlIT5jXWMKDQo7aXMlUqDBo4UFL6mIbI0wCFvr+fH5o2aybYBTwF8b1EGqRiooQ2FQSmJhLYiI0ClQKUWAnlK1RArZo1JZOBGAbEFmCfiTZIbAH2lamDVBD4bzJXphNSIPN+MtRLly7jf//721hXVBCYY0thTkwEfpcWgKdPqNV3EuY09NNP8cP06fKuDRs2YvoP36Nlq1Zi6aDlgUoVwTuojFDQswYDFQWmgdJaQDpQseK4CKVMgBv2jQxw8ZLFaNigoVhMOHYCJA0bOhR169XDpIkTpeATUx897dWkACHNuTbMJyaCclFwEunTqc0I1HV+NUfyG3sWtfc6dcKM6dOdOkxXv5yHHx62yDNVI2pkmTJlhAe4ormLgtCqVUv89tvvViQhz6a1xVxY0BU0i+434o2CwIFTsJLhEDKYefc8rVBBIH4AtXouXqIbZs6cWaCVeYrmaZw52RT+NLMTD4AQsBR+xDKgtkeoVL6LWjJ/Uhgzh5uCl9H5d+7eEVAi1bhBqHBQeWDjqZ8ndII1UcumJvn0yRN8N3WqbCaCJbFuAlMeperd4MGiIPCUxfoNVFgonInVQGwBCmiFYMj3c7HRItG/f39Rdjg+Yizw3+wvC+JQsBPIhc+STmTWtBJQcLM+Ahk2FQSe/MnQ2R8qG7RMcLw0k5L50a1AbARaM6hUUEEgRgIxFdq0bYMPe30oQE7sC+nN+SB9PQpCdLema+53BZPlSZOWM3OjMCGmiLPBYlyBFKnGxf2q3IrmsZKP0BIYnxoRYu1VbyVfUkXdnD9eV6ze2I8id+7cRhE+9TZaY8njeeiLyy3eQC0zvad1mzYikBS0MRUACnsCB2XImBHlypYVMzlN5sdPHJd4BQpLmt35HwUlwYwoEIlRQOsCT8O2CgLBgihM6YLgyZ4CkILfrCDYuhjGjB2LXj17ivCn5YFATOcvnEeTxo1RqVJlURoobAnDTIAkQ0GYvwAzZs4waijQPEuQDVo1VKOCkDVLFmzfsUNAlKhwUPGhgkCfL8tIc5wcF60V7CvRErk4iWjHbxkKwqGDaNyosbgSNm/ZjDFfaSVKaUGhqYwKE5k6lQfSlX3mNb6fChHjJXgfXRV013gUhLi8/V3TN1VrxPZrK1euQO3azrUsuVJBIEqoveJTjCcikmp8ajzY0O1o21jGmAcE1zT3UBCqV68urmhzo0ubyKI82MXlFm8sCFwqdDFQIFWqVEn8/hSWdCfQT84TLYP+CNrDBUzhuWz5MsyZPUd+Z20B1j5gzYKvx38tpn9qfiymxIDGs2fPYP78BWI5UAoCJ56CkpPMDcOTNFt4MQh0bxQuXFj6QncCT1WEH6YZn6dzugDu3rkj/6bQZoAh4wh+/eVXVHu9mvQ5PAWB1gzWlmBMAZUgWk14P081HAddB4RcHjhwkIxFKQj169XDBJOCwPgFfoOKDOMuWKGOigCLS1EZioqCQOsNlQiiyPEnYy9iEwwalzeQp2+RU4D7hTFBCo+esS7cX1TI41NjzA4PFYa1wMsLjRs1EqXfdc01QpMHnA4dOoh7VTUePsh3XdbcJEqRAau0ZBOplo3yiPDz7qA0xisFYeeOHSIMVeATTfYUmHQn8MQdtC4IlSpWEs2Xp2ki+9GlQNcBCUGBT8HKn1QEaAblBiD0MO9j42anCZ5Mjj5/wgZTIeBJnQKUjQE8XBQqsJECk64DnqhpfqPbgEF7hILmc7RS0LTPE/3BQwdRvlx5gYzmhqOvj4FPjGPgdZ7maSHgglPt5MmT4kbgOOleoUWDi5FjZMAQgxI5VuLhs098NwOLGOPAb/P9dF+wL8x+YLGl+g0aICQ4WJ6jpYQCnm4SjoUWAyoR/J104ruoHDG4kvTn3+/dvYsnT5+KO4JKjgrIdBnz8HwozlGABce4D2jd4ppzRXOlBUGNh+5JKtJc8woW3RVjfRnfIO9jjBL5LK2vnmafAuTbdMlQNtBqSzewO7T4oyAogD13oHo87yMDNocOG4p8r2kZE3RfCLqbp8U9CrjmwBn3xu3pkdtTwE0MCG5NZ8fhIHzxhaB7Cq6vPnOEPg7Vf6d4cMR1JWjM0MrqlGA+Lci3oIGTWq4rKFBe0e5wyXWjH+F8n32hgqPoJz23wERLTwmhql9Xv5PWzqCx7Rzyd6GhQovWhb39OVBLIFQsMP4B/q6hsQ4xa2YaVnMc6RxY01hbPfbnwBHrOLJ9Eu46tzMHEa9zd9gHGky07Tq3mgMn8BLXzYELeU0U94EFdj5iXqOxHu30FVd5jbZO3GGd6/LGhp+/bF4jc6v4ij7Xit/v2r0H586dlSw7ET9uW+5ZFwBura55Ou+hgIcCHgrEigKvjkno1RlprBZErB6OPy4G+v7v3JEAEPrj2ZjWx9/5n70WW/8kgwFZxjm8RqRGpguqlErex7+5InKVQURXr16VjA3ViPHAGAj2J6pN9TeqtGJsArMmPM1DAVsKMIjv4YMHSJY8ucS7uKS5EAdBjedF8Avcv3dfYnPsVWp1ybhd9BHyBcYlcayuLt/tbgoCg9JpVXUHBEW1fOKNgsABMdWOAYcE5mEzIyna7hemnTBin3gFMW0MZiTSor3G1EOmN1EYnzxxEosWL5IsAwJjMIDJ2Y2blsoLgzMVbDIxEBi4aUZ6i6wfDKghPgSzEb755pvIbkdglUBs3LAx0vs8N8QNCriKyTLYl1kLAQkCxB7MVFhXQBBHVbF11GwwyJl7haBpj588xucjPxfskfjYCPZGUDZ//wDcvXtH0rebN2/uwqG6avXGbkhUCgi5zWw5yifigjCjzXx4i90XnPd0vMNBYIoRUxa5UJWCwOhaCkrWSGBkMaPyuZgTJkqIjh06StYDMROYhsWoY560CUjEHH9mKvBEzL/z1MPfiRHAjACiC1JBIPgSMxgUWBKzBJhlwLRJAhURRZEbiSmRvG/KlCmS4sh0TH6XGQecCDIzYhzwO2fPnpU+UCtnpgT/xhQipi4yVZLAScyEYOYA82mJesgMBNWoIBD2mOmJjKpm43i4WJl2xuscCzV/jo1WFtKIVgcuYkaas+979+3F5UuXhaEzu4FjJNw0T4PsP7Vh9p2ZCxwbsyGYQsmsC3P/eZIiYiPHwD5xPPzpafGfAozeJoAO8T3YaN1ipg33qXnNOoMSrlQQuBcJJ82UYjZ+m5gjzOIhOml8atznhLBXqascG9PIOa/MvnJNcw8FgXD3tocr8j5mgBBPJy63eGNBUDgITMcjOBLTBqm1UVBTyBIGdfTo0QJIxJoF3Mh0RVD48lRNzAGmBNIET2HIRc6cZkITr1m9Gjdu3hTLBN/Fd1Dgd+rUSfK7+S3m+iuz6aefDkXSpEmEMdg2CkqeMCgsecInIhkXC/EW1q4NwrVrV+X91DInT54sQvmtum8hW/Zsci+xzqmYkAlRABPRkCiJzKklYqNacFQAaK3gPVQImF5G5YnPM/2RShG/yXRMLlSmR3JsZNr8JrEZ+F7SYcjgIfhmwjcCFc3aFVQomPo5Z+5c7Ni+XZ4j3gLv53XSiXSZOGki5s+bLyiKTBMtW7YMZs36WeaHlhVmO3ha/KcABQnXlNnVR8ZDRZPoovGl9enbR/aKGVVVFTRSVs34MlYWnqN10Wwu56GBKdDkQy5pbpLGQCWYByjbxgMaD3ZxucUrBaFt69bo3qOHmPDpQiB4EBUGQgLzZEzccJ7uuYizZcsmp3e6CYiJTQWCgEjU9KlYUGjSCsFJ5ImaQlCglgMC8PjRI/Et8nkKW/5nLp7EkxLfbwbCePDggdzPb/OkTqWCwEVkHMQxoKCnAOfpit8nEiP7vXjxEqxZs1pO5mSmNMsS7Ilug14ffogWukmP1glCMhPemI0KAv9N4UwwJioVtCRwQ7MvPO0ruGYKa1o7qhDT4cABwVngt+kmoYLAPhI4iUyeNKR1g420I6QzfyoQEOZDU5FgRbvly5fr//2N2rVrCS2pfKmKdx4FIS6zBsf1jcoi15Rto6LMU6czmystCDwwzJw5M8xwqCDFt7XOGi5ETbRttFIy19/TLBTgQZD82LbRHRXXAeTij4IQCrRpY0FSpGbGHHxaCjgRVAJo/mLQHVPIeOJPnCQJ2rVtK0I7bbq0+P2330Wo8gRAYUrhSqWBmjFPP6oWg0JSLFqkCCoHBooLggJRpaZRQSFSHN9BRYKBexTo1CIJlsTrdHewIBKFPa0FtGowNoB/U/4qAioRxZDCn4oDNXbiutN1QqbLYlK79+yRSpRnz5xB5ixZxC1gKAily4iLgFYUKiXcuBwbFZpcuXPh9KnT0mcGTdIlQEZGIU6LCvtjVhCoQFFRoIJAawTHRdAlxicQU5+WCDYqCLyPyg9Ny7RMkDkSFIoKBuFoiYtABhPfmKZbMkUXWGmp7HJ/mButbVxnjMuJL40gaixiZm7cX9zHtn939zHzkGAu1KTGM+GbCfjwow9dMjw3MSAIsB4Rfc2NBzUeWsMLoHcJAaPwEcfhIIwaFYXPOfcWVayJvnGa8Gm6JxIhEQNVTAKFHk/rBw8cAOsjUIhT6+fJlrECdDtQiLGUM3349CHyfioONMlTADN+gKZ8FaRIS8WaNWuknoNqXBSMDWCA0pw5czF9+g8iSEuUKI69e/eZFIQv8Prr1cU/y6BGCvBxX3+NsWPGCGNZunQJVq1aLf2ggsDYAApvBn2R+dCNQUsFBS4VItU0C0JpnDhxUvr806yf0K5tO1EmqCAQyY4KEBUVBsvQZEh3i62CwHFTyBcvVgzz5s+XYjTMDmHsAs2nRMej8qMUBLppaEEgRDMZplIQSHd+k/3/e/lylC1XTqwUnvZyKeAC/UAGWL9Bfaz43wqpa8I9RjcT3V3xrdFVyb0kGCD+/mj3zjvxrpKjmjNCwlP5UwcmVQfGVXPqLgoCM9lIG8oXWrQYO0Ye6Q4F7OKPBSESHARODAU2Tf8qVoAn6shSTnj6pzBUqZPRWfy0CFy8dBE5sueIMK2LzIQuhIjgN1k8in5/CmBmXtCKQPM/rRoclz1tPrK+Mk1TQSVHdq+qYMn76aLg79FJZ2TGCOtPMGB00aLF+OeflfEOiz8yGr7q12U/XLwoQcIuS3N8CUSnEnTu3Dk5YLg+CM1VKp9GWPJVukjJf1yd0unakcZ+IfFgRd7p7MDc2PfU8oZ4oyA4kihx8V0HDx5A9eo1RFHJnTsPgoLsp1fGxb6zTyruga4SCgfGYDAmw9M8FHAqBV4CDoJTx+N5uUEBd1MQ3HHqHKcgfKG7GARpWYM4Fg2T//MCvDQsTPm3U67bob4WoKQhP8unDRRovW9x4jphjHUaKYI5i0ZOmgOZUw5B/59m+otLNA5/DehoypY5cBKNnLEPrDllaBxf59ZzgFAyBX0EOs2dQSOn8Bo7ksk9eA3nQKO7kF4fh9No5AR+7+E1LpSpocDuPbtw9tw5NGvq5lDLZmxxd9TUPH32UMBDAcdTwJVZDI7vveeNEVPAY0Nw9gpxnAXhJQcpmpcKsw7IGOgvj6yKYET30pdo9qvR30/zeETvVPdw4vhu+iB5f3R9rlH5lrMXh+f9Hgo4kgLck3Qxud4v78hRRP4uNc7IeEXkb/LcEZ8UBK59rg13Wv/xRkHgQlIIbUxrpFAuVqwotm7dFm7wDCPrmb7He4kFwGA/JfwZwMcgI3NOb/58+bAmaC0yZwq/ljfTK6dPny4BeNOmTUOvXr3k3fZyhm0XP4O4iPBI1C1mQTCzIibBhx624qFAXKMAQZGYhcPsGqYHr16zRtBAnd1cbUFgwB5Tqhl0zPER/yF79uzOHqbn/XGYAlyDzJSjLOC/mW5PAD53UBTijYJAv3fv3r3h5+cr+ftsRAVkKp1Kp1N5p0wzYXYC4ZIZbczGFEaiKKp8bU4kswa40WmJUJofrQpUIpjWx/Q+/punff6dkf0ECuHfmN/NdEnew2d5muB9BCRiJoIqbKIAhpjBwH8TwXD9+vXGM3wX0RAJxMR+s/FbKiuDuAOe5qFAjCngAist1zMhxM2N6bbEBeF+iS+NaWwEJeMBhY17lNgis2fPdkmBtvhCx6iOw9XKX1T7ZXsfAcFy584tYHVs5Ofk88SDiest3uAgcLFQWBJ8RRXBYPogT++0BjAlkIBEzEn97+JFLF+2TDT7lKlSYuyYsZKTarvguNEJ+sO8Zuat8nTQpk0bEf5EEGS6IbEHiBXw9MkTNGnaVKCHhw4bhh49eghYUoYM6XHp0mWpp806ELQqEJubNRx40iBQEhEHmTL45ptvipJDQCHmF1Np4XM1a9XC9WvXZBzEQKBywWepaHC8BHPyNA8FYkIBF+gHeLNOHazQhaa5j7SUMV03vjRikhBx1Jw6TUAhokUSt8TTHEsBd1EQKDNYnMncvv32WwGaI3BeXG7xx4KAUDH984RO3AI2nth5QmERFdYJoJmTi0phY9MlQVRACmMiKxKYiKZ91QgAQphMFm8KYHW2R48E4KdpkyYCOESQoK5du4r7gDDJ1BIJiEFzEmsT8ORAyGYyCVoH6H4gYBNjE2hR4Psp4Ak+RGWGtRdatGghYEVEHnz33XfFzaAsCrQyUCFhn1gwSik+Cvo4Li80T99eXQpw3auCYWYqUHDydBVfWocOHYxKsmpM5DdEPVVWBeeP1RUqn/NHEZ++QEs0eb25UTYRXZG4MHG5xR8FIRRo2LCBlHym+YYbknn23bt3F8FPYUthzMbTOq/z9ELhy0YoYsKhKkRANWkN6tfHd1OniqZHIc9KilQM+G5ufuIS8G9EUsyaNWu4CgJdGrQ88BvEACBoBgsY0RfFQEhqlKzyaFYQiO1OhERliiIiJN0kGTJmwJXLV0RBYG0Gj4IQl7eYp2+9+/QGIXhtGxFKaQlzanMhDgKtBCxWZtsYk8S97GmOpYC7qEJE06XF2Nz8fH1x+84dq8JejqWOY94WbxQEkoP1BFjBkL4eFiKiQsCqh4RNpiBldUYGSbGOORUEBiESHpmQyazZwP+oXJgbazdQ8JNQrNlAcz6DTOh2ePvtt+U79K8qBaFSxUqYMXNGGAsCLQe0LjB4kX7KsePGYUD//gKvTNMkXSFUFlgqmeYoWhNoPaCLgYoEFQwqL/wO76Ufy6MgOGYTvMpvcQWTZcwM3XDcd6oxYGvChAmRZhnFdm5caYbmqZA8hi5D1ei6pHUxsmyq2I7z1XzeFas39pRVB0u6t1WjXLKnTMb+a459gygI587GAxwEHfWDdRJYsZFMiTUS+vfvL8GKdCewPgMZBis28tROsz4zFwgDzDoBLIFs23g/hbGKa+B1Kg1UDGg54DMMZKTZn1GpNP3TB8nFwKBC9oOMgzUW+DcGMvH7vJ8Lh4Fa/J0ZDIx6Zl/YNxbxoHuEz1PxYWPMgSr+RCsIx8S+RAfy2LHLx/M2DwWiRgGuY6511u+4AISXAAAgAElEQVTgeue+cYXQdKWCQEpwr9PKRx7EcXJvRjfFOWoU9dxlID25ASnoYmBAPC3HPJRGBvEfV4YUfywI7lK5I67MvKcfHgp4KOChgFtTwD0sCO5MYqcoCAp21IKlak0iZ10PtVOwSZ0g+FODGFX4rlqf4tJ184nKWTRSM+GM97sDjc1rQOmUBpux4TfOoJF5Jzjm/QrSXIM3j/4caIN25T7QULgVFDdhue3tXPP+tNxvz8Jnfp+rr4edz5jMget5kTWv0ebA1fw6Nrwo+uvc9TS2y2sE3l9h01tWj2N4geP3ye7du3D27DlxdcvbixUrFsoI+uHDh0dJ8aHZkL57puu9zOYxILxM6nu+7bYU8BzC3HbqXvWOh69WvuqUcdz44xUOgit8mvQhxSdwl5gsJcZLMEbC09yfAh79wP3n8FUdgedQ6PyZd4qLwfndDvuF23duSxrhsaPH5CIzD5hlwDRBZjMQXZEgQytWrJBUQlo+GDjIrAbiIsybPw8N6jcAgxwJoMSsAXNj1gIBjurUqSNphzS50HJiTymZMWOGBD0SqbFSpUp2c8DN7y5evLhVhHdE9Ptz4UJ4e3lJ8BPHM2bMmGiR+4MPPhDAJqZ9shE9khkeDJ6MKJiKoB7btm2TjA+iOjLYjGlqzKiIrDGgkymcffv2RfsO7bFpo5Zu6mmvDgW4/wiMxLLfadKkwc8/z0ZgYOVXhwAuG6lH5XMZqV+BD8UbBYHaZJkypbFkyRKJ7GcaFYUfB0glgXgFRDesUqWKCHdmNBB7gAoCMxSoLFApYGYDfzenpBDYiCdm3svoU0Zk58iZE5s2btRAlAICBBSJKU4Utm/VrYuChQoJghqFKFMv2RemO1FpSJU6NRYvWoQuXbqIgCVaI1EeCZyhWpEiRQT9kbnVjIhu3749smXLhg4dOyBZ0mQC7kT8A6ZOHjp0SJAeCetKJWnHjh3ImSMHJk2ejPr160uKmWqEgybgErMtqBAwP5vgUATsYGolMzE6d+4saI3sO0GmmDa6fft26StxHMjskyVNitpvvCHKAhUi0qZnz54CIEUljBj0zP/lf59//jn++usvAZAi3fkOztHUadNQIH9+mQ/WvGAaJwF1SH/iWXha/KAA03eJOsqsG9W4TrhumWrs1OZCHASnjsPz8jAU8KhCzl8U8UZBIKmY0liiZElcvXJFBBURClmHgTgCf/75pwh9CkMCHVFo8hQsxWOKFhWBS/wB3m+rIOzcuVPQEs3Y2UydZJoiUxOpgCxcuBAtW7XEksVL8OWXXwpqIvNcKwdWRv9P+ovCQkWAiI4U2vwm0RuZM12wQEHs2LlDUiepjDRt2gTz5s0XrIXAwEBJlyJcJxWCgQMHSo0IKjoUusRtoDWAebW0DlAYr169WoA5Jk6ciMDKgXj2/JnVSiLgEi0GfA9PcxTafB/rUFBB4ndJIyoJhHsm/dhnKjAcz6K/FokyQAAqgk1RkcmePQemTZsqgp0KSrdu3aRfHDN/Z/9IF/aR/aZFgs8rhe7jjz8WmpH+3bp1x/ffT5P3eppzKeAKJlu7dm1RNm0bFU3OuzObq9McnTkWz7ttKeCK1ftqUz1e4SCsXPkPli1bJsKPwp7FkigEeTI+cOCACHKeZnhanjFjOqZPnyFCicKaWAM83VPJYA0FswWBpnUqEH///bexWgh4RAWBygRP5FQ8qJDcvHUTly9dFjAlCl0qInwnv8930EXBgE7lgiDwEhWEI0ePyLv5Hp66KUhPnT6FObPnyOmd/1GZodWDSgldKBS0zLuuV68+atWqKbDRRI7kN8mUaZXgd/htc6Mys2//foGM/uqrr4QmtATwu3SZEIyJkM7isjmmuWzolmBfqawQCZKuBgp43kPFhdYIVVSKlgLCWtOKQKWCTJr9poJARYffpBJCqwsxJPhuKjSsZElFjnSkcsJ7Pc39KUAgMYVYah7NyJEjMWTIEKcO0KMgOJW8L/nlHgXB2RMQfywIoaF49PgxqlSpCmaR8NS/detWMePT7E+4U5ozaYqnEKQwZeEkmsMpRGlNIEgRwYjoMjArCAS5oGuBP1XMQe5cubBs+XIRpqz9QBcABR9jA2gJUApC2TJl8En//lLoiad/FmTifYUKFZIT8t69ew0FgTEOdF/w5M9GICbeS3RFCmK6QGwVBPaLwBu0JHAymX3C52i257hLFC+OvSYEO7WgqDixuBVP+Cwpzd9JMwp6WjXoZqCCQRpGpCBUDgzEsaNH4e/vL+OjK4VWCfaHvzPugM2sIBBBb/To0RJDoRQRWj2oOFGpo1uFdFbVz5y9CTzvdy4FOK8sYmTbuN48ViLn0j5+v92jIDh7fuOPgqBTiqfgIkWKYsKEb8RcTsFHpYCC9P/snQm8VeP6x59zOk1cDRSXDEkZotGYqdmQKJVoQkSDa6okhMY/RRpug0pRKlNJCldkSolIVCJTmpSikeZz/p/vs9a79tq7M+yzh3X23me99/Ype+291rued3h+7zP8Hk4rnGppKHt86mxSnIYBCDROr5jN3QDBfI4JHkWNr5xTEUFXWBLY/DjtzpwxQ1asXKkKjoqMnJ5JGcWCkBdAeOLJJ1SpNm7cWJV0nToXyeuvz5IaNWooAxdAYu3atWo1YMMd+swz8u7/3pF7771PLR9QOaNwKfQEfbMBCDkFQAJUUP7EAsDOSD/xEfNs4jGmTp2q8Q15AQSsBZz+jbuCv7FYwBSJ0kc+ABAsJ8RkYDXg+ygGZPntt9+oSwFriw8Q4r3cC+b+gF6KlzGnaMwxglax1MW7FT4LQiFSmoXoVeO9TnK6f8oABJPygpkbCwCKiobrAHM8wYQGFBhhQLMMcEBJcpqmYbInKJBTeWjjtAuQ4IRM5UYa7oujjz5GqlSprNYH6JVRtARgYY6nP9DKAlb4m99jZeDEjeLHqkEfUahkVpiGVYK+UZ2SmAE2VX5PECEAhUwL3odr1GSgz3zGf2O25/e4DTD/ZxcIRlAgp33oqE3D8sFmjnUD0ED/KlasqJfNfYhXQOEjO37L9+gjqY9YLpAf7w7I4D2JqUBeuCp4H+TAPek7BbL4DFnyOYGTuGzoGxaEwp5O6smm4OEmyzxnjJmnPj24J6Ob0g/xeRDiP7wx5EEYJChpm65QabKV4cxFUxfR9RxkELqvhZ4U8tr3zHVrktn91r9tZjmbVyyv65MmTZRjjz1OmjZtavc0+PeHdz9212Mm42zGKBuyr8NeJVwZ5zSNYzUGeY1RrMdAWdwsmrTYzfMchBkrGeclg7xkGO31vJ6fv+tZBbrXhPY13DGKVoZ5/d7ql7s3qb3XuPf8xBoD9wyJfgyysuK11wRLLTsZpo4FIRua5fjjK/8JvgR8CfgSSCQJ5KUqE6mvfl8SXQKpAxCMxSLRJe73z5eALwHvJODzIHgna4+f5EOh+As8ZQACosIPTwwAPm+aiTHgs+yaCcqLVMzEApx11lmH/Rw6ZvzrZBGQrmf6xt8m1iGSZ5LmSCyFO24gkvv4v/ElYCSQ6pts4QtSLExzO7lmL7FuxH0Rg+VFWYBYzISU4kFo27adBgGSqcAAkI1AVgAMg6Ft5usz5Z+//1GGt0gb2Q9E5Ic2Uh8bNWqkBEGGxZCofcABGRWRNvgYCPa79dZbI72F/ztfAoVKAj5ASOXhTg6AwIGRDLV3331XA9gJZiebC7K4RG+pY0HIypK27dopFwDcB+TfG4BASh90wKTsARjgKOAPmQSdO3eWqlWrKo1xv379ND+fbAWUMUiPND0yIiD5IWKf+3KKJ0eftD0AAmmOMAuaugQAhIcffljBAVkO8BdAXASfAQAByuVZr8+SIhlFlCuAZ8N3YDILuN+BgwfklZdfkV/JcDjmGGU5JFtg7W+/yWmVKytxErTEJ514ojzSp4/WkCCNk2wCsidgbvSbLwFfAr4EUlcCyQEQbu7QQV60U3zNWFD/h6yeRC96lzoAQURpfuEDQIlDgIRyBxCA4OAPgLkNymSuo8RJxbvwwguVdRGuAoACqYYwHsJr0KBBfVm4cJGm7cF5QF2CosWKybSpU5V1kGcBHsjn557GbMS95741V96cPVuWL1+h+f24Ofg9RECABaia6SMWAXgLuO8bs2YpSICWmN9g+eA78CngXjBWCTgYYFoEbACCoKyF9Ik0w0suvlguvuQSTS/0my+Bwi6BwmdBSA6lGZN5mSSvCvMt7oXsLM1YoRO5pQxAIPOsXbu2WpBp8+bNMnToUCXjQRlD37ts2TKlKIYjgEEh9/5f//qXEvig4LEAoOBRxIaaGfcDZD/k9hNLwN9YHTitY02AZwBFzG/cOfsKEObOVXcHXPP/ufs/CjBGjxqtSh1yIbjp4RagH1AdV6teTZZ/u1znChYFAA3WDOiMsRxANIO1AbcFAAFSJBgXoY/mHjA5AoRoEBxBdew3XwJ5SiBJNtk83yO3LxSGd4xKQMn542ThQYCbJrQ6MBL/6MOPpG69ugkt/BjyIPxfgb4oJwVO/QAESiwTj/Dee/OUGRF2Qfw+FEpCcaalp8myr5epBYGCSgAETPOc1nED8F3qLmBdIPCRaxR/gkQIgADJD4RFMBiiuD/88ENV/KZcsgEIbdq0ceiXcWWg8LE03HvvPfLaazNU2UN1zG8rnHCCrPntN2VwhFUQ1jnABfem/1gUeDdcCwAEiinhlgAIARCwelD4CDdHhQonyObNweWqC3Rw/If7EvAl4I0EDGOcN08r0Kcky6ve2bmzTBg/PkhWkNdx8DNB7AUqyFwenjIWBN4RgECxIgACiA2TOyZ9Mg1atmopZ55xphYa4vQOHTBKG8sCwSP4+GEShNmP0ztWBgJLsBBQtwH/Pi4MY0EAIJggReiQqS9A7QIacQlYEKiECIsjAABrBXEMWBLq1q2roARrBlGtAACYDwEkWAGIH6DPuDEuv+xy+W3tb1rcCPcHoILfG4DAM2A2BNTg8uB50DJnh1gTdRL6/fIlEE8JFCY3Q7KcquM53ol273/++Ud1DXqAQyaWbfQS+inRW8pkMeSFJtkkoHmFrtjECjBwWAZyayhsXAkAg1g1QAfPBoyYhuUCsEKUK31iYIiZwJJAIEteSBPw0bp1a6UqPumkE+XPP/+KVXf9+/gS8CXgSyDhJJBsniNc01ijc0q7TzgBi6ge+vXXNdKqVUvtXlqNGjWyKNxDVcBwGqfa//73v2oCL9CWF0Io0M7l/XDcH8QmmEZxJ8ABmRXhtJUrVsrd99ytcRJYEghi9JsvgVwlkGw7rD+ceUugMI1pku/5eQ9mwX8jxi6GvGYnHOppVo2GmLe8nh3uA23ubJ181m/SzD/0v8K7nvPT8upn9Ndzl3E8xyBcGef1vfBkrDURlKY8dEJFL0Nn8LPtat73T6YxwCydjPM8rzGK316T1/wN93r+5nlOY1RY95q8VmF4o5C/MShse02MAUJ4QxKfb8VmusSnb/5dfQkkpgRS3T+v4Edp2ONyKknAQS1E+6BvQYj7/EshgCCyZMkSWbt2rW4G+Pcvu+yysGMHiDUgY6F27dr5EjqEShs2bNDfELhIRkG1atXydY94fpmATEopu9kk4VWAPCpckg7uQWAk7gtayZIlc+0yBCCZmVlSubJVEttvvgR8CXgjgVQHfEFSTCKAQOwBPDjEIRDUTsp9MrSUAQjMlQ4d2muqISkk1EJA4aPAw1GEcBbAcAgLY35aq1atNIugQoUKmoFANsOCBZ9K1aqH12jIz31j9V2yIYhnIDAS4PTXX3/p5CR25Nhjjw3rMaRbkuVBSih/16xZM9ffASiI1gWE+C3BJZBEm2ykkixUSjNSISXh75IlY2P9hvXSqGEjTWs0Byz4bbIrAZBow5AyAAHBQn+MEoMciQZ5EJwCpD/CNgiHAKmDpJzAQAibIYqM/0bxwX3QqVMn5RYgVRGq5IEDB2ptB9IJOTkTkGmKQfEMAAKUy9WrV9dntmjRQrkRmjZtqmmNixYtlLp168m9994r33zzjTzxxJOSlpYljzzSR2rVqqWAAoXKv6FnBqiQwkiqI5wNFJwidXHOnDmamqkESk88IYs//0KZHnv16iVvvfWWvgv9op/u7AgAAoCJNEk4Eqjj8M03pHbO0+/DILli5Uq5+qqrNEWUoEgyNnjn66+/Xj/r3r273HbbbarwSdGBeIp0TfgeKEgFgRPgCupnrAf8BrkC0si+QK5kWBCI+emnn6pMsbSQsTF27NhEWxOFqz+FACAUqgEtROOZLK8KEGAPdDeI9bA8k/6eyC21AEKH9nJzhwBAICsA3gMolPkb5kGUN0qda5ALoQwBFdRq4DpKjFoIMCgCMFBmcAyQlgjzIcyLnMiNT5N7UZuB1BVIjlDwkBtBWgQfAYDi9ttvk2uvvU6VIURJKGoU/RlnnKHKFjQJQOGkw/35HhkMr776qoKKc845W8aNGy8vvviiKliUMQRQEDEBKgAja9asUUCBsuY7pp11VlWZN+9dBSivv/66Mj5C8AR745AhQxRMPProowqquBf/Jovl/vvvl1NOOUXdNtBV807IY9CgQSpLQMlLL72kvyEtE8sNfQVcwQGBxeKTjz+RCy68QAEYaZwgaOpEQC8N2EHu9NtvBSiBQuCyLkwWhGQ5VRfgjPf80UcffbSy7YY2+HfMYdbzToX5wJThQSAQqT0AwWVBwGrASRbFxOn2X/86Ug4dypQbW7eWBg0bqlUBhQUzIS4CAALuAj5r2dLK+9y9e7eetLWsc1aW7Nm7V2szQLVsLAgoX5QpSBFFD2hAyUK8BELEd49yRUlSC4I+oZw//vhjPZFj4QBMYIno3bu3AxBgWUSRQqgBKOE6z2p6bVNp3KixPh+lTKxFpUr4+7NUWbtplgEI3323UjKKFJH1GzboyZ97Uk0MYibkQuEQAAv3wipADQviKIjHIF6B9wIgYH0AME2YMF6tIlgF8KuR4oolAZfFHXfcof1XgPDJJ3oNeZ599tn6DN4V0IE7BquLDxDCXKlx+lphUp5xEqF/2wKSQLJgWyzA69evP0xKuL/ZgxO5pQwPAhsdtRNuvPFGdSPgY0fx4yrgpAutMqd3TtGcmmFbRGGjvDn1GwsDip0TOvUYUG6ctps1a6aMhwSYYJLHKuC2IBgXA2ACZQvhESZ9OLjhI8BCgN8fhdmlSxc1reO+4PSNgoQyGWYtJgwWDCwbnMIx96NoAQgEX/JslC+ET1g5ABv0z7BAbtq0yel3wIJwlqxatUqaN79e9uz5W2bMmKk8CQAEwAZuGQAAbgGABuCAwk8o9OwAAn3CQgFTI9YEXBsADgiaTjzxRAVC/J7ASN6Xd8OdwP0+WbBAzjvvXKW5Jj4EEOYDhETeHvy+JZ0EkkVrxkSwyfGy7PO4m92NOC4OhYneUsjFkCX3399dT7wob6iLUaAowK1btsi1112niplMA0AD7IgUOvph9Q8yYfwEtTJgtkfZYvbhlE/jNE6QHnUa9uzZKyNHjggKLkGxEi8A2KARU8CpHFACUEFRUruB35sCSyVKFJf27TsoeLj22muVchmAg1uCUzjAZssff8hJJ5+sfn9O4JSgBlzgxrj66iaSlZWplg1iE+gD/QTA4Coh7sI03APEOPAM6o9jiSCegHfH3QDlM9YQXC2YvIyVgGfSNypN8n3eh3cDyBBbgHIHqNDoA8AL1wmfUx0TYAMtNKAG68qVV1wh786bpy4VaKsZHyqcEbPgt4KTQHJssQUnH//JiSuBZJq7D/bqJa+8+qrqA6yz0C5TCTjRW0oBhNyJUxJ9KFK/f8RqAF4AcVhsoJL+7LPPUv/FE/gNU93F4PMgJPDki7ZryRKlGO17FuDvYwIQ8N1jbjabDeNmMdxBUqL/0BaL60rDmMv9eY7FiRIgRnEz7ll9SPTraYQ7xE2GWFiiuX92Y6Absc1qmJuM35v3njz++GNy7LHHqaXBRPEW7BjFfp5GK+O8fh88BoH1Fc4YwAbnjJFZT/b6zPfvo1xnsB3Ga6/IS4Z5XU/GvUb3WclSdtHw9rro9oK8ZBjt9dz2mnRJk8yk2M/d+ia59hoAApl0xNXpW0RSi6Fv337Svcf99lZhTTgFB+hyZXFlE2DSWv+O93WLPM16XpZrAyS90GKVpXcFfd3uRWj/PJKRPwY6Q62ZYE0US/LMkSQaAyZ00Dw36yyMeV60aDEpXqK47N61qwDXyeFjEMu9Ij29iG5CmVmH4rIXJdpeU7ZMGdm2bbs1j505EN5eY60D7/frSPei8uXKq5sy0cbAZi7PYQySa68h0D7zUGZ0AKGfDRCMxcfesljnQVb/+Fx3KXt9Xpr9XGoOWBSrejp1QJz7ulUXosCu21UEAmZQC1Bpnw0/vicyDNiwwh0jB2TZMtfTirO/JJCM7dofZowdA5SeXO2zVpYFEozNKVwZeDvPHcOZPUfMhA6e5wGsk/cYFMvIkOIlS8iunbu9WQcO7bH9LllpkmUDMtVncRiD9CIZIlmZusm5S3ZENsaJv9eQbq0pdbaV1NqDA8mPqbTXlCtfXrZs3era7wt4Pw/Za5xaPu69xrHwGKufZfH2ei8xO35e62DFipUauxeVBYHIdvgFyNP/88+t0qxZc42AN3rZOZmFCsoc1szJLStN5sydI02vvdZSNtlcD5rs9vXly7/ViFCyGMjH54dvv/OOchMQhBdAB7gXLLOGbYQzYE8XFWipTp2LZNeu3VKmTFnbzmBEaak/9+/ffvstadKkSVj3t1Zszs/XkkPOLula0FkESi6UKlVOl2OPLae76KLPFmkmBpkByOjQoYPKm9CixfXy9dJlUrfe5fb7WTJEOU6aNFH5GOa9+55cedUVznUyHGCaJJCyZIkScvBQphw8eEBOrVRJsjIzpUSJAK1yUP9sYOAI0H43xy2YjYzDkUFeMorJdXssAnMg4I7KaQycWZDDGBXIdQcQGzgZAMQ5zXP3GBQFIJQoYVkQHIyY9zyNdgwcGav1xip/E+5az89ewl5hAYQsTW+O/RhZHdd30Pme814RgPwBYBfOGGW3V+W2jgh8w4KQ1xgl4zwP3WsI0rYsCIfv54m71zgn1Rz3+9jP02B9kp/7K0DIypRWLaNwMZByR87+iBEjNB8fRfT4432lzsV1dOHsP3hQimYUVYFohTUROZh5UIoUybAWln2s4/rs2W9Ks+ua6cni4IFDklEkXUSVPvMAM2GaFElPt08e1sKcOOl5eeqpIUr+U6t2bdnzzz+aRnjTTTcp8Y9RohkZRRykZt0PUaG002Xbtj9l+fIVsn//Adm06Xfp0L69mj8OZR6StPR0STdxFJImBw7sl2IZRWXOnLly7XXX2krY2oD4rnY2U/S3ZAhYStPaPgxSzDx4SKEjWRXG/84pJy0d+Vj/Y2DwsQ0aOFCaN28m1avX1Pt8/fUyeeLJJ1Tm9HHNL7/If+6+W6ZPf0mWLv1K6tWrL5mZ3B/RFRHJzJRx48dL5zs7yx13dpJnnx2vz2UDXbXyO1USn322WKNqq1SprBkcZDScd/55cukll9lmeCv2wz2G1unP3hztTVLdSgYMOeZKYxkJloElEuvYmJ2M4n/dKdfpjAEALLd3zEsGXl93BeQ4LhP3PMtNhkWLZkiJ4gCE3QU6Bswj3RVC9gKzV4TOs/zIGP6PTMnSU1DoXhPp/blPos5zi7DNIuXJbR1alS5t6xMrPGQt50fGltUqeC+I9+8Zg3Lly8mWrWRSZVlWhALdS/J6fnLuNd99t0IOHcqSVq0sXqCIYhAe6PmAnvzfnD1byh5ztOzds1c5/085paI89FBvzYeHB+CN2W/I+HHj5Yfvv5f5H3ygyvOjjz+S0qVKaeoeKXqkJk6fNl2eHPykps6VKV1aXn3tNfltzW/S7a5umiYCEKlz8cXGTinPT3xe5n8wX0/UDz/8kLw19y15/oUXtCgG4IUcVFIM6QPpeju2b5fbbr9d2RFJx5s583XZs+cfTen74MMP9eSMRWLa9OkyYvhwVV7/+987cswx5aRjx1uV54B3uvvuu2Xy5Mlav2HVd6tk1+5dms4IcxYmGXgJoDm+667/yOWXXeZs4E88OVjeeGOWPhvOAOb22DFjNOWyWNFiMnPmDMkoUlTatG2jaY2kD/Z9vK/UqFlDXQ/I4PLLLpeFixZJkfQi8uijfZSB8eSTT5bRo0crFwGEUbShQ5+Ryy67VNkksRaQNrljxw6lQIbvgdTK0qVKy1/b/pKyZY9W8IM1ARlTYOS6665TEqk77ugkH374kXI19H6ot6SpedjCQhr0aR+fjF/f2qCsRZOQ113xMWaDM6VcA+6dwDsG+cUd908CXLdnVSQyZg4ADrGYRfL7SMfY+p0dLOyaR/GQcUZ6hj5LLQjuOKgYjKFu+fQ/ijGIVIY5rTMFCNu2h4BFex26DRxuU3ecx8C9V0Q7BtY8td4egEAKe6xlGNe9zAZTybLXQAoYtYuBIMWrrrpSWfQgC6KuwLjx42TlipUycdJEefqppzWdDdY98t//gujn0T4ydcpUDZIid/7SSy+VhQs/lXbt2muOPtwCM2fMlDfnvKkaaOjTT2vuaJkypeXKK66U995/X4oXK66TY9Lzk/S0zffhvIZfgPtBxlO37uXy8ksvy5ixY2Tx4s9l3LhnpV+//qpEAQPfLFsmEyZMkHvvvUfJg+rVrSe/b96k1MhXNm4sn3/xuezbt1/fifx/i+BiKaYCueXmm2XKlMlSu1ZtWfLlEpk79y3l1968ebMyZF3dpIl0vPVWtahAQsSkhkGQegmQZ1AbAuDS+obWMnzEcJk+bZpMefFF+fufv2X7tm1S5fQzpFWLltKiZQuN/K9evYbtK06TCePHyRFHHiHXN28hjRo3Uh6EdevWyqhRozXqdMjgwXJ0uWNk2tRpcucdd0rVs2FU/E6ZGxkHxgMyJtgMAWi4WMqULaugBb4HrChYEDbjFusAACAASURBVOpcVEcaNGigTIrwLdx1VzepVo1+2NuigxLcu4/bUmBFKxiTX+Bvc8JJgOv2huMAAwUP9glLXbgW+k+s6y7fpWOhMkgtgNhcocGHjUEQQPB0jMxcsRSX7SaPi4wzMtLVCpd1yMxJG7ZGMcahlaNzk3HgJO/NPMc1alkQcpgDtpvXDHfAB52o8zx0HQbiycppkKIBCE4IfGLvNWq6tuOf7MNVIu81GqQYbQwC/P/UA6hevZq+/CuvvqLKvGGjhvL8pOeVlIjGafriiy9W9r9zzztPt4bzzjtfFQ+n+2uvbSpt2rRVsp7VP/4od//nLntxZ0qNmjWDihBRp6BChRN0nj8/aZKkpRWR71etkibXNFEyHxgVUYTUO4DQp0vXrvK7kg11lVGj/qu1BmbMnCmrf/hB6wf06NlTXpwyWerWqyebft8kV1zRWB599DE1zWceOqTWCawEd9x5h0x4boIejwEZk6dMUXfEi1OnyheLF6vS52Tfr19fOePMs2T4sGFKQ3zZ5ZerGYxo6ltv7ajxDpAiQeF84003ypw358iAAQNl9uxZsn79BmUnfKBXL6lS+TR56qmnpfEVV0iN6tXtk16aUCGsS5fO0q9/f3nl5VdlyOAnZe3adTJq9Ch1q7Rq2VI2bd6s1MY9evaQs6uerQABC83Qp4fq/gGDIkRSpUqXkm1/bVMXQzBAOF8uu/QSuf32TjpGffo8Ku+885YTTWZOMQH17wqMM7De3k1NeFcgaMo2MSTAdecMaAd+W6cU2/Xh5LzoAdTaVxPpuhP04YSNBoK28hiDjKJF1cWwa/du29ZjgjZNYFv8x0jT8eIo4yIZRaw9JPOQA0RiNoYmSsm5Yf7HwPZymtxsJ78q0nVStqydxWCjruzvb83vQByCcVQZ0J+A8zx0jqSlSXmNQdhiHfgTaAxy2+ss2Ga5RGI2D+O4V8UEIHTt2k0+/uhDef+DD6RY0aJKxYuSpgrgyBEj5bmJz8nnn3+hZnooeWH0q1W7lmLcJk2u0RMvJ+BSpUtL2zZtlLGvc+c75bXXZsjrM2fK9h071DVA3jyBKTD8vTZjhpQudZROG6wUmNph7IO5j+cSxAdAaNCgoQboYTlY8MkCdRtAjawAYcZMWb3aAgg9e/aQyVNelIYNGmhRJuiI69evJ4s//1z+/vsfufSSS2TF8uXSuXMXGTf+WX0uZnwAws0d2muAJt/9fPHnQqxDsWLF9Xrbdm2V0hgXAzPi04ULtSbB4CGD1ZXy1dKl0q5tWzX1U+dg1htvKG/3wQMHVB43d+igNQ/69n1catSoaS8Gywd6Q6sblEIa+uUjSh4ha9WCMErfG/fBocxMueD88xVsGBcDFgSsB2+9/baCI9wSyAoXw9Flysp+tSDsUSsI1gVk8OmnC1VmVLps266dHTBgnQINbnfvvoG1GsixduwF7oVhp7xaN7HPYV5fD5xhHXe+teFYMj78HW3XSYJcD5gq8y9DLAgl7CyGghgD22Xs2C5sx77zVyzGQGNt7BiEeNzfcKrYRqiCm8c2SifNUS0Iua4jYxFLnnme3TpEF8AQm2hjkNte5lif7PFK9L0mZi4GTty33nqLmuOhknxp+nRFSv37D9BaBNQooKrg+PET1IJQs0YNXa/ffbdKFeO06dN0j7r55ltk8uQpMmniczJ8xAipcvrpaibfsGG9nnZh46MWQr26dZ3AKlwDBPe1b9desxbwlS9Y8IksXbpUej/0kCrQMaNHy2mnVVJQQGwAJ+mXX3pJVv/0k8YZ3HvvfTJ9+jS566671KT+zjtvy/erfpD77r9PjjziSPn4k48FiuT/3HW3KmHeDYX53MSJcvttt8nEiZPkyy+XKL1wt67dpF//fhqnQKGOO+/srJYTExSES2X16tVqgUD59unziFZHfLzv42pJ2LBho9Zk6NChvVJA466gX9WqVwvikljyxRcycBBWh9mq5tatXyvjxo6Trt26aqwBUdIAtZo1a0mtWjVl2TfLtG8ABOJDXp85Q2a9MUuOOqqUxjqUKVtG4xv27d0n1WvU0KJWBH5i5YD+mX9jtdFzUnZcF042ijEdFzTXRLjPNwET3vJ1RJr/7RhT7aOTZdCwCcTyMQaJxINgAlWtQLPYcabElQfBDowreE6VwDzPngchh3Vg7EYFzFsT0ToQkfJODEIi8NqEu9eY4KfYzvOIZBjGOksBHoSAP9NC8Xnnfzvmu2zzVqP//bhnn5V9+/ZKt253yZVXXqnBj5UrV7ZPpDnf387ATKi8WDJJPl3wifKIP/vsWCcHPzRv10lTU+0VvQzjPUZB99dIy+B5lMi5ye7cZd0aI5zHnvMgZMNHYoV32FHocRiD2PIgJN5eE7pOcuRByI4PxPjA3VlHcRiDWOf4m2mEWzrxeRAO3wudiG5jwEl1HoRnhg2TAf37Obn11jIyuDpo73VFJ2V3PZCvmf3vc74O/wGpfXbCVA7Pz8/93YFU5t/u37s2C8fUbr9TFumaszXbodPtt0uFk06y9U/o70NlEO310D5HPwYHDhyUESOGC24k3BlmXAJhe46TwX54fmSc1xwIZwxiLcPEG4PAeTq7eZiXDHO+ng6YTkvTIKTglv08d8/4wDrLbq1HK8Nofx/OOojlPI18DFz6OCZjQFonFWqD12l8xih4Z49+r8nvPCcL7sDBg0F7a8AVEXjn8PaqcPaagGp33zMwhl7vReHMc/d38j9PscJv/H1jdDwImPwpjVyQLdWLzhSkbP1np64E/HWTWmNrAoZT662yf5vC9K4FNZ5WsaY10fEg+AChoIbPf64vAV8CvgRcEihMWtOVwePPgfhIICbVHBMBIBjxwMNQr15deffdeXLMMceELTWCBskkaNOmjWY8EFwZTiMj4frrr5e2bdvKU089paRC+W2DBw/Wn5CBEW6DyOnDjz5UToh58+ZpVkZoIzizfv36cuaZZzqXGjdurO6P5s2bC6miLVq00IyHP/74Q9McTXXFcPvhfy+5JeCVPsHszfogDZhgYwJ1U7Hhrhk/fryuKQKFu3Tpkoqvqe+E9Yk9hAwuAqlJr/ayeTV3Y/FO8Mz07dtXNm/aJD0feED5aJKhpRBAsKYLbIwQLcFkSHZEuI14gYkTJyqJEYMJR0E4rVSpUkp+tG7dOmU8JHUsv+2cs8+Wf/bu1bRD/GrhNNgOyej4+eeflXOCfoe2Pn36KHiBh8G0NWvWaGojWSWksOzatUsqVqwop59+uixYsEDfwW+FRwJeuBhg7gSYzpw5U0Eoabekzb7//vtxF7Rm9tsF0OL9MNKDL7nkElWarKO1a9dqfRg2We+aN2oTOnYOHuw/ppEuzd6pNSY8ad68a7SvMn/+fAWNsOayv5MN9v3338uwYcOivXXcf59CAMGSFRwLI0eOVO4AlCGNVMNixYpp/YHbbrtdbryxtaZDHl32aM3/nzNnjip2AEKPHj00ngJwAXfAaZVPk0MHDym3APUdACG//vqLDBgwQImHxowZoyej11+fKVOnTtNnQxG9/8B+GThgoNx2222a9vnPnj3Kjvjii1OU+8E0LBCwP1IwCVQJSRSZD5z+K1WqJHXr1lUOCCwBbK4//vijAoIj//UvmTvnTWne/Hr9b8AA/SVbAkrljRs3ah9JAYV7gqIm/LZK5cryzbff6vcACDyTQk8NGzbU3wOMsGjAGAnNcv/+/fXffvMlEKkEOrTvIP0H9FeiNNOYc6xHLHap0qA1h7nVfTrEYkIKM+vIi+YF4OM9OExcfvnlh71S82bNNXXak5YkLoZmzZrJjBkzgg6PcPXAFszhLJFbygAE5srKlSuka9euOnkBCJj9MaWjWCEfwvwH6oWfABZBFDyuBUiRMJMBEDDVP/7442oRmDRpkm5qmIaoWDls+DC57977lNjpiiuvkNU/rBZjQUCJAgzgO+A6KPq0005TJVylShWlYOa5nC5IezQN0ic4GUqWLKmEShBGwV0A/wEVMuFDeOONN5R8ineBLIqTF8ADcEFBKgACwAY0D6Uz78DiJQIV8igosPkeIAKg8csvv2if6BtMk8gGUiTkhjywwlBjgv7z3+FaNRJ5ovt9y0ECHmyyzDm3FYueYFU47rjj8mXli3QMvVKarNdQtyaWPtbye++9F2n3E/J3sL4+9tjhLgVYc7Gk+C0ggfPOPU/q1a8XJBIsCNTw4RCWyC11AIKIPNCzpyI18mMx+6Mc8c9DtvTj6tU6DidUqCALPvlETX8oY0iTMAti/nQDBJQ5it40NhnAAvdqcvXVWhSJWg9ugMA98Ol/8803+jNO5DwfxY4FAmFjGUAB0zjVYyVAWQMo2Eg+WbBAKtmU1DAxUvjpiiuu0NoSbLK4B3bu3KH0xwASTmBUdQQwNGrcWBrUr6/35pn0g895xvBhw6XSaZUUcOQGEDCN8oz77rtPES8FqfyWwhLwACAAwFmXoQ0AjlJNlYblkeJwoY3TImytnjQPxpP34JCC2yi0wVw7f378XUeeyDJGD4Gmn8NoaOPwxd6fyC1lAALWAQIEUbIobWoK4FpYsmSJmtM5HaOEOU2jyGFzBADMfvNNeeWVl6V/v/5BAAElSWGpnj17qpKGafDoY47WmgVYE/ApYcaHG4BruB9Q2JzgAR6cHFDqfAerAv0IBQi4MfDlYaGgQTHNqR4AwcbJqQNlTlEl2CjxXVFjAtMstRHcFgT6CkkKhaqqnF5FBvQfoLIAJBB8yWkNCwNgITuAQOVLnmcsDlgqYNFym4UTeSL7fYtQAh64cbFQYamieqpp51Q7R7768it1/cW7eWVBoIItVjf2A9Nw7/30809Khe5Fy4vBIlZ9oNIreyTBzaZhaSQGwQ90DpYyeiE0KJcDKu7fRG8KENb8mvw8CChDIoc5+ZqGOf+II45QU86tHTtqBOmgQYM0uI8IY5Q5JkEUPgWdFi5cqL54YhIYQBT48m+/lQd791ZAgU9/+fLlWmOBss6URH78scekXPnyWsWSiGWC/vgdgAW/IyDliSee1LLXBC19/PHHem/akCFD1BVi/FD0gdLUBFkSyIUVA4XPxop7AIsDwZegUf4msNJUZ6TfnPZZnIALgAaWFAikqFbJtUaNGqmVZcBAzIOPOX+IOUB2L7/8ikye/IK6QwAilHb2LuAo0ZdKavbPK+UJUIbSnPgX3GqsIUBtqjVAAnFJHEjYXwDyHDC8ah7gPedV2Jdwh3IAIc6Kw5SXQc5evmu048d+jBWJPR6rLi7uSALao+1Hfn9fKHgQOBW73QWcpPHJc6r3W7AEcIkAHgYOHCSNGjX0xeNLwJdAMkkgmbRmtHL1yJ0SbTeT+fcxczFwMndId9M0uUjSnNrjgWIaphhL9NcNx7VVaEdNa6ZgTaBujfaJ03j1atW0oA3c5fv271Nz+1lVq7oo+G3jnLvKlkOhzBDH+Tolac3zrHrC9n/bdd2z4iHDw8eIkx4WhPPOO1fS0tPzGEPXGKiIHHL3QEU+L2UY1RhZddodMlL3GMR1Hoe7TlzzXHccu6Z8YNVZ+1CSjUFBzfP87VXZ7DXOGITS71pjYPYaLUJla4hQSl6rjkIBXTflRwpwr4lmDHTeOHV3CkiGTs2Z/D4/efYaAt2pbozFWnedGjVqZBHgZvzieaGf33//XasrFjTVslOrN68O+9d9CfgScCTglYuhoETuJQ9CQb1j8HMLlQkh6PiRGPJPrV7EzIJQ8AAhtQbGfxtfAr4EfAnkVwKpDviC5OG7GPI7PfL9/ZQBCMyVRx55WIMO4QSgQWAEcRLBQqEN0qD169ZJ/QYN8i0084M777xDxo+fcNjvCSJs166dZZJJS9OsClK6yCBIpIZsiEZ2N1gdH+/b1ypPHWEjGBIeBmIZaLh4CJwMl1GODBCCLgkaJRAUfoi8Gqmg8EUQlOq3fEjAo02WlK6HHnpINm/eLNWr15DBg5/0LEjRS6VJ2jTBemQKkdHA/PUySDEfIx/1V1mnkP2Q7cQ7ktlF1obfUkcCqQMQRKRd27aqJGAvI6qWjAZydYkYZZNg8ZoJDI/Bv446Sjq0b69K3JS9JeqfZjYVMgcgWiK1kEZ2ApGoABEU4QcffKCfmXvwHTgPyEYgwpdrMCFCt2lywbknEdywJ5p7mr65y++ymboXHNwO9MMqu2z1hXTO/fv3O5stn0HyRGCmaXyHzA3SIN1ty5Yt+p4AF0OIxDNOPPFETT9DFsQkEJkMlz6ZGsjCNPoM86KRmfn8xJNOktKlSunGQSMDY9gzz8jfdpob/SUditRL8x78jbuKVFXeAZB11llnqYz4Ps8AzEDCYt6D7/GHzwlCNTUnkCHR5G7SGt7DyNLPzHDNAg8AAmNJZg+AnTEgopu6I6R/QRCWKo10ztq1awvryjTeF1IcDgmeNA/Gk/cgg4E0bhgxWaesXQ4B7HWpCog8Gb8Ee0jKAATk2rZdWzm14qmagkiGAgQlAAROw5C1oNDfnfeufDD/A81iQAlSqyAzK1Oub3695vyjgCAeIpd52tRpclbVs2TJl0uka5eumi7Jb2rVrClDnnpK0yMpUAJ7IymBRnEBEEhVhOEQ5fzQww/J9m3bld/AMDuyadC/Jk2aKFGTSa+Ei+Cuu+6SHTt2ytlnV1XFRwoiqTF/bv1TDhw8IOecc46mP0LAwe9RxLAxcm8YESFPgvSJjYoTDLwPEHIATABQoQoSsIJCJe0GamfAE6eg3zdulDPPOkvTM0nXhFOBmg9YZPhTr149TcWEhZI+mQbgoHgLSoA+1qlzsfzzz2757rtVyt3w2OOPyUUXXqTUzx999JECntq1z5Vjjy2vQAbFAXggVYwNF2ZINh0oqStXqSy/b/xdx5h3gkeCZ2FtINWVflQ9u6rs3bNXAQPvwnWYLgm4oeYEfBJ+syXggcualFkoyA0g5MmkEjM/mdfxbl5ZEEiDNlYz9ztxUPGKd9+D4dRXgz6ag4ObIRPQ0OTqJvLRxx/Fe0j9+3skgZThQWATwKyPcuXkjkLjlApAQIlhDqPGAUqGayB6OAOoycDvyMJggWMGRdmS7ofS5vTDCZaTDsoIgIAS4++Kp54qm37fKJs2bQ46nQMQsFrApAhwgPIZwEB2AM/CugAA4TOeg/LiuZAtQSjDdwAfLD760Lt3b3WbYKoHwJx2WiVZvPhzadCggbI50kc2IdD8GWecqeZbgEKtWrVU+VK9EVAAJzg8DdChulsQQLj8chk9Zow+DzkAquBTACTMmvWGrFnzq57q4WAAiCDbPf/skREjRwQBBEifeDfeHUIQvkc/MbtSiRL5wwHBuwE2sMogX8hXOImhTKDjRc58DnhhA+LvE088SZYt+1oVP4oGORuSLADCZ599pr8HQGD2hPQJFw9WHEAapxy/WRLwQnlCtUwhH3djLFl7zPNUadRRgaI8tOH+evfddz16TW8gAnsYllp3Yy6x5r2iWvbmTT0atgR9TErxIBiAgMJA2Z5y8snSvUcPPZGWK1dOT7NMYpQwSgqAgCUBRXLhhRdJ376P64mGIk9c5xonXMzrKCb+Ll6smOzZu1dN/VRERDGR8QEgMM1tQUCpN73mGln02Wd6YuaEAZsjDUWNkuRZnOw5iXPiHTVqtDz33AQ1x9IHiGWgaKYeA43nAjyaNm2qoAH3AFYMFCDKEeZFFCN9hyER5UjDHE+p3dDaCjkBBAJPASmGRwIXCZYPNnfcH1gbDAW1u3ALFgSsDSgANkcsL1BQAxDoO+Z+Wq9evfQe7dt3kG3b/tL74t7IDiDQZ1wJyJ3x/fDDD5WhEuDBGLgBAjIBgGA5gpwE6wKkVHzOxuYDBG93o06dOqlFK7Qxn1Kp7DPZXPjkQxtzDiDsSfNIa7LPsP5CG/sL+5gnzSN3iifvkqAPSS0XQ9u2akHAZI8JGrZElCWKBwWLkmChYtpHwS1auEjGjR+npnCojDHVoywJdnzoISvgEeT/xRdfaPwAShmggDUCRcUJHsVufPjG9+YGCIw7xZ/4DNcFCnv0qFHKyPjlV1+p1QIQANvh8BHD5ZKLL9E+n1ihgjRr3lwD9DCNw+TIaQuryJgxY+XNN2cfBhA4vXDip68PP/ywvidKGOZGTPWc5LB+hDJ4uQECih4mOFPV0qr/cIqsXfub3heAgFUG1kjKl2I6hs0RN4Bphs4ZtjxAAe+OUuffvA/AiLFp17adrP5xtYIC3is7gAAwQMawUgLecBFgCcE8TZwJbggD1IyLwQ0QsHTw7sRBsHFhDfFdDIHdyAt98seWP+SC8y1qc9MA1IxrKhUCI34HtxuA3zTmHsrUC0ppL3UMrlPG0F2Eqtwxx8i69esPs1DGq19ezN149T1Z7ptCACFL3nvvfVUahu6TGABOsbgU8JnxspjdUTD443FFcPIm+A4KZHylfMaphhMoZErQNaNAUYhsZgAN/o3JHtM99+LenLKNHx7lxSbB6dmc3DlBQTYBMGFjxHoB2iZuAbMcp1yUKLESVPgitoC4ACwMKEVO3Zx8CdZD8WLmn/vWXLnpxpvUXcFJGksDfSL+AhcD78Ope+JzE+XPv/7U/+ZeoQ1wQhEn7v3GrFlyed262h+yHFCouAh4JvJAkQMIkBd/AAMAHPdGj6uDd/th9Wr5bc0alQN9xyUBuOI670N/GQ9kw/NxJbzwwgta8ppxwNKCSwhgwckM9wAyAfAgb+5DDAluFH6HBYkx5z3ZkLneskUL+XThQg3cxPLz7TffBFXTTJaFmuz9ZNyw5DEOzE3muBdUs17zIADAibPBWshaY82bYORkH8PQ/rNe2csA4bgGWX8mgNqbd/UhQrzlnEIAId6i8u7+uA5GjRqV8LXCvZNI5E/CHwpoBHgRr4DLgVgUv/kSSEUJeBFTkjBy810McR+KmAGEQf83SKlqIasVm74THlFTXYyJy3871+3Bda4rX7J9XeljrfuEfV3vB20tMrN/p783zfpXfq/zG4v02G76GHP/wLMC17lqqJ8ju772tzVy/AknSLFiRZ130ZdzyyhExtleD5WxewwikXEuY+Q8PwIZ5zVGh49B/mT8559/aWodRbFOPuVke55lN0YRyNgmxA4QZbvmsVJ/53Me53MdGIrxvGSY3+u6/FzrKNoxMGsy73US3Rhon+O914SMUazGoCD2muz2a3+v8WK/j26ee7XfAxDW/Lom+amWfTAZdzDpPyAVJeBbaVNrVAvRRliIXrXA5mjMLAg+1XKBjaH/YF8CvgRykUBhMrsXJrznA4T4L/uUAQjGFQHFKSmOpPzBLxBuI6uAfHmCFp988kkNRgyn3XLLLZr7TLoewXxuBsNwfk9wHoNwxJFHKJ8AqXkE1yVSYBNpkhAuwaFAI2izc+fOKi+CGSNtBB+SNUHWAZkItBYtrpcfV/8ky1csD+u2yJ7AKDIrCFCkX7k1mC9JkSR7xG++BGItATJ2yFpatWqVMgySeURQr3fNO4gANwrZUspyun+fdLq9k65Dr5p3b+rVGyXec1IHIGRZ5Z779e8ny75eptkBRMLTSBNMT0uTLVu3amoiKTqk6xH9T7Q7+bxE4hJNTyok5S3JKCCX/7c1v0nDRg1VCZERQLYAfAgsBO5B+iH+bZN2RwofCog0SKhI+ZvNAuVKGh+kQIa2mb4RcY9So1+cdEgdInqf6Hz4GEi9JFUKTgSeu2jRIr0PfQZEAGzIwmCRmpoTf/zxh6ZW8Q5wPBA5TsomoAkuCFMTAp4EZMHv6Df34f3I+iCwL7SRhnlg/wElUKJBlAJZEQqevpHhYHETLJBTTjlZ+SZoTDLkQwqYm6SJvpOSShYEvA08n37CWQGpFFHS77//vmaUmJxrMingSSBrgs+geEWepDtOnTpNpkyZrPPA8CMYkIgcyZwg2hpZkZ1BfxlrSHwMIxxjTqYJcoNWOpSeOvGWsN+jXCVgyqhrzE58G2m2pDG765swd9kfWFOp1CAxI22aTCYODKx/+E5IGc8uUyoe7+4DhHhINfieKQMQeC0mKQoQBU16IwuTdEIK+KBwWaxMbE6PpCSSu4/iqFe/ntSvV18BAp9xAiCVDs4EUvMgOoHpD54DPiOFCWVO+h7pf6TiwRtAGtftt3eSc845W9nEUL6k36H0SAFCkRJND02yaQAETtEoKBQW16BGJl2qa7du0rZNG83bJ98YZck1FDzvSEojFgdYFGFU5B5YNNik4D9A6ZKGRNoVp2sUMe/OcyB1AYCwuFGu/IGamBTDd9+dJw/07CHXNWsWNFtGDB8h+w/sdwACskZ+yBWq6l/X/KpKnY0DawrKlz68+eabCqSgjIZTwlA9AxB4HjUdAARc4/2mTpum6ZGnV6kiHW7uIN9//4MyMOLGovYDGxHfIz0TKwTgjTHh/siKLAXSLAFEcCfAEQ8TJtwLAAbmAP/mOzz/rblvyeAhg3Vjf+L//k+uvOoq5XfgGfBKpHJL9U3WS/cCp2n2itCGlZAU3VRqM2bOkNq1agcVoINxFustINubluqz1xsp5vaUlKFaJlp83nvvqQKnMAwm8auuukoVPuZrFBAAAiQPIyGKGssCp2vojOE7cAOEr79eKl98sUTBBSdtTr8oW+6BReD5F56Xn3/6WZUjBCkoHhQK90IxogRRapArUXfg519+1n+zUbg3ixtb3yg7du5QJQcpEwqOHHGsCOSJc19OwyhjakVg4YCHgVM/yp3ncXLBagCnwF3/+Y9UPOUUpTjmnQEFKEzMnfA7oKjhXeBd4W9ASQJ0vv9+lfTt208BD+AG3gL6627DR4yQA/sDAAEgtGLFSof9kL5jVTCyxzUBUONUwYmf1E0IqYxlAYAAuMGqQH94Ni4DTLIAj0svvUTvTzNMioAfgB9kUowDp39kx7sDehhzxpfCQFhauBcgwjA0QqAF2AIgAGL4gzuJMcTqQm0NgBZWHVO/o+CXqd+DSCXgJUAAiHIgCG3MScBrKrXB7yhakgAAIABJREFUgwfrwcPdkDVrzbgi4/++PkCIt4xTxoLAVOG0jdIEBHBKRBFyajdUwYbrn9MyihNCIczVmPcVIEyaKPffZ1kQAA+QHeGCIH8ebgJM+iholB6WBeIdDECggNPM119XZQz1MQABMzXKHYXPsxA2LIgTJwZOE24XwzPPDJN33nlbgQKbDb9HWW3dskVOrlhRTq1YUWsiAFRQ4ChjlDuLEhM+YALwgGsBMICpHMIlrCcACfqN2wPlyjX+YPUwSpJ7ohgBQZjuDSW0mYQofk4JxsVgLAiAD5Q1VgpcNcRw4CrhhM+JAsZFFDzyoi8m3sAABOpgUMwG/y2ghPfgnbBEMA4GIECyhGJHwSMjTiq4ANwAAXlwH+7J97EUYV3BTcO93AABOQJasHJA5IMFw9TEwEoBSVWqWxDivcEUpvvj0syu+BTzK3QtxU8u3ihN1l52MV7sDeyRnjQ/SjHuYk4ZgPDXX9ukevVqajY3rH6cNqEN5vT/4IO9JT09TeMGMAOiOLgGWMBMjyJ1WxBQZCxsFAUmQlwMpY46Sl6bMUOLLAEe+AxAgsLlJIyyBXhweucUDkAhKI5TuwMQxo5RZkPTQmMQ8MlzqgfU4A7g9D1w0EAZOWKkKk9Oz/SVzwEfWCl4DypOli9XXuC95x7UdCBAisXK70IBAi4IzPUoThY1EwGFz8mb0w4yASgFWRCGj5AD2bgYcgMIyBDzP4DBuGdMAKYBCJxEsAQAKGCmZONhHJEBxEaAvB9Xr5YZM2dq7Ed2AIEgUapZAnL4DgCB+2JB4LkALd4xN4DAnGBuMPZYoYxFKO6r0H9A3CTgpQUBlyJzEJejadQgYR6lWqOuC2DIXZyKwwAg22+pI4GUAQi/b9oka379VU/JpnEK5TTM6R+zPgodhcxJFgpUlCRxBZz6sTjAFY/C5TSMYkEBo5CNDxvTNcqK32KOhioYAAAgYcEQsIevm5oLNL6Hm8C4KAiK5NkoZdNYULgOCJqj4RYAxKDQeTYAhlM/QYM8480358jWrVt0I+KEzPeoUwBQATjQeA+sHsgCxYgLAjBA0B3vxOf0C3P/7l27pfWNrfUUTv/47IQKFaTJ1VcfVhaaAEH6gGWDNn/++9KwYSONjeCkjTUGOQI0CKbkPXEfoND5LVYN8578HrM+8uT9sAhw+sdCQXwFZlksPtRPwEpjivqQNQEAwqXCs3gP5I8LAUAAuOD7JlbDWAC4JxYJrCb8FjpughYBkYARnksMAoGS/JsYBAprcT2lmzcHzpQWYejLMfe//nqZ1KpVM9uCRqkkDCwJ5qBi9h+v3s83IMRf0ilTzTE3UZkTrvkOSprgNCZ2MreNGzZI02uvdczwyfwuidB3XA5YDgCJgAjAnwmoTIT+xaMPPj6Ih1T9e3ohAR8gxF/KMbMgWFTLVocdilblPtai87AoR37dprO1GE6z9P4O+7FmL2VZjLbQrOZwXTsS8nuLItUWsnbQur++Q5abTlkvRHjdfoC9Exva5sD9I7jupsGNlYyzGSNn+tkyzk6G9oDbg3u4jHO6HlsZ5zWG4cuY8cFUXLRYUdccCPxe50e85rl7DHTpHD7Pox6DiOdxXjJ2Xdduh66j8MfAeu2Q38dxnhsOFd2rwthrIhkD7/Yai+o7WxmazS7SvSjBxsBi1M5eH7jHKFH3mrDGSF8yDjo1zL0mZgChoJkU/ZNQ/NGk/wRfAkknAQ95EJJONkneYX/Pj/8ApgxAQFT40IkBMEFw+Kj5tyHnIdKf7+B/xmcf2ohXwH8PkQ4Bcvk1LxPjwPNppEeGEyAFBwA+c75P4/QKodMJxx8f1ugTE0DpamIMwm1kKCCD/L5fuPf3v5c8EvBykyW2A34PAlJZY160cNZgrPtB7AzxNaxrdxn0WD8nEe6HfMkA4l29KN8d/M5ezt7opU3gOmuA+Z8sLaV4EG7t2FFT00ywTLdu3TQAkWDCgYMGyeQXXlBGQkAAmQfuADSULMF7pM0x6QkAJPPAKPy8BhRwQZAdaYZsEDyXdL+8Un5gDYSUiTQ/GvTFkB1xj3AavnKCIfGX39D6Bpn1enBucnb3OP30M2TlyhUFsKDDeSP/O6koAYJNybZhPQFqyU4x7JXxfF+vAQJZMmQfcShBIRBAnKqpsmRy3XP33VK8RAnZtn2bPNjrQd1/vWvJARAABX379lVdgJ4gWJp9Hl2U6C1lLAhMlY633qoR+U2utqL5DUAgeh+mQxQ+jYlNCh8MfzQ2kfr16ykLIsqaNm7cOM1GIEKfqGQi7Wnk2JPhwCkc4QEkAAZkAVxx5RUyfdp03QAtUqQJMmHCcxrwRnQ9z+H3pAOZRvQ91gwyFqAMJjuB4ElQOVH1ZEvwb56PlYCsB05fBFqSwcBviSQmOwDAQ8YA/eN7fIeIf6wh3NN9auNz7g3qJ3OiQYOGUqrUUcoZAL8CmzenH9Id/eZLIBoJkF1CRtEjjzyit2F9wA3CGqtQoUI0t06o37K2IesyqX+sd/gPSCM25GAJ1eEoOoM1ltRld1ojWT+Mq2e1J5IkSrF79+7OAdCInEwv9m037X4UwxG3n6YcQCCNETIdN0AgbZD0tZwK9MD8BUc/FMSm8RkID7cBJiGAAM2QA6GQORUxyO/NmyfvzpunQAGAgZsAkxtMgiBFUhRRvAgbUiI3k2LFihWVFZGNhHvDoUBKIN8H4LCZAg4ANLzHEUccKd26dZXjjjtOZsyYoTnX/J6TC2yCcBiwGZOuSBonedgsZgAMVg3SFx/o1UtTBHmH+7t3l/379ilwITWQjQw+gj59+qhFBT4Fv/kSiEYC11zTRF566eWgAmSsBYB3z549o7l1nr/10oLQvUd3ebTPo467kM7B1PrII33klVdezrOvyfQF9jbSx93mcvY9SNogc/NbQAIQw3GgDG0mhT2RZZU6ACFL5LbbOqq5HWRLgxWQSQxtL0jNMACyaeAjNJObf6OoOannCRDOOUdWrlihSpzTOidzTuIodDdAoL4CdKQsJEALZEucmKB+NtYInsVzYfODVMkUSOJ3kAudWKGCbNi4UbsEKQkgAoSOwjcuESYZAAE+ARgk+bxM2TKyfdt2/R2m3FNPrSStW9+g1MMwQxLvYAACXAD8N/UdOOHxOYiXkwEnIR8gJPLyjUHfPLDSshaYp6EN8zvU1qnSICmDbC20sR/h0kylxr6SHbgz9W68eNckMSAo14778GlkY7hfvJBVpM9IKR4EAADmdAoeAQJgUIT1EAAwcMBAmf/BfDWzY85v3qyZ/PTzz47cUM6YB6kQOPSZZ+TMM87QzQsBMekx97u5/VGqn3z8sVQ9+2w5GzrfH38MBgiXXSaDhwxRgIDyJr8e5kDAitvUX7HiKfLzz79I9erVVcFz8scSAOBAaWM1QKlDFAQjYLPrmsnG3zeqZeOiiy6SBQs+kcsus0omG4BQ6dRKsvK7lervfbBXL7m8bl1lKMQnikvBDRAgDiKQE7Im3h/Ag68MoiUmMODFb6krAQ/wgVruMD+7G2sA0ivmcKo0XClY7NyNQGDWtCH6SpV3pd6MqQrrfifqtdx7zz2evGayAASYWeFYcTcOp2bv9URYET4kdSwIkiUrlq9QUEBQIgoWkMAmROMzfO0EiBjTv5v5i5M0zH9YATB9ckon8I/YASL+sQC89toMKV68mFVB8F9HypjRY9RKAIMg1ocrr7xKOnRorwGGWC7wxaFoUfi4DyBnMlYMM15YEGDy4/TB6Z+JhN+f/gNu+D1UzVQmpJYA5ir6+ufWP+WiOgAEy4JAn3AZ3H333dKoUWO55Zab5d5779UKiLwL8QQGIBjWRL5vJimg4pdff1ETITESMA8CKgANfvMlEK0EsHzh/mJtAFwBDADeVGtdu3bV/YXANIA9Bchw2XnXvIB81tsQhI0ViH0FC+3Fl1yihyavmndvGt0bkTnHwZPDHjqpTNmy8vJLL6nLN9FbCgEEw8mUpVkKR5UqJcccfXSQ/IkjQLlmh3zNF1GYTHayGe65524trkRDYbsD9ogNwNeGgs+pkdLF6dwKgqwvFHMxNMXhTgz6DHAgmDGvRp+wclDimn8TpJifIEOsEoAQahlMmjhR/tiyJSU38bzk6F+PjwSwwgHSWTNepTkqSRtEMw4jWnzezX1XQBCgH6tcogehRSsN9jb2Rt7V65TOZAEIRsZYsomFM8XqopW9F79PGYDghbAifQZUz2QcJIO5noJFABtOQF9+9aUc/+/ET8WJdFz83zm8gSkrCi+DFFNWiAn7YskGERJWkDl2LCY8CJiaHn744QJ9e04IbAZ+8yXgSyA8CXC6JSbFZOiE96vk+haWCvaFwrI3EF+EFbEwNFK8yTbzW/wkQGwbgesE/9PSatSokUUuPsQO4TTSN/r26yfd7+9OJQSqG1jlF5x/2fUNsoIqNMT8unV3i0o9za6nYIJYsnh2mtUjfUmb5z3hrsdZRnC0x2WM4M635Z7wMs52DgRqSMRNRqbORyzHIMp5XqxohhQvXkI3WSzwBbNOLGBv7Rqx3ysyihTR++Nyi9X9rRoZ9g4X5RjEei8qU6asbN++Le+9zimOUzD7dcTrTEVv1dApV668ss7GWobxXge8u1XTJU77cQzXEYR6rJ3oAELfftK1axcHT2RkFJGixYrrkgfNHlHSohG29Lc1uA6QcG0O0Vw/lJkpRYqkyYEDB9XfSB8CD2VArLtb4MWBE3anCvY6E1KBiz1p4iWj+IyBu1BW4srYWpQ59S9YSUUzD+MjY3tTtJVooH+uCmiW9svXPM8oWkwZ/3bv2lmg6yDWe4F7DNgHMtmLMzODgEjUY2yAQYLtJQCEbdtJcc5lr3P2GtvFFIf9ON7rgLVcvlw52bp1S8Lt53mtQ1NYMN4yisX9V8QCIMBSCGkPWQAAglWrVsnTQ4fKVVdepWlMiz//zC7qaKo76jHeOu3baMcq+hj59eubXy+z3pglLzz/ghx1VClp1aploCKcc262wUFoNbNEuh6FDKKVYcS/NxU1nWFNo8hacEW5RJIxm7q7f4rkTaXQ6OZhxDKM8PkW2A6t+BbePC+WUVSKl8SCYAGEwHkmvN/HYoy15zHeC9xjUCSdg0KWHDqUGeMxVi2bcPO8rAKEbYGDUG7rMBn3GlfF3fLGgpBMe42pFKxVKBN/r1mxYqVkZmapPtWlGomLAYAAadCnn36qq33Xzh1Sr359WfrVVzJm7Fgh9QczxYgRIzSynhQnaIPxbfTr10+ZD2Ec69ixo+beQxJExPN9994rRYoW1VS+N2bNkptuusmhKYaQBLIiCIQIqut8Z2fp9WAvgVcAs+mZZ50pzz47TjZu2CAPPviglC5VWgHEgk8+kRtat9YUQasZt4Op9GrNNrPpenXdAUt2uVk1m1l2X8my/zYbuNnKE+q6kaRdgrUgZBio1pvPMbTC3FXWCS3jbPpnG58imsfEHxQvUdIGCAWzDmzfVNzmeUaRdF1RmYcOxXwdWYkR3u8Vuc1zAAIuBmsbyX0d2Pkdlok+mfYadTGkCXVssCAk2hg4WiW7MXBAWXLsNbGxIPTsqXTDn366UOcZi75mzVry9bJlUrt2Lflq6VI579xzVdGXKF5cqlWvLt98+61+9unChfLS9Je0bsHnn38hZ511pny6YIGMnzBBQQQsVNAIP/vsWOnU6Q658aYbZd1v65SHoMX1LaRuvbp6X3gO3n77HZk0aaISG3388cfSsGEjOffc2sqoSEzFq6++KkMGD5Z69RvI/PnvS/FixSyTrK4PU6/ehgYYM+zS6l5c19MIsETjJSwZWsDAXrtmGSTqdXvRKuayU8u0fLyHMox4DIEFlqiTcAwil3FG0aJSomQJ2b1zV4GtA8tyE795XoQgRRHLghDrMTbHiASa5xZAsFhUc1+Hyb/XKEDYgovBwsfJsddYuiZZ9hrLghBlDELPHj1k3nvvyUK1IIj6/GrVqinfLFsmtWrXlqVfL5Vtf21TZkKIiyDWADzc1vFWeelli6O87uV1lWTjhhtay6uvvSZfffmlfPTRh7Lq+++l213d5NxatWXx4s+VbKXjbR2VxIcoViwQDRo2kKuvulr+97935LnnLIBA5TjIflC7h7IOyY7tO7SqGlHNEAi116JMWZJm+23TjEJ28KgdreDRdasvxmsUiNFQA7KNXRL1usZsqdneBjUFJMPonm+b6ZNsDCwDWGTz2ApSLCm7du8suHVgu3fiNc/Ti2SooszMxIJg2wxjMcaO394EP0c2BiZoONIxDP19maPLyPa/tlmgK5d1GNhpkmuvscbQ2mvKlQ8EKToRFx7t14Vlr1mxMhYAoWdPrSVgWRCyZPPmP7RmwOeLFytA+GLJEqlZo4YsWfKlFC1aRK0Ly75eJpdefqks/myxAoaGDRrIos8WS7t2bWXatOny1VdfqoLHDdGgYUNpUK++zJj5mvz221qtZQALIH8obkSpZOiV3/nfOzLRBgiQElH6mCCszl26yEMP9daqijAaAhBwTcBuBZRTm4E5wQfiqY0T3bvr2hcrWFEtCdYxQPtmrFUJe91OCXFnSThZ9okk4+D8GWeMLZBjn0KSZAxU4znHpvzPY1wMJYsXl127dxfQOoj/PE9PDwCEWK8jZG9yAOyAG+/2ihzmMXVYCFLMcx0m+V5jXAxWFoO9T9qLOGH28xTYa9TFkJUprVpGkeZI0Y6XXnpJGfxIQaHmNSf94//9b8uCsPQrOe/889UKgOWAtCqqIHL6B1hAScqAAzAUIEyfrhYEAAIVDTn5wyRIzMFbb72llbE63XGHnHH66QogZs+erVUUoXCljDEWBOiEBw0aJJR6huq4S5cuArUyQOWXX3/VMs7EKugid/mgzT/V2GxrDG+uG6tgICXTOhwaJrhEvW4pJhvY24rGcot4L0OTfpaP5ysosI+UjpcpOcbAxNBEOk+LFisqJUuUlJ07dxXYOnDSYuM0zx0LAjEIdqiJtayiG2ONVLczshJpnjsuhiB5hu5ljgciKKMs8fcaEzVh4XpNc9yyJbn2GutEakLbop6H0c7jvH4fExcD/v0uXbrawS7p6ttPL5Ku6BrrQIkjSsihg5my55+/pVjxEhowhO+T6oQjR4yUdevXqTKfMnmy7N23X+MUDmUeksxDmUrksv/gftm3d5+UKFFcMjKKqTLas3eP8rofUbKkpGcUkYMHDmqZ5aJFARsiRTKKyJ5/9mh6U8kjj5T0NJF9+/bLvv37pWSJ4nrfROJBMCdBt/XAay6JiPNy7dzkAEpIYK6JlOJBsK0GToxZ/vg+CowHwVbO1sEv5Kwb4/zwePAgOOvEtjraOL4AuSQMD4lIfngQkn2vcbIYEpXXJgfenULHg9Cvf38hDsH22jukRNZ/22Y4+5DmmMglTYYPGyZTp06VY445RgMVjz7Grp1gfIXGUKabiDEjBdCXk5alG06amkJsx5v9l735hPF7K1gxcJJ0xXRbp2Lj63XxKLjztwNR8LZPzyZmsm4biBLOVkbRXs9FxtmPgZ1f6k5tC0dGeYxBXmOU83V3gJEZA8NVYY71rjHQ8QghGYlWhtH+Ph9j4MghgnkeuYxtH7lrDDVIsURx+Xv33wH3Sjbz3Bx3DpvHSTAGRYqkSyZjqydqSwaBnSQx1kEs9xqqBG7fscPOyInPXqTBwNns5znt9ya4yr1fW2MQbLlzXw9nnh9zzNFa1dbQg4T3++z2mqBctZTa76Pda1auWC4HDh6MjiiJin9UDYykxYorPVlKf0YiI/83vgTiJgGXuTNuz/Bv7EsgDhKIle6IQ9dS5pZWsaY10fEgRAMQYiVJf7LESpL+fQqTBHx8UJhGO7Xe1T8Uxn88U6aao3FlABTmzp0r11xzTb5KyhLsuG7deqlU6VRZvXq11KxZMyzpE5BJ0Rt4F84//3yhWEp+2pdffqklqEm/pAx11apV9eeUrObeuZWmzs9zcvuuAVekoBLk6TdfAr4EIpcAxG3fffedVD27qhx5xJGR3yiiX3oL+YgDYw+jYi3uDb/lLIH169fLtm3bhIq5XpYfj2ZMUgcg2G5+SJVatGgho0aPlts6dgxbNsuWLRPYGWF5fP3115VcKZwGmRPpk3369NH0SVIv89MognHyySfLaZUqyfvz5ytYWLx4sXz00UcadHnFFVfk53b5/m6vXr2kU6dOcvrpp8vAgQP1PfzmSyBlJOBE89sBH3F+MdKniauyAqaLSocO7WXixElxfmrB3P7xxx/XvY9gcw5Is15/XT5ZsMCzzngLhSJ/LeIkSPu/55575IQTTpAnnnhCs+r4LNFbygAEI+gbb7xRLr/8cpk2bZosWrRIP77++uv1NL5582aBH4E0SHgTNm3apOmQpE5+//33ChB69+4tEyZM0PLVLVu21JM8iv/222/Xew4dOlSZpWBlHDV6lIwZPUY/W7JkiQwePFifAbU0cTzTp7+kFgCeBX00DGf87pRTTnHmBQDh7rvvlrp162owY+vWrRXgFC9eXPbv3y9NmzbVBbhy5UqpVq2a9oFFSd9AoZUrV5ZJkybJlVdeqUDjiy++0HgQLChbt27V1E7effLkyYpceZcPPvhAqlSpIq+88opUrFhRg0RZ4IAF3p3UUmizkRupqKNGjZYJE8bLCccfrymosFv6LTUkkCybbKTS9tL1OHPmTCeYy/SXNco6u+GGGyJ9hYT8HSnn48aNkyFDhjj945BFavr999/vUZ+TY/aik5555hmpUKGCygXwCH/PlClTNDU/kZsChDW/RseDkAgxCISebt36p5IoYd6DBGn8+PFSvXp15VkALGDGb9++vcyZM0evf/3117J06VIlWkLJAxCY3CDjMmXKSI0aNVRJnnbaaWoaQrHz/b/++ksYdE758DMANDDNY3moU6eOKlueBX8DwADT2/Lly2X+/Pnyww8/6PNMcwMEPhs5cqTe75RTTpa9e/epRQKrAicTgAJKvM+jfeSh3g8pIDi7alVN3eQd339/vpQvX05lAIg47rjj9L1xewAE9u7dq/zl1MMAxVJDAw4LAMwFF1wgl112mU5crgOQ6NuoUaO0Vsbnn38us2bNUlNi/fr1E3lO+33zJeBIwEuAgCWOPSS0AdI5hKRSYw/jIIOVxDTcDRxicNd605IDILCnPv3000EiobjhGWecoQe7RG6pY0HIypIRI0dqzQVO1RR/YmFyuua0jKKmnXTSSarYIVZCeXLiR6mj3CdOmij332cBBE7ZGzZsCBq77t276+ewM0LQAYrGGrFz506NWWDQW7ZqKd8s+0Z/B2sjxaeoEwEYwVf37LPPynPPPZcjQBgwYIASToEsKVgFQKGIFaCB57zwwgtqZdD0HhEFOrwHgAYLBdU0MWMBKgAX+ENpp556qoITrANz5syV00+vIm+//bZ0v/9+6fnAAzpZL73kUil7dFl57PHH5fzzznP6CJgYPny4ggwsEWeeeWYiz2m/b74ECkQCHC5YJ6GNInMQyaVSY1/FqhraOEStWbPGo1dNDoDAfgy5X2jDSpvoMV+pAxBEVEljImeSwtbIqRhFedyxx8rvmzbJ7t279TNYFDkVE4yI6R6rAq4HtwUBKwEuA5T8pZdcIgs+/VSLR/3000+qrEF+uB+O+te/lKqWZwMyKG/N57gI+D6n8YYNG6oLAmGPHTs2R4AAWOE+KHyAxb59e+Xbb5ery4RNhj5zsn/kkUfU1XD88cfLCSccLzt27FTGSKwcBiAAYHCf4KbgFEV/ABhYDFD4w4YNl1KljtL3x5KA0r/00kvk0ksvUyvBLbfcoj6zm2++WWXKiQFTKYGMboDj0U7gP8aXQEQS8NKCgHXx3HPPDeonlr0VK1boISWVGu7L0Hgr3Cnsc6EyiNt7Jwc+UKvvU089FSSG6tWrydKlX2uAeyK3lAEIvAinY0zhpqHkmKwUiSIWAFZHfGYofT4/6cQTZf+BA2r+AzyAiu+77z61IOByuODCC+SYo49RpY+pne+fdPLJarqHIhqFy8mcYJOFixbK6zNf17LXlLXGnE8sAIodUEJsQE4AAZcEVgl8+1hAsBrg3+MeuBHoE2AD4IPFAIsEVgSKVa35bY2s/W2tkkz99edf+o4AB6wJ9KXT7Z208iVWiAceeEDdCNwXMAGCJSASFwPWDVwK/KZBgwYKLHje9OnT9Tr957MXX3zRKbmdyBPb71uYEkiSTTbMtynwr7F+OFljwWSvmPzCCynrkiPm4KY2N8kP3/+gVk8OWewhXjU306xXz4zkOcQcoAv4wx6KZZtDFvt0ordCwYNwyikV5ZdfflZqZk7SuAbatGmjp2FiBXJCcZw+MNEz+Wmh/81nBCzSuI9pTAIap4dYNBR6RkaG/qERBMkfEDxABytJTo3+4apwB8MAbAAXJtWG/ob2lfcmdsF8h//mHu73jMW7+fcoWAn4+CD28jf7BBa8ZElni0YKoftJNPfKz2+TjQeBfVbLA+QzFT4/Mon1d2NoQRjk1DawqswF1aSwiDXtVMRIrzvV6wy3ZpA0bD5kq7JS0BUsCAMG9Le4etMIZtyq1oJevR4MUDgr66pdHc9mXTZ1u00FokivB/fGcJRmJyOFIVbfs5Whdf3nn3+RQQMHKgUm6TIBP1b0Mg4suuzSwnKWsd1pR8ahY3D4dcMf76LRjvEY5CbDvGSc23XLbJ3TGEU/BpHO83DGQPsep3nuLhwczjyOfAyil3Fee1E8xsChvY3xPLfeJbCOTB3YZBuDYOXm7zW62xfwXvPVV0vl119/LTiq5VghnmRDk7F6b/8+vgR8CeQiAY95EPyx8E4CvvUr/rKOoQUhsloM8X9F/wm+BHwJ5CSBVN9kvQxS9GeZ1xJI9dnrtTwPf15K8SDMmDFTeQ9gBaS9+eabGj1MVD65uaNHj9asAgL1CGB0N8M/gKkObgNM9/ybtEbux2fxbARJEmtAkCH/z+dvAAAgAElEQVSxEQQ3+s2XQKpIgFgY+EeI/8ElduGFF3ryal4DBJ43f/77smzZN1KrVk1p2LCRJ+9ZOB+SPACBGC7S4Hfs2C5Nm17rCYV+LOZE6lgQsrLk1o4dpfWNraXJ1U1UNmQ1kI5ImiCbEtH4sAmOGTNG+RDcqScQfJC9ACj45ptvNG8Z7gSi/Mn///e//x0Leed4D/pKZgLphqRLEenqN18CqSABUm9vuKGVtGvXXknH4CFZu26djB41KhVez3kHgtDIMCLDyTT+m4OK3+IhgeQACKS5kprOoRPeHDLDOMiGS+cfD8mFe8/UAQgicuuttyrDIXwBboDA6XzuW3PlpekWWQkpflgGoCs2DYAAmRGZApwCLrnkYhkzZqymJpLmiAWB9EOukQEA5wGKHJpkkyEwe/Zs5VTgHnAhPPTQQ0qxOmjQIOU1IJURKwabZIf2HWTDxg1Kc/zkk08q6yKghfRGwAmkK6RLwcdApgJUnffdd68sX75C2ctee+01nWx+8yWQ6BIgTbddu3ZB6bEwywHWr7rqqrh230sLAjwqsCmGNg4kZB1505JDacZEFknyqqR+wurrpqi/5dZbZOjTQ5XZNpFbygAEghQ7dsweIKD4jyp1lPTo3iPHsXADBL4EoyHcA5AisYmh8Dndg/zg1IZgCPZB+AEgKYKvABIliI7IhUbxQ3mMWRVFD80yHA0URIJNkUkDaIDNECKl/v37K80xYANSItwipB4++OCDyl+AhQFLCCRKUEnDyXBOtWqJPLf8viWDBDzYZBs3bqxrwJ3yB7McQJ1aH6nS4BqB6TS0sX+88847qfKaCfMeycKDQMG9UNZJOGiwEpvDbMIINaQjKcWDcOedd6rQOenToFPm5LJ27VotxsQpnIbJk0JKnToFqEJDAQIKnFM8rIsscE4i9957j5QuXUZJhYhl4MQPYyGWgYqnnCJffvWVAoRVq1aplQFLAdYDng0BEs1Qkf7foEEyddo0RZVUf4Pd0A0QMopkyF3/uUtpoE0DhT47dqwcPHRI0zTPc9EhJ+oE8/vlSwAiMYByaMOaBvBNlUYlVNZ7aKOGCmvXb7GVQLJkrqEH0BehjYMr+iKRW+pYECRLRo4YKYs/XyzPT3peua85cXPCJ/CPaomUgubUj3mTqmOc4E0DIHDKhwiI3xAPgGuCEw4AAXcEn8N+Rd0D+MZR0LgDYFbEXEq+KAMOIIBciYnBM3A74Hcl+JANhIBIaIuxUhAXUa3aOfL118ukefPmao3AgkChKAK7cFPwbCiSoTyGrQyaZd4FYOE3XwKJLgGsXhT4MgRi9Bcr3LfffptSlUGJWWL9cwAxjb0CayN8/N40D0xC3rxIyjyF+hyhFS5hq0XfJHpLHYCQJbJ37x41x3/yySfKVsXphFoCNGIOMO+TzYCbgAqUhiGR68QvoOAxg7KYH+z9oNSoXkNNhkRccw2qTPz+ZDXgU4QpjToG/AYgQIQ2pwUUN64C2BoBEFgu5s6dq59Bwww9M33DJQHgADBAt0wsAqcqqJ8py0wthPXr1yu4geyJP4AMQAS/wYLhN18CySABNkOCgpnPgF/WIuvAi+ZlHAIBzlgLAQvsEwQ+875+i70EkgkKYfElRoVDp3Epu/VP7KUTmzumlIvBa1pTFj6gAapmgAFmJHf509gMkX8XXwK+BHwJhCmBZNKaYb5Szl8rVC8btbQiuUHKWBBCiZ0jEUZ+f7Nx4+8yYsRwjU/o0b27HBfnVMj89s//vi+B3CWQLGFe/jj6EjhcAj48iP+s8AFCWDL2p2JYYorrl/wxiKt49eZ5yTiv6/HvYX6fAATi/15bF/Pbz8D385JxtNcj71nC/TJuUYp5yTjhJBG3DqUQQIibjPwb+xLwJeBLICkk4GW8RYELJG4AocDfLGE6kDIAwcwVam9DWNS0aVNNPwy3bd++XTMToGYm6viCCy4I66fEHVSqVEnee/89ubjOxRq4mJ/22WefaeAWJxyCD6GBjlWZ6Jz6AdMbubmxbrt27dLsinr16mkpahrBnT/9+JM0vqJxVI9bsGCBysZvMZaAR5ssiou0rj/++EOD91gzXjUvlSbPgqeE1Gq4Uc4++2yvXrPQPcd3kMV/yFMGIBhRQTwEnwCpjNmxmuUk0mXLlmmUKZkCsBTeddddYUm/TJnSsn37DiU0IqMBcqX8NPgWyIxgM4GSE0ImMhXiCRJIyeRZsW6kd0LwRGroY489preHSfKHH37QlLZoGsGgDz/8cDS38H+bnQQ8AAikN8JNwto0jSwG6GdTqR08eFD3ANKTAcmkUgP8yZjyrHkwnp69Sx4PKkSvWmAiTzmAgEKCuY20Euoo0OC8JtNg48aNmnZEaiEKbOfOnZKeliYj//tfPcUDECA7gaOArARSDTes3yA3tb1JqZH5nIJQ27b9JeS2vjvvXen9YG958cUXZcmSJdKrVy89MQ8ZMkT5FGBHrFq1qvTu3VsJlfhDeiK1HUwDIEDXTCojjSJN8LezoQ4ePFipnnkf+gJBE7zuy5cvVz4HyJVIm+G569at0wJUvD+8C6SQke4JzS33mjlzpjz77FipW7eevPzyywoQpkyZIq++8opUOu00TbEkNZT3X7duvezcuUNrVsDxAHcDoOXSSy+Tc8+tLVu3blUSKvrBMwyYAiC0aNFCSaJgjTQ00fw3AAHSqfHjxsn2HTs0HZX3os9YTkj55D3OP/98ue2221R+WCSgnma84IwAvA0YMFC++26lsBnDCVG8eHGVH2PLaY3fYgXyW5gS8MDdyrgBCEIbViHYRuPdvLIgsD+QRg1hm2mkPJPZBAW8F80/VXsh5cLzjNSp5pglsmXrFt1wOLFSPwHlQioi/AMoOPJOYXWDZwCGQtwDkLhwOkXhAxAgtABE4Crgtyx2CJGou3DhhRfJ4sWfKd8BihAFyekfoAFBCvUZKArFd/ft26cmcRQfCpBnwSaH+4Jn5QQQ4EnADAtH9++bfpfBTw5WNkj4HHCfkEuOUoZH4fzzzpNPFy7UvFqABn2AzAmaZ05ryACmRohbUP4QRk16fpI8M/QZmf/BB3LllVfI0q+WKtcDwAYgwPc2bNigAIv3wrKB7JANQAvrDEVHeA9Inq6+6mq5rtl1+joABMACYIzvAxJwoUA9zUSDCOqNWbPkx59+UvInGCeLlygu896dJxBVQSyFaRb3xObNm/VPvbr1ZOPvG7XoFlwTjAsUvQCZylUqy6rvVinpDic3wJjhrSg8Szi6N/VCeQJ+mbOhzW1piu4tEuPXrEkAqrsxV1nv7Dl+i60EPMC2se1wEt4tpXgQWIjPPEMdgzPVVH/hRRfKlMlT9EQJcQkNZcJmxQkYcIASuvjii/WE7QYIMB9yKne3J594Ut5+521VuCx8gIIbIFDOE+BgzOmcaFFqgBJAA8IeO3asPPfcczkCBEhWYF/D+sFvADWcljlp47tFqXLSpu+jR42W/737P1XimDIBEFC6El/A6ZvfoVCxMgBcAA80lDF1KR7p84haCFASyAUyJ0ihUOzcn/chNgNWSXdRHd6nR4+e0q1bV8E1Y7gfDECgrwAi5AD44vd8j/eGBfLPP//UvgLkcMkAiGj0BUCFhcV8B3DHe1x5xZVqsalXr7589JHFggkpDUAGnnssJl27dZVbb7nVs1LCSbjeC6TL8M0TmxLaYAzFwpUqDbbToUOHHvY6WPSwMnrSCpXWLFQv68n0CX1IyrgYUHK1atWSV199VRUp5m2KKxF4iPJDmXOqBwyY+gooW1OREWuDGyBQvxsfae3atdWSgIIrXbq0nqpRTChJTruYzzEr8j0sCNwfJUd/cAOgNDnh44LICSDgzsDywckdCk5Mryh6+s0p/eWXXpLjTzhBn417ALMlMRaY4TmZsCnRRywAnO4JAHMDBACN6Tv9wQ3BhsUJbtasWaqo8ZdyAgJIYDEwAIE+oKCJscC6QvDn33//IwMHDlC3iLtktgEIlDOF5prf0lfABdYT3o1xQA64UgBtABjABH/DYIkMcCkAwLb+uVWqnlVV/20AAsGO7817zwEIyBp/L++EVQgmSkCO38KTgBdbLG4xgPOhQ4ecTjEfCebzjoI4PHlE8y32Eqx2gF/TALgEZ7IX+C22EvBi7sa2x8l3t5QBCN+vWiUP9OoVVBQGvz3ZCJjGAQ0ABNwHlE8GTKBIWcycnDG/Ay4wEWKJIEYBZclGxukURcfJG3rjvXv3aq0HNjjcDyhDlB1VGlHgKN8D+/fL4337qiJs3qy5vDH7DXVJcILG328aSpnTFRYAwMbDjzwsrW9orZaNZs2aKdAoXqyYvPf++1pnnu//+9/Hy1FH/Uu5vAEp11xzjVoysDzgWjBBiCh2rBgAAEz/AA8yO3B5cALHzI9C3rljh7w5Z45UrlxZFS1BmkwMTuYEBhIrgBWC/nF/Aig57dNv5Ggayh+58Y64RfgdxbOwKLzxxhvKx1+iRHHZt2+/gg4sFWygbJ6MA/TVfBe3COBu7549MmfuXP03n0+ePFlu7tBBprz4or4L8qdKGs+h6ib3gNqaOAa/hScBL1wM9ATXDzEzgGmAI/EjUJ7Hu3nNg8Dhg32HOB1cZVhJmJ/etUKkNv0oxbhPq5QBCLlJigqKuBzcigzFzak+mRqn8C+/XCL9+vUvsG6j2HEdEBiIpSHaRrwE7gTTsHzgMsFqEE7DCgL4I94DAAKoAej4zZdAYZSAV4AvIWTrA4S4D0NMAAKBdYMGEaWcZnGxZdmxtGl2/3Ug+Xdsrgv344ZpWZLG3zwvTf9lXbKflGU/s/Odd2r0vKTxXZFNmzfJ0KefliFPP6Xf1K8Z4A3xmt6ae1p3is11WwZZaYH76+3N/bO7nqZd1paVJUu+/FJ+/uknubFNm7jL2IyhW8YIAvcCVgEyHAgK1GGwx8ASvCVjS5yhMlRKO+u6LeObsQxMmeLIeM/ePZpB8uLUqWGNQWZWlgZO4krCBaLR4jmOYfRjEMt5nNc6yW6eGxmbeW7RBOZnDKylY2SULiKZ9mjFZp7rBqADnP06CnMMYrRXWDJ2MSnmcy/KzxgE9grXPM92HQSPQSz3GrKysjIz7THOzxjoJLLXYWz367zmeU57je4gup87m3rQXpOWni6Zmda1cPaa2O7neY1hmPM8SB8E7/eJsNd8tXSpWqkJglc516hRI4toc4LlwmmY2vv17Sfde9yvg2nt/9YOxD5hvaSj42Jy3Z4O9v11agTAAQrXQil2f5hkgQmmi9i5bg1IgV23wUfADGoBHNwN1rZm7bXxkGG0Y3TYGGSZO9qgJ1FknBU8xjY+kTRLe+nMMRt0EJ7VMbA2p0QZAwfD2uvMjIGhEtbTo9lOg9ZB9vO8WEaGFC9ZQnbt3O3NOnBoj20AqZtjYJ7rkMR4r0gvkiGSlSmZh2ylGdX9E3+vwc2o1jdzuDHrMAX3mnLly8uWrVsTZz8PZ6/R9WmtU/vcl5D7vdlrVqxYqbwe0QGEfv2ke/f7zbHQ2nRdp3nrYOkc62Jy3d67HfDB/bPsAXIsCvbpwfqSDVosRGD3wajhxLgeaxnFdQysY5kD7lWRolSN8kp0GdvLNLDl27MkxvPUizEwp2RrnVmAWGsP5DEGRQEIJUrI7l27zBnNk3XizHO1MMV3r7AAQpYcAiDYLXbrzNrk9B0SZK8hvmjbtu0WsM1lDsROBgHmhYBVK8b7fQ57DangxHok2hgE6Rtb71g60Tn2WRopCfYaBQhZmdKqZRQWhL79+kr3+3voC6uSZnraxy7rdGYpknhe5zlq6XZbL2ybmaW0nPNg4FRYoNdtDGnt445Z1pKRZaz0WobRjlFyj0HAJBjPeRozGdvrzPGN2VgtP2NQtGiGlCgOQNhtrZ0CWSfWPNf5HjBBxmyvyChSRF0onIJitRflR8aOBcqjvQYLwvbtVvxObnuhdZhK7r2mXPlysmUr8Uu2lc8jGUe2Ttz7fXLsNWwIkNIdOpQlrVq1tEBN5C6G7i6zuOX7sgMSbHOK22weu+uWj972eJsNDtOl8as6NteAX9z8QtVwQV93jjW2ycmYn2zflBcytOIMLCtKwLUR/hgVuAzzOYbW6crEqwQArR0NEpEMopVhxL+PYp7DX4EFYdcuy8VgzAgmfiQu68TEP9hjEIhVsA4V0czD7GSYkZ6h46kWhCjvH7TXuNdpFGMQaxkrQNi23YkBCrp/yuw11gwFIGzdusWJeUqI/Ty7dZTEew2Mu1G7GPoSg9D9ft1kiI9JTw/4GK0JavsZVVA2ctVDs7UdRHc9OL7A7HLurcaJygp4aB0vkB02GRyl6KBvS2XG/fe2P9x5lL2QLcNCLGQUrYxz+r0dz2EHyrlNa4ETjEcydMY2sELDngOuoFfnEBvzeRrrMXDF+7hO/vkZgyCA4MU8d60/x97vCkYMAqgx2isyMtKFQNasQ8aCGN1eZIJCA/03J/XEmOdlypS1LQg5rINU2Gtsj3C5cuUtgOD1fh3NXhOIoHaMf7HXibHba2DMjQFA6KsEOrd3ul3+3v23tGhxvTzS51FJd8yetiws34PtCghsB+qKsV3a2V3v1rWbjBo1SpZ88YVcdFGdnH8fCMO1zfbu84grONExOhT89SD1byulSGSUlwzjcz0QFGdHeAQChhJIxgHbSPAcsFyAAd+giRewTtP5n6fxkXEe68SV6mXiKZwg3DzGIKNoUXUx7Nq922U/iv86cdwsdo6Qk/FiPG257AX5lXGRjCIWQMg8ZIxxue41+bq/8S87m5cTultg66BsWYIUt+fxfGt+B3zgAeuq4+2M4RhYrt/w9/uwxiAtTcprDMIW6/iZQGOQ3ToM7DWBIMVAvFbi7jUxAQgPPNBLZs9+Q5Z8sUTS0tOk14MPSq2aNTT9DNPe3j17pVjxYsKGhObef2C/ktocUbKkpKcX0eslSpbQMd63d6/y8x/Yf0C/A5EOJD3Q8Y4c+V8ZOvQpXfCQ9bCP7927Tzc5ExUZmCd2ioztgjCeiIS97lJIdhCCvWnbcNk2ZFiLwaQhmahvZwXai6XgrluBcdbp1klTStgxsE5/jpUoSWTsngMBt4jrHOUG3CZVLJsxwILAuiOLwbLt2zaXMH8f7RgbPG9sdC7kH7N5TF0Q3otTUDzuH60MYv37siYGIdcxNMeSxN5L8trrCFKkAF6sZRi3deBOSEuSvSYmLoaHHnpYXnnlZa1aCGtg0WLFJKNIugKBOnUu1hLA0BN//TVFjPYrHSnUwD/9+KMWG+K/Fy5aqIyBTZpcI2+99bacf/55yrZHxUHIcCA7gj0PNjYq+3304Yeybfs26dy5i7z66msB/6LOKlc6kivS3kLMCX7dnOVUx9uBl3afg3yoiXjdicxNcBkfNgec3MBgP3UiytjtR7ePTpbBI5BREu48L1q0mIJxzWKI4PexWWfxneccQACtmVmH7Jx6w58SALDRrDMrc9O2pBWYDAPPByCoBSGcvS6Z95q0LCmPi2ELLobk3O8Tfj9Py9KifKQIR5fm2Lef3PWfbvLkk4O16BENauCvv/pKVv/4o3TufKdSBw8fPkI2b94kw4YNl/LHlpeZM2bKddddKxdffIksWrRQ2LCgDX7r7belTp2LZPGizxT0t2zZSp555hmlQB427Bm54447pUvXLvLZos+U8veGG6wUDMuVnEA8ByF5sYflJmeXN+sRl0S0PAjBv09grom8xsDmQUhErolwxki3xrzeMYfrnvMgZMNH4uZBiMcYxJYHIRB5kKh7TY48CCmz1wTI8KCyTmQehBz3+8N4EEIyTuyEB8dY7AG3UE57TUx4EODQh6f/0T6P6glszZrf5LaOt8mNN92odQDOOvMsjHxSpnRZGf/ceJkzZ66ULFFC3Q8UHMJaAEAoVrS4XN3kann7nXekXZu2Mm36dF2RpFgMU4AwQp4ZNlTmz/9AywhTnfDFF6dqHYLDeBCC8k5tM30eucFWdHve+eN55ZdHej0Z8mJterxsuCwCwZwFKcPIxjCwIpNtDHRmR5iDb/EglJTdu3Z6yoMQNEapwIOQQHtNSvIgHMarY+015TWLweZBSKAxsGCkHZWVrT6xY98KCw9Cj5495NVXXtXKfo0aNZKePXpI6bJlpWvXLnJDqxtk4aJFMqD/ACld+igpf+xxsnLFchk4aJCcd+556ipo1LixFlmi0BGV395/731p066tUBWQza9lq1YycuRI6dPnEZk48XmBTrRuvbpS+9xzZdjQocE8C0nDg2BPomx5EAqGSyKqHH1NGTWR4vbicFwjBZVjHyzjnPoXoASOP19HVDLOjk/EQLUIeAwSiQdBU9TiwJkSDx6EQJBl4s3z/PMgJO9eozEIScODYLu0HBr/5NhrvvtuRWx4EDD5w88PJz5ugquuulpx1I8/rZaxY8Zqhb02bdvoZ7NnzZaPP/lYevV6UP59/HGy5Y8tMmTwELmpzU2yevVqadumrbw24zVp1eoGtUi88vIrctONN8n4CeO1omKdi+oIoARK6Esvu9SOrzKhZkZJWQPiWX53gI3BcnfYKDL851u+hUh4CKLN747J7510TJPuFYkMAtHOkckwwt/bxF6xzsEnRTXufCC21Tv8efb/7Z0HfFTV8scnBKmBhKYiHQWUquJflKICPhUVERCQqgJKVYqKVAugFCn6ECn6RJ80AWnSFJ8IgoDSniBK70V5tCAJICH/z3c2J2yWlE2yezfZnPMxkuzee8rcc8/8zpyZ31yVUUB4EDzeE50tJiIvnTwF/uZB8Kw/Dg+n4V1P4zxNLMbeY61Jlgch/v5Mvtbo4hDHg6A+CHat8dda4xMnRXceBCdiOkeMGC7Lly/Xn2wh2dx4FNIQA+9o/HfS/VNHJ+PZmuFj8BPhstBInavHDK6X9qrK9TuXRHpik11oLp18HIG6P+0yDhwPgpumi+dTSxDwG0dklX7OFF/zILhzthiPhIw0z1PkQTAOfZl5rYkj2cqUPAhxnCvp4/5xbq3xSZgj5v+hbw91Kbi4EPJ4WBfnNKgsaT76/uSpUxKWL0xyXJcj/rTHnYMlfkfitru6msQtbiEy5DhurHquyDwnvzcdvMpiZ07DjXXexAy6jqt8J8O4DX98/HCa6o97nldP3EzYpYtGwESMuM6c3aIzHZWxOQt0z/RpAIFZ4t24sNxCkXwiI7O98dV74O7glFDPJoBI3s5j7Z6JhvDzM3J/RxPMc/MY1PwaR73so7XCp8/QgzItfq1zfw/8LMMU36NsZHOMgywJ3rMU1pr4Z+By8s4Ma41mrjRZd90WzBRl5OQzipOr2xS5ulfKBGvNpk2b5MCBA+mLYhg3bpy88847bqut/dVKwErASsBKwGkJxCfqcrrhQLTnRhIWiOazQpsbN26Uffv2ZX6AYOdKVpiudow+l0AWeHGylNL0+QSxFWZlCQQPQBCRbl27ypw5c/R55sqVS7kTIHj49ttvldWRQlhl48ZNZMKEDxN97jCuPf/88zJv3jz9/v7774//3dxQtGhRiYmJ0T+zZ88uM2bM0Ot8US5duiQjRoyUQYMGyl133SUbNmzwRbW2DiuBxCXgEECAKK1du3bKfAdJGhFL4eHhQfdUDh06JM2aN5PDhw5L8eIllGEWrhbHikPP07Hx2IYCKoGgAQhIsU3bNtKieQupV6+enD17VhkaCZ88cuSIfPLJJ8rKiALu16+f5MyZU4mXAASYUG6++WZ9EFxbu3Zt+f333/V8i8Xsxx9/lEKFCsU/KEAB9M/E+588eVLKlSun7fH5mTNn9N+wsDC9nvr5YWEEWJhy9OhRKViwoAIZCm0dO3ZM62zatKmsWbNG6yaUh/sBJNBNFytWLL5eIkbKli2r3wN8bLESSLUErvIcp/pWb2+Ar6ROnTr67plStOiNsnPnrvj3xNu60nKdUxaEvXv3SpeuXTTqCvBz+vRpad26tYZrw0/gRHGxOrox7TjRqG0jaCWgAGH/PnmqqYuMME3pnjOCDwKLQNu2bXWX8tBDD+lgsCCcOnVKatasqeCAXQvlt99+k+bNmyvrI7wNPXv2lBEjRsjWrVs1xwMMXR06dJCePXpIyVKlVIm7K2AAAHkiaBMHzffff19YHB577FEpXbq0nDx5ShU57VeoUEGppm+66SY5fvy4tolloH79+rJu3Tpp0qSJVK1aVZNdVa9eXZ5++mnlkwDQkPxq3959kidPXqlfv572AwAxadIkDfd88cUXNbQUkLBixYqgnaR2YP6TgBPKs1GjRspv4lnGjx8vXbt29d/gHK550KBBOh73jcDOHTtk9Jgx+s46URzAe04Mw6s2stJYvRKIHy5yWRD2K1lh0AEElOz27dvVouAOENh5N2jQQJXyvTVrSpPGjZWZkYyR06ZN093+0qVLVfniwblnzx7JkydPvPgBCHAwfPPNN/KPf/xDpkyZomyO/AAWSBAD6OBewMCqVavUzFipUiUZOHCg5pqYOvVziY6OVgvFxIkTBZDFsQYgwlgQypQtowABKwJU1Xz36KOPahvGIoKX6csvv2wBgh9eDlulbySARQ6LmGd5/fXXNc9KsJTnnntO1q9fn2A4MVdipHSp0vL11187M8yspDXtcYrf51RwHTG0aZPAgtCiRQt54okn1LznDhCWLFkio959V6pWq6aK/oEHHtCkFK+8/Ip07dZVLQx9+vRR4XMMcf78eRkwYEACgIAFIfpCtBQvVly+//57tQJcf/31smTJ0viYRZR/5cqV5eeff1bwcPvttytwYBGZMGGC1leiZAn57NPP5IsvvtBdRgKAUKaMHn+ULFlSDh48qN9hHQEgTJ06Vf71r38pAOrWrZsFCH5/VYKzASf0CfMTsO1ZFi1apKRqwVI+/ugjef6FF64ZDu/rSy+9FCzDzDDjcGLuZpjBBqgjQQQQYqVNm7a6e8fkjlLmTB9lzE7/tdde02OFw4cPq/prmmgAACAASURBVLmTXT083h06tJcPPhgv3bt3VwVdvnx5PSbAfI+pcPjw4YKQihcvfg1AwNzPDh4rAs5Jt1erJt26d9c+YBXAMatixYrSsGFDrWvBggW6kwA0DB06VL777js9ugDIGIDAkQjHB7NmzZI2bdrEAYRScvDggXiAwHECRxdYIyZPnqzWCXvEEKA3KJM368QRA/46MKni12MKR4FY3vztO6OENEoc6P9z+QsXLsgjjzwiK1eujB8n1hPeTayOzpSspDaz0lidmT2erQQRQHD5FmCKZzHASZCzf44GULq//PKLjh3nxDJlysiNN96oPgRQSW7ZskVN/VgBKDgq4h8QFRUld999typj98IC4B61gBMj91Lf6tWr1Rmrbt26ajXgXqwQFy9eVL8DkloBXDC5YtlgAeGoAQdEwAmF+ug399SoUUP7gsMl9TKOW265RfsMEx6OjFgTABS2WAlkVAnwLhGRA5AGNPO+AKSDrfDOsmnYtWuXlCtfXu6qXl3fU6eKE4DPqbGk2I49YkhRROm9IGgAQkadKwAEFLwvvZixfAB+ACksusuWLZNbb701vXPB3p8VJZBRXxwfPosspTR9KDdblZWAHwGCIfvWfLRupJJG6Gn83nBWxicu8KjfjULZlfyI4hb64/59fKKYuDTPeql7PgGTSCbt3x//47j6JsSbUuPrd4nExXLrVr+aROPMoe58tB4W0vN//SWHDh+WwkWKSOGChXwr4/j3IolnlMgzUGpWE16VkZ6BmQPuMvZ4BnFT5CpPdJLPwIfzOCUZu6bt1efq/rv5znQ8pXmerAxcY3JRY6d9nid9fxLzPFXPII1rhTcydn/4Sck4k6w1qX4GKa417vM94zyDzLzWeE4xfckTXe8zxlrjR4Bg0ZeVgJVAhpdAFjjGzUoWhCzwODP8KxVMHQwqHgQnHJG8ffgsShAYpfecFYIkfuBnsMVKwNcSyErK09eyy5j1ZR2IkHVGGriZFlQ8CJ07d1YOAUOU1KtXLyVCSmsoFaGMMCiWK4fzYKzyIxCdABdBcoX7SpUqpdfhsPSf//xHIx2gfKYvicWEJ1UfNM4AH0hYcHq8fPmyxFy5IvPnzVNnRc+CExix5R9//HGqZxV9JIV2asuQIUPUB6JZs2bxt+7evVvuuOMOjRjBYdPbcu7cOXViYxyehTER8QFXBaGfKT0Hb9u01/lfAp999pmMGjVK3yFYS+EcYX4EW+EdhyCN95/Q5B49esSvR46MNStpzSzgP+PInEmmkaA6Ynj22WdVgUCCRIHV7OGHH1alDAkRntSwukVERCg1MqyGRDSgwPgbNkTCIgEaFBQ90RB4JlOgRyaEkqgDFF9kZKTce++9SqtKDgjCE4lKgLFx7Nixyr1AnUQvwIFAdALhlyhioh0IiyLqgj4TBkUUxg8//KCRC9lDQ6VS5crKDkn4Jc6ORmlSP+MhNJIQstmzZ2sYJvWyKMHhgPIkUsOApR07dihQIdwS7gdi0JET7cLjAKETlLiQShH1QZ0VypeXB+rW1agOoiwAOy1bttQx0U8WeuoHvOA0afJdIKthw4bpeKiLtiiEm+KsSfgnIZwwQ+JwiSz5nfuRKWGmPJtatWqp5YTQVCI4oK3t0qWLRpYAlmCnRJ70m+eKDABfv2z9RerXqx8fFRLolywjt++EPuH5M+dM/hLkwTwggohnGCyFyCJAECRmzFvWiZ69esnLvXvbueiHh+zE3PVDtzNVlUEEEGLl2WeeleYtWsTvLA1AgGwIxQmqnz5tmixdtkwV+5tvvqnKkZ04QAJF3rt3b83V4A4QUGIcF8yfP1/eeOMNgYmRMETITxo3flIaNXpSyYsgLkLxoXRhRpzy6RR5stGTCgwADvwLKRMLCcAD8qVdu3ZK4cJF9D5+4DaAIwEFT/9Q4sRRFytWXHr27KEWBPJLcA1KHXpmLAbUDR/CM888ozwL0NiOHj1aQQqghh0+5EwsYG+9NViGDh2ifYbdESBBjPpjjz0uy5d/o9eSvhslTX8BFfBEtG/fXkHI4MGDVU7UD4sjkRTuAIE+8jdgi/h3FDiWmNy5cyv4KlCgoLaDPAl3Gz/+A1m5cpXKGGsEAAFQhPIfOXKkgit2ZvBJdOrUSUEHzwyQAL9F3759lbdi7ty50rdfP+napYtgPSJ6xOSuyFRvpYOddeKIgTlMpI1nAURDHObP4iQPAusG4Nw9Yom1AsZI3kNbfC0BCxF8LVHP+oIIIIhAdUr2RnOkgDLhd5A8Lym7TJQwCZX4l+MILAcoV3gEUP4mi6MBCOxssTAQhYC1AQVGVAL5EU6dOqmJWEjKgqLEInDnnXcqARIKi104yjYxgEBdAJetW39RhY25FYXHffAasLuCBRIlipJkdwxpE0oUsiX4HLj20QYN5OmWLZXtEYZI2oK5DhBB37B+sPOmL8Rms1AjJ3b+XIc5FNkw/tq1a8lLL/WQrdu2yZDBg/VeFDhjRtkDCLBY0A79g/gJEMYO3x0gYKkACPR++WWZ++WXOjbGAGU0YAszM/kxsDAsXrxYfv11u/z003p9FtQJQMBqAajgyAFgQV84wvjoo4/k888/12vIgwEQo23GhvwATICYxo0bq/xsCbwECMeFmMyzAGyZe8FSyAKLZU1LnPkbqwn8JsxzJ4oTgM+JcXjVhj1i8EpM6bkoaAACc+XVV19RszdmaAq7XxQTCubvy3/L2h/XqpJFcfbt11fef+99PXbYuXOnmq3xL3CnhPU8YnAXNBYEFBpHCyj6/v37q/Jkx8yOPyWAgOKF9AiKZxZJzOm0x46Ys3bO8FF4WDZQelAyHzroOpfHxI+CR+mzq0dpXrh4Qbb+slUBETsZzunpGyZ7ZMIxANYJFD2KGhnxL0cX3M+5P32gfcz0JK8CdKDcsVbQJjt1rBD4KQAM2LFXrVpFjhw5mgAgAL5ok7qREXWxk8KczDENIAELDvkusNpg7cAk+/bbbyuwQfljJaA/nOFCLMW/gD93gICcOMrACoKvBpYTrBfIjvGya+O52hJYCTDveLaeBWWKZc3fxSmlydEfR3CehfUmsc/9PW5bv5VAeiUQVABh8+ZN8mTjxvJko0Z6to9Sw8zMThOljVJCkZhzfs68MfejYNidpg4g5JWzZ8/ojh4Tvpq4v/xSXunTR+6rUyfVAAGnLcDAfffdJ0uWLJYWLZ7WvrFbx0kRUznHDix2mzdvVkpXgADHDGSA/P2336R4iRJ67AFYwQoBgDgXeU5Kli4pbwx6XZo2fUrGfzher2fBZuHGgoBFBQVdq3YtWfHdCgUL+HPgM4Cyx2RKwioAAqyQy7/9VtP3Tpo4US0FACNjQUD5AyoATYZeFqCGyZ9UuEePXAUInE2z28csi+wZG0mzDEAAuPFs8D9ABozNODECPpA7z5BjFfrFkQiAqWPHjlof1iD6ZUsyEnDASgvwbfxkY1m8xLWL5lliPQDEBVPBWvDCCy+oD4IZJ1YFpzI5aqN2Vx1MUyrgYwkagGAkyW6Ts+u8efOqEkPxocQxvaNc2LFAd4xSw1EwIjxc7rn3Xt0tkwyJna8pKCzuYyfrWfgcwMFih4IFdODjgGUAhQY44XgBAUPjjGMe/5JSGgWKkudfLBhkfaSP+/ftl6I3FVVzJBYKjitMBADn+JjZOepgJ84RBYXjE6ifGRP95Brqw6x58n//k8sxMfG5GljAUNYcD3Cuz7UofgABBYsG/cfqwHhohz6i9Dk+4ZgDmWAupi6UNxYCjjvoL2my+Rt/Dxw2TeG4gHFyFMOOHoWBPAA3yAcwhywBBHzG84Namn5gPeH4gEKbHF+g9Hm+BQsW1HvwnwBY4XwKUNqxc6eOj+dhS8aRAM8aCxJzAxDoVHHKgmDGg1WQOYufDFYtJ4sDeM/J4di2AiwBR3kQ/Pmi+rNuFzB3Zzv0/VPjHL9Jkyaq9AAv8+bOkyLXF/F9Q5mkRhZYQlQ5zjA5KjJJ16/ppr/nTmaViz/7jcwpGYkbxZ/jNXXjlBnPaOpEgwFsw4Kha4Xv67XGLzwI19AbG8LjuKxqV+mF0bwumldIkc3UTtP3sbESG+J6NdJ0f0rtu9WvgEGfjfvLmHC6pvV7dtckd0nr/VcXCrf+ad9dTMLpknFKMvLp97FyJeaKZAvN5qIijZsjbnzIvpVR3PP0ef0KLH04z30sY1emw6T658qE6JJ94rzfPp2nPnwGZqH0y1rg02dgKK7dnkE61hrXCYNv1qJE1xIvnpFrJXdgrfGDPokNirWGJZM3Np06VWJl48ZNelyM/5cC7mrVqsUSs0yInTcFkz6e5ITF2WIlYCWQuSQQ7LswX++oMtfTDfbeBvvsDfzzc/SIwa/DjY2VI0ePKr8AxEUUzrY5q+azxEp6F4+DBw5IySTOuU3aV3wg8D1wLh+8d1LG5wF/BgiUMOGnxhTLEQhRBrAZmoKsGWtyWSs5fyZygrbxM+CMlnbhYfCmmD5z/ICDYnpprL1p017jOwngL0N6cp63U+9Det/xtIweHyTeB3hJLEV6WiTo7T0WIHgrqbReFzROikyV1q1aqSOc8fyHhAUv+cSolnEERMnBVJjWAusgnAeeBYe+2++4Q+68/Q45HxUlJ0/+T8/SCbd0qmABSsoKhL8D4YJ4kuMECTcCjobeFhY/nA0JJzS57nF+hCcBp8KkCjwTREeMG/eB7NmzW55/vqNs2/arRkd4U0qUKC6HDh1W8iiiUXBKtCVzSIBwVMJlcVYlImfy5MlBSZVNBMPChQukRImS6iyMXxFz3rmShZSmjdjw+7QKOoCA9z28AoQXGYBAeCCggcES2YCHPOFwuXLmlA4dO6pHNR74EPAQIscuBxIfdjqECuI4yOfsWAlZImoB0PHSSy/Kd9+tkClTpigJE9dR8PKHpRAeAhOeR4geu14IiYhw4H4sC+w2aBdgw46avtFPFDaREpA5EW3BdXAX0AfCDwnfxPMfPoQfVq+W3Lly6RhR3ChrIiAYP3L4atEi2bhhg9xww43SuXMnBQbr1q+TL+d8qf1p166dUimjdFH4/I3yJQyRXT+LOuRKxjLDGJEpbIo4EjIewkSxCsBjQKQGwIOoCkidsDjwU6JECSWZglqasTRv3lx27PhdateuoyCF8cIjAcERtM6AKnaAXEv0QounW8ia1WvU6kF7WEA+/fRTlR1nZESgfD51quTKmUsBCOGcTnrL+/1tzaQNfDplijzXvn2C3rOzJpqmXLlyfh2VkxYE3ntCa2GIpNA2oci8w8xrW6wEMpsEggcgxIq0bt1KlYsh+4FWGAsCjn8QIBH7Tzw+MfOzZ8+S3LnzKKMfihBlSlgiIX3sdtilwjUAmQ/KGGUF3S8K9N1331XlBkdA+fIVJE+e3EphjMKiQNaDoqewgwA8EBIIcIFFEKsFAIU62UnxGcx/xPSjYPHnKFy4kCpO+oUSRJEzNkIPqQcA8uqrryoR1Gf//ky2/7pdeQ2ohzGgnOFWAHRARgQvAnwDEA4BBgAZWBGgUcaiUKF8BRkzdowqWwiIUNawSAIaUPIoWqihTYFzANlwLZYKWA85zkGWyB9qZoiK6BPygCgGEICyZ0yQJxEayY4LLgW+p4/stqiXMEXahdiJthgvIZeEZd5bs6Zs2bxZ5QUYAhQBOjh64JouXbtK4UKF5KPJk2Xd+vWZ7Z10tr8ObDiZf4lZ2iAtY64ES2Fe847w3pgCwOYzNgu2+FYC1oDgW3kmVptfohj83+3EW0BhQB+M6RsmQeLl2WFDV7xr124pXryYJjwiGVKZ0qUlLF8+BRDE0EOVjOmcYwAAAHH6KC1yNRB/DzAwaZc5S+UMFQV38eIFiYw8p8rRFI4Y2OkToz9n9mwZN/4D+Xb5t6ocUaTsztltA1gAKyZfArt0dvwABAiM4DbA0sBuGpY2mBSPHjuquQ+I8UfRo7hZkOgrFgXD0PjwQw/L1998rbsYFC8ERFgisGTANUCiJ4AQ/YG3ACVL/DYFUAGbItYBrAEoaawkkA+Zgj8AZEXwOQCy2D1BEsOxDZYXlDVghXFCiIPCR/mjELA8YJmBvwCAgMmZnSSgy+y8AAcAMq7BysDz49kg+5IlS8jmzVvUdwIzLj4m9R+sL++NfU/zNdAnfCFuufkW2b1nd6CmY6Zo1wF8oNYk3iPPwvyH1CtYCkA3MVIkNgisQU4UJ56nE+Pwpg0LELyRUvquCR4LgsRK61atFSCwe3788cdVUbBDh0WRs3GUKAoHsz87GpQ65nTM8Zg8TfIgdtWYtAEO27dvVwsEJn8DEAwA4D4iPojkwEJhHP0wK0KTbJI+ofjpDzt6LA30BQWMSRyT/6uv9lEli8WCc3oAAtei+FF4KFkAwsGDh+TChWi1InDkwW4ahckY+RtwYEiZYGVEyUKHjAWCnf7EiZPkhhuul7vvriFffDFTaacBCGpBqFBBjwoANihszL9YUQAHtE8iKneAwLTDGgMAwepAOl+sIlhMGCsAC4CDlYMxQ+yUFEAAnGBF4dolS5dKgYgIrQNyKJ5RrVo1Zc+evSoPZM9RBSyTEDxxFMTRDjIFCNFnCJ+QP0AHsGhLYCWA9cczKROAm3nFfA2WgoXMZJI1Y+J9wiLGRsSZknUgQtYZqTMzJ7FWgggguJwUDUBA6cFihiUB5cQZNS/vgoUL5dvly1WJvNb3Nfn5p5/V/IdSBgyEheWTmTNnqGIGIFAHO3YSHrHzNWlcefGNkyI7Wdox54ywMrKbZ8eLogJAAFJQeP3695d6desqAOEzztPJa3DTTcVk48YNmvoYZ67EAALWD8bB+T+WBZQ/RwVQSRuAcHu1arLlv/+VV155RZUn5k1AEIqbXT7gCUVsQAr/IqsOHTrIlZgY+fPECQVMKHUsLckBBMAWRyeALRLysOCbRFA4gTJGjjSSAwhYJsgOCUBip8WzwGJStmwZ6dWrt8yeM1v27N6jTJeABerC8gH4mz59hkyfPk2BgklnDdCxACFwC0pSLWM9A0QCaIlk4WiMueL3AqeAg4RJzGXmKKytAGQsk4B+W3wvAQsQfC9TzxqDBiCkJCp2ulApY/42O30c55IKgTT1sTvmKCE1Xv7mXnbFWB3cw/gwzXM0QAgU/QBYYH7HxI4DJab/lBzrGAugg3qN30Ni48eZkuMMnAxp132sKFzG5R7eyKJGYWFLa0lMzt7UxX2c15r0zMgNOWHNMQVfBop7iByfcayB86MtqZeAk4ssljjeCZ5pasJqUz+qq3c46aToPk9Za7D0Jfd+pmdc9l4k4OTszZoSDyoeBBclXOYq+AV0f/FF3b1jtUgs613mGpHtrZVAxpFAIABCxhm97YmVQPok4DMLAopNdwVxJj26ZXYJCXjRffC9JxC4Sqfqaj+x72EfjdX/JewXfVQc6tD37jzpCRavuPaT/R4KU4dk7KLQdZNVnIxcHKpJyzil7wP1DHQw3sg4JCGXvfsz8vU8vkbG7vkDEjGNm3makow9v3enHXZqnif2nqXlGXjmVHD6GSS1lnjzDDznjl1rXBu4FJ+hl2sNa4mLVTrhxtDJ9dxX89zIxV8605u1JrH1fuOmjcFBtWyNTelDivZuK4FglIC1IATjU7VjckoCPrMgBDoXA5uvw4cPKQeAKZy/m7TIvhYoXv6EUaZE90u4H/2AiCk1hQgFqIwNU2FS93KuSxsmZXNq2rDXWgk4dYyLosYZFj8X/EVwVAzWgn8QfjFE17j70ATreAM1Lhvm6H/JBxUPQqdOnTT0zzj5Vb+runTp3MUvUnz4kUdk9qxZGqWQXIF8Cc4CQqBS45hFpALhi8WLF0+2fgAREQxOxVn7RZi20oBJwAnLGw6nnTq9IBcv/S21atbUkF2iguD8CKaCIzCcH+6bpf4DBsjbQ4cG0zAzzFgsQPD/owgeC4LESudOnZVLAIIeU6AoJoYf1kKIeKDfhZyHcCt23nAB8INFAKZBYvKJ70exm5BD2PngEZi/YIHUrlVLr4PghcWARQG+A7yWhwwZolYFU+A6QMkTsw8bIHH5kCLheU8YIBwKsCpCVASzIGGMhAXCPAdAIHYcwEOIGN7f9IHfaY/oCkiPCMOE2In+9Hm1jxw7fly6dOmsddhiJZARJEBYapUqVZTbwhTmOeG3yeXuyAh9T00fAOnua4+5F3bRxPLBpKZu7691AvJ53xt/Xpl1RupPKSZfdxABBJHOnTppLD5mPSbP+A8+0J01jIbwCvCSomBh8YN0ByAwYcIEVerwABBDz7X58+eTGTNmqpKlLsIFMYvCtAjd8fTp06VK1aqybetWua9OHfnnuHEax4+yhnvAHAvA7jd0yFBZuXKl5lKAIpl2CNMz7UKiQqw0iyhmV0IeMcUCEGBTfOThR2Tvvr0KLAAShCYSrgi4gF6YsEjCI4m1BmBAcczfgBJbrAQyggTgHwGkuxeAL+8FVNx+LQ7yIMAkCn25ZwEYQaFui28lYAGCb+WZWG1BAxAYHEcMnhYEFDoRFuxgUMbs5GHjwwoA86DJIcD9KHHAA8qZs1L+JkERnAHsdLA4QDjETp5jDJNsZv/+/ddwB2AlQOFDnsT5K7kNSAKFAqcOwIrpGzwF5DOgPn7nOhZVFhusG7CwkWAJiwRtQdBEwXIAHTKAgCRVEByRZhqiJYCQLVYCKUnAiUWW+QtttmeBLAnSLn8WJ50UsYpAWuZZmjVvJrO+mOXPYWbRup2YvVlUtHHDDioehE6dOwsUwyhgUzDDs7vnaIG8B5jm2b2w44aciCMFGAkh6EHxw+bHUUBkZGQ8QDh79qx8OGGC9OzRQ83+WBwGD35Ltm7dpiADhkQsDbAnwmyIXwK7fywPMKtR6BdKm50EmQgBMgYgYKmAEhgfBZwq8SswPghHjhxRimJIV2AmpK/kUgDY4NuwbdtWqVPnvvjETDg2QsKEk5QtVgIZQQJkK33mmWfiw9voE8RjWNv85URsxu0kQADAw77KsaMpWAtZZFknbPG1BCxA8LVEPesLGgsCUwUFjln/iYZPxI8TszyZFVGovLjQ8JJUpW/fvpoLAbpgduClSpaUS5cvyy///a8qY1j9iBDgd44WYC0EOHD9vn371DIADTH0zJj7YR/E8Qo/BArAA2pZ45NAXgQoWKFl5pySnT9HBAAVjjoABfxwPEEeA85nx40bp+3jqAi4gWaZRYj7S5YsJQUiwmXqtGkKPrB8ME5ADxYSe8Tg71fH1p8aCTD3sWxhlcsbFiYL5s9X4B5sBQCP0zDvIFTrWAHdNyzBNt6Ajsd6Kfpd/EEFEDIfj2Lyz9ckQsIyQa4BW6wErARSJwEnLQip65m92kog40vAJwCB3QEOeIEswWhsYheCrwO7EGiYbbES8LkEgvHF8bmQbIVWAllTAlii//zzhDRr9pQKIKRatWqxmMxxmvOm4IzHOTnmtMTi/M36kxSST8v37lSdid2f2PfuY/Gkb/Ucp9Pfe47hGnpZHkwcRalTMk4gr0TaT80zSGweOS1j04d42mF3WmO3tC/u37vLOi3zNCUZpvf7zPYMMuM85xkloKr2eA/tWpPw7fbHe5LZ5nla1hpVvnGU0f6QYVrXmpgrMRKWNyzeCT/VAMEbEOHtNWYieHu9vc5KwErASsBKwErASiBpCaSGoC8lOQYUIKTUOfu9lYCVgJWAlYCVgJVAYCRgAUJg5G5btRKwErASsBKwEsjQErAAIUM/Hts5KwErASsBKwErgcBIwAKEwMjdtmolYCVgJWAlYCWQoSVgAUKGfjy2c1YCVgJWAlYCVgKBkYAFCIGRu23VSsBKIAtJALp3GF2heCe7bLZs2ZIcPTlWyA1DKDnsrGSXpZAbBpbX2rVr+0Ryu/fsljmz5yjLrCmk6oalFap6pwqMt9DJkzYbSnpbMo4ELEDIOM/C9sRKwEogCCVA3hXSyaN8KdC4Hzt2LMmRRkREaJI28jpAD79y1UrZtXOXUrAXKVJE6d/JF+PKJrtdbr75Fk1OR4IsQAQZZDdt2qR8NeTAILskGWNpn3wuFHLE/Pnnn5ofY8CAATJjxgwFIuSVad68ueabgTRnw4YNmnAuNDRU74PKft68edKtWzf9jLwbZL5FsQMsyDuzZMkSpaYHFOXNm1frXLBggVJSk1V38uTJej2kcJRZs2Zpf8aPH68ZPwFPJLeD2h7ZtWzZUj9bu3at5r8hgy/1k4gPqnpy3JAHh6y7tI+MKITRz5r1heTOk0fp+BnT6tWrhSRbfEfGX3LgQIcPgyDjfe6555IFb95Mz9ioSLn480LJdX8bby6/5pqY47sl+pvJEtZuZKruP/NGXQnvt0hCcuVN1X3JXRxQgPDrr7/KhQsXNd0yOQX++usvfYhly5bVPAWQMpEPYcvmLXLrbbfqS8VLw0Qmd8LOHTvl0t+XpGLFivoimInhPmDq5GUCuXuWn37+We7+v//TiUeyI/IrkHzFvTCReLFoN7GyefPmeISfnKCT64e5j2u2bftVatS4W9auXSeFChXUlNQU+lewYEH9HbmQCZJU0ciJLJK+LNTN4mOLlYCVQPolQE6KQYMGJaiIDK7mffZsAYDArh5rAcnZmjRpqoqVdY61jIyYn376qbRt21amTp0qpJ1m9836QZ0oVn6ef/55zWhL4qyJEyfJsGHv6Pdz5szRdQPlTR4Y1hPaIw09LLkoWdJ1k4iO9ZD8MfPnz9e8GgAM1mhyxbD29uzRU0EG6yOEe9HR0QqGAAG0TRZdlC7p7klkB3AhZX2fPq/JyJEjNHkXipncNfSfNQ2LAuCGlPeAB3QApeXTLWXGzBkKNMiDs2LFCgUM5N3p3bu3ApSuXbsqgKEwBtbPAwcOSMlSJWXN6jU6trZt20npUqVkzNgxyghM9l/Ya5ETyf4AHukqV2LkyvnTki1f2tZlAML5GYMkf68ZqerGmYF1JLz/YgnJkz/R+9au/VEKFiykwAx96U0JL9FCiQAADfBJREFUGEBA8YKEUW5QDBcoUEBy5MihqHTr1q2KOi9dvChFrr9B8uUL04lcqHAhnUQVb6sox44dlQsXLklU1Hm9h0nOwEGtpGvOnSuX5MufX1MpM2nz5MmjSBfTXZEiheXw4SPyv5Mn5fHHHlM5ff/993L//ffL8uXL9cUBhOzdu1fCwvLJkSOH5XLMZa2nYIGCCmBA5BT6DoDgB7QPKud3xoVSZ8KDfiMjz8npU6dk1+5dajrk+7ORkVK+XDlhQaCQf4FxVChfQVb9sEr7i6IGVbNAlCxRQv48cUJfVF4gXgwQNDsLEDQAh+yOoHHaPX36lISGXifnIiPlfNR5/Z4XmeyP7FDISMl9hjmOvwFhZLasW7euN/PHXmMlYCWQggRQciRqM4V3kDTtrAusFShMPmPnTmE9YOfOmsW7irJ96KGHJCo6So4dPaYAge9JOrdq1Sr9DisA6eBRmNTFegl4YJ368MMP5c8//tBEbxTSbrPrpn3qPrB/vxQrXlzX42nTpqkSRWG2atVKE8ORut6k76ZdwEjk2Ug58b8T2g4KvX///goaWCPZ7KGcGQegBnCA4mWt5CiBxHSMH+DA2kUyvGXLluk6R1bc8PBwBSvn/jon06a6+kzh2GPmzJnSvn17mThxoh7V0P8Xu3eXESNH6ue0ARiDLIg2ScdN/wBEjIXEdwAJ2gL4LFy4UC0XbBJpF/1iMvKmZmKfHfKwhOSNkOtuu09y3PW4RC96T3I/3Fmil/xTwjqO16rOTegoeZoMkAvfTpYrZ/7Qz0LCi0hY6+Fy9p3HJCR7DgktVVVyPdBOIke3kNDit0ls9DnJVqCo5Hthgpyb1AmzCBSM/CdhnSZL5PutRC5dlJDc+eXy/s0SMXhVkgDhm6+/kVy5c6luQL96UwIKEHbv2i2nz5xSJQwyRXHyoMiMePDQIbl44YKa4zCbYUI7fvy4KvhKlSrpi5ItNJsqOhQ2ChyLQpHCRXRiMTlRntxPymcmDveTLTHq/HmpVLmyTnxjMfh+xQqpc999+iIY0xempxN/npCIAhGyaNEiCc2WTZ5o1EiwGjDxeTnzh+eXwoUKq8CxiPCC7ty5S6Kjzkv+8PD47I4o6ZOnTkt0dJRmjaSQ+ZEXJSwsTJU06Z1Nv0+eOiXXFymiAGH9+nVSpkxZ+eP4cbn1ttsUwYdmD5ViNxVTsMBLBrgIDc0uFSvepmCHcTN+dhzUD9hBBqSh5YUBDFAPwAxQA0oH0DBmzHrVq1f3Zv7Ya6wErARSkADvXa1atXT3TBn0+iAZ/JYrLXxihTWAd5INEwUFCwhA+WI5TQwgNGjQQHfKHAGwPrJRQtmzU6xXr54eE5gsk2S4RQFHhEfozpoNRadOnWT48OGyc+dOXWvff/99NdlDu/vb77/pWsHmhfUBxYt5fuzYsbJ48WJdn/GVwOzP0cOIESN0vcRaQV2VKleStm3aqkWE/rGmoaRZP9koGYCAlZc+s6bhrwHA4QjDlIYNn9D1jeMQdvn9+vXTdYs1nPYfeOABtR7QV8oPP/wgEz78UKKio9WSgSWnRIkSatkAjLEuAjBonw1h06ZN9T6ToTc1ExsFz+6dEvPHPoma/67k6/ShnBv3rORp8YbEXr4k0XNHSN52I+SvT3pI/p7TRWKvyNl3Hpf8/b6Ss2/WVeWu9x/DgjBQ8veeKbEX/lLwEN73Kzk7/AmJGPy93nfq1buk4Lsb5PQrd0iBUZtFQrLJmQF1JHxA0hYELDXIGF3D5tObEjCAQOfY3bMTptPshpk8KHOQHMjaUEYCCvieF4QJzy4ZZcbvoGBAAoqfe5kAu3btlhw5rtMJgOJm0rN75sUDUQMoUJihodmkYsVKKicULOYolCMTlBcBhY9VAOCCVYP+VKtWTS0U3I+SZbcNqLt06WL82aJR+rwgjI+XhM+4D3AAmMmdK7d+R38ZA6if73lwvNx//31ZLSfIhgnMi8S9LBDmOsbDvfyNZaFM6dI6Xl5YxkhqapPKOnfuXJIvX35F0tTJ7oT7WIRYwLAccM/+A/slNFuojhk5+5K205sJaa+xEghGCbCe8b7zvgHekyu8i1xj3j3eU9Y6FnbAPaCfdeLEiRO6LpjjCtY2AD+KnGv5nTWTowh23mwYTAGAULBMci3rGNfzN/WxBnMN1lTqw5JBiYqKUkXPpoT6GJOxSrLGsQljbeF++s819J91h3v4jH7yPT+qEGNidA2iLeqmP2ZjR59MYSzUY9Zy2kIerHGs2cgNPcG6T6EePsPCjLxol3WNdZTxoG/oA22gT9AzaV3zzg57TML7uQGEBSN1139p8zK5fHCrKvXsZe5Qq8C5MS0k9IZbhBwMcvG85Ov9hZx9q75EDF55FSDMdB0xxF48L2eGNpCIvgvkzFsPSvbiLn0VG3VG8r82PyFAGFhbwvsvSdKCgHWEZ4Re8nZdDyhACLaFgEmOAmfyMZGZbExcb897UpIHLycTHlBhdhcp3WO/txKwEsi6EsChD4WJtdIW/0kgKYAgMZclcmxLPRZwKfwo/Tu831dqVbi0drbkrNNKzrzxwFULgvogDJT8vWbKlXMnJXJUMwnvt1DOAhSG/iByJUYuLJ8suR7qJKdfuVMKvLtRJFuonEkBIKRl9BYgpEVq9h4rASsBKwE/SoBdOztfb3d6fuxKhqmaDRLWiYxYzk8fIHlbva1du3L2D7mwarrkadhL/77403zNj5vz7kb696VNSyV6+USR0OyS+5EXJUel++WvKb0krP17LutA9DmhvpijO0Sy55A8jfrIdRXryKXNS+XCNxMlNiRU8jR8Wa67rZZc/HmBRC/+p8tCUaqqhLUbJZL9qqUovbKyACG9ErT3WwlYCVgJJCMBTNrPPvusNGrUSM32mMrxI0iq4GzHjp8jBM7rcepLT6HNYcOGqc9Aasubb74p/LgXrKNELuAk6VQhaoMjX/wkTMilU21n5XYsQMjKT9+O3UrASsDvEvh62ddStVpV9Vmi4A9AVENS1gHAAaF3hA3iR8RRZZs2bfTsnOgAwhQ5OuCMneiBgQMHKujAs/+1117TNgj5BhS0btNGPd8JJ8SZDyc+AAORDUQp4GOVK2dO+WTKFHXkI8KBYrgJDD/AU089pX4BecPySs4cOdUHi6gCnLq5BudyQ/70aIMGqsQnTJyo4Zhcy+6ffnIOfs8992h0Ab5SW7ZslmHDhqtjI74IRGIQVYDfQo0aNTRskYIDIt73+DHgZIkvAY6WgCmIpagPnwJCI/mckEUcL3F6BNDgFIk8bypaVJo1bx5PyEQkBM7qHN1SB2AIXwXGj8NlvrAwubtGDY3qov/4f1Cnr0PL/T4J09iABQhpFJy9zUrASsBKwBsJoKjhFDAFvyS8/HGOM0oRnyJi+Skoe3gHABI4OKPQIyIKSJ68uSXmcox89913GgGwefMmGTTodZk0aZJcib0in//7cwUOkBJBjtSwYUONyMLhGuXX7pl2sm3rNlWiXbp00X+5FkVqeBDmzp2rjn/Vq9+l9Xfv/qKMGTNaQcmBAwdl3Lh/KiDAgoCzIP+i0NesWRPPFUOfqRMAQT9QwFhMUPg4yD344IMalonjN2GNhBoSAUFkGPUBcrC20D84WSijR4/WSBAiEZAdIYoAA34nJJOCgzn1ATIAQyh4ZAUpE5FxPXr2lDq1a+s1gAbGidw5zoFACedtIiAWfvWVdOncWcdA5Ad9AXTQPgCBugAgWaGEVKtaLfbJxk9eY0bKCoO3Y7QSsBKwEvC3BOAKYPdrCoqVqAEKVgA897EmmEgBFDqK0XCcsPMlBI8IpT27d8vIUaNk/bp1ykdAPD8AAVCBsoTLgJA/7iHmn7YIeyRUkogDFB27aXbxKGbCCAEbEAaxi0eJ0yeUIGADsiV2ztyHtQKGQ8I16V+Hjh1l3ty5Sq5EPSYSy7AhQtYEsGD8kBvBvYAyRnmj8AED9B0eCMKvy91STuYvmK/tAgAIQaRPBiBgRaAPkCrRn/r166tiRw4Uor/eePNNGTN6tBD22bdfX6lcqbK89dZbWh/WAiwOtP3xxx/rOAEIWGYYI7Lr0qWr7Nq1U494AAscoxAFghUH6wIAAZnCmZMVigUIWeEp2zFaCVgJBEwCKCKUNzttwvBQNJAJJVXgWeFazPRwDmAFYMeNeZ4dNCHZs2bPkkoVKysQGDXqXVW8KELM33AecFQApTBtAT5oj2iqdevWacgfgAXTP/Vj0WA3bnbr9AvliEItWLCADBgwULp26yqlS5VWMIOC7da9m9xT4x7lSLjt1orStGmTeCZbjgVQvD17ulgW4VlA4cJtQHscVcC2SPg2u3RCKyEnYnyMEysG1oX69evJU081UzFRB5YJ+rhk6RL9/dEGj6rlgqMSCuMAQDBOlD6KHT4HgBeygd+A0EiOa4z/BOME3CBjrBhwLCALAAF9IIQeiwfACbBCmCCAxD38MmATy4GGQ6pWrRoL0vR0RHGgbduElYCVgJWAlUCAJYADJfwuvXq5vO5tsRIwErAAwc4FKwErASuBLCwBCIIwm9tiJeApgZCqVarGNm5iLQh2algJWAlYCVgJWAlYCVyVQEiVKlX0iIEzGlusBKwErASsBKwErASsBJCABQh2HlgJWAlYCVgJWAlYCVwjgZAqlavElq9QXkNhDHFHiITADJmg6GemeHxn5WolYCVgJWAlYCVgJRAEEtAsUq4SUrly5VgDDLKFZLvK7qUYwQUUEoCDIBi/HYKVgJWAlYCVgJWAlUDyEvh/xDPqaXB2c74AAAAASUVORK5CYII=;" parent="ZlFNfQ2EXaN5Kx8b1gU9-1" vertex="1">
          <mxGeometry x="40" y="280" width="520" height="295" as="geometry" />
        </mxCell>
        <mxCell id="_T-UqegODgsNLD7EWeNi-0" value="&lt;h1&gt;Final Thoughts&lt;/h1&gt;&lt;p&gt;While Riverbed does offer traditional training and certifications, they do not really cover the myriad of workflows, use-cases and questions our customers have. In order for SE&#39;s to effectively position and sell SteelCentral. Understanding how our products work, what knobs need to be turned and how to deploy them is one thing but knowing what answers our solutions provide is another.&amp;nbsp;&lt;/p&gt;" style="text;html=1;strokeColor=none;fillColor=none;spacing=5;spacingTop=-20;whiteSpace=wrap;overflow=hidden;rounded=0;" vertex="1" parent="ZlFNfQ2EXaN5Kx8b1gU9-1">
          <mxGeometry x="40" y="30" width="760" height="120" as="geometry" />
        </mxCell>
        <mxCell id="_T-UqegODgsNLD7EWeNi-1" value="&lt;h1&gt;Random Commentary&lt;/h1&gt;&lt;p&gt;Below is a slide I stole from Joe Kraenzle. I particularly like this slide because it &quot;maps&quot; topics and sub-topics to our sources. I think incorporating this logic into the Advanced SteelCentral training might be good to know because it may short-circuit how the SE&#39;s talk, pitch and position SteelCentral using a more &quot;free flowing&quot; conversational approach. It also might be a good idea to talk about the data sources themselves (eg., NetFlow, SNMP, Synths, Packets) and provide a pros and cons of each approach.&amp;nbsp;&lt;/p&gt;" style="text;html=1;strokeColor=none;fillColor=none;spacing=5;spacingTop=-20;whiteSpace=wrap;overflow=hidden;rounded=0;" vertex="1" parent="ZlFNfQ2EXaN5Kx8b1gU9-1">
          <mxGeometry x="40" y="160" width="760" height="120" as="geometry" />
        </mxCell>
        <mxCell id="ilBuLvZ2UMlHHhXIbzoZ-0" value="&lt;h1&gt;Additional Notes&lt;/h1&gt;&lt;p&gt;* Perhaps we should include SteelCentral product limits (eg., things like host group limits and how we manage against these limits)&lt;/p&gt;" style="text;html=1;strokeColor=none;fillColor=none;spacing=5;spacingTop=-20;whiteSpace=wrap;overflow=hidden;rounded=0;" vertex="1" parent="ZlFNfQ2EXaN5Kx8b1gU9-1">
          <mxGeometry x="50" y="590" width="770" height="120" as="geometry" />
        </mxCell>
      </root>
    </mxGraphModel>
  </diagram>
</mxfile>
